<?xml version="1.0" encoding="UTF-8"?>
<svg width="161px" height="58px" viewBox="0 0 161 58" version="1.1" xmlns="http://www.w3.org/2000/svg" xmlns:xlink="http://www.w3.org/1999/xlink">
    <!-- Generator: Sketch 49.2 (51160) - http://www.bohemiancoding.com/sketch -->
    <title>001</title>
    <desc>Created with Sketch.</desc>
    <defs></defs>
    <g id="Page-1" stroke="none" stroke-width="1" fill="none" fill-rule="evenodd">
        <g id="移动端-首页" transform="translate(-23.000000, -17.000000)">
            <g id="Page-1-Copy-2" transform="translate(23.000000, 17.000000)">
                <g id="Group">
                    <path d="M21.9823066,22.0866697 C19.5411446,24.5405268 15.5777386,24.5405268 13.1361951,22.0866697 C10.6935067,19.633196 10.6935067,15.6514293 13.1361951,13.198339 C15.5777386,10.7448653 19.5411446,10.7448653 21.9823066,13.198339 C24.4238501,15.6514293 24.4238501,19.633196 21.9823066,22.0866697 Z M33.2867906,10.7291069 C30.8452471,13.1837309 26.8826043,13.1837309 24.4402975,10.7291069 C21.9976091,8.27524979 21.9976091,4.29425 24.4402975,1.84039286 C26.8814595,-0.613464285 30.8452471,-0.613464285 33.2867906,1.84039286 C35.7290974,4.29425 35.7290974,8.27563321 33.2867906,10.7291069 Z M33.2867906,24.5560168 C35.7290974,27.0098739 35.7290974,30.9912571 33.2867906,33.4435806 C30.8452471,35.8982046 26.8814595,35.8982046 24.4402975,33.4435806 C21.9976091,30.9897235 21.9976091,27.0098739 24.4402975,24.5560168 C26.8814595,22.1013928 30.8452471,22.1013928 33.2867906,24.5560168 Z M35.7437894,22.0866697 C33.3022459,19.633196 33.3022459,15.6514293 35.7437894,13.198339 C38.1857146,10.7448653 42.1479757,10.7448653 44.5910457,13.198339 C47.0337341,15.6514293 47.0337341,19.633196 44.5910457,22.0866697 C42.1479757,24.5405268 38.1857146,24.5405268 35.7437894,22.0866697 Z M11.1194603,32.9007414 L8.8576552,30.6278562 C9.60332199,29.4170311 9.51059066,27.8270084 8.46574129,26.7772176 C7.24764078,25.5529729 5.26212169,25.5529729 4.04287635,26.7772176 C2.82477584,28.0029959 2.82477584,29.9975217 4.04287635,31.2225332 C5.08734411,32.2711737 6.66911936,32.3639602 7.87462672,31.6159172 L10.137195,33.8880355 C7.68076862,35.8580227 4.10393402,35.7288118 1.83144388,33.4436573 C-0.610481293,30.9898002 -0.610481293,27.0099506 1.83144388,24.5560935 C4.27336905,22.1014695 8.23563019,22.1014695 10.6775554,24.5560935 C12.9515719,26.8389474 13.0805563,30.4330813 11.1194603,32.9007414 Z M21.9823066,35.9130044 C24.2563231,38.1981589 24.3841626,41.7911425 22.4245931,44.2588026 L20.1631696,41.985534 C20.9080732,40.7747089 20.8153419,39.1858364 19.7708741,38.1352788 C18.7264063,37.0870217 17.1446311,36.9934684 15.9387421,37.7422782 L13.6769371,35.4701599 C16.1322186,33.5005561 19.7086716,33.6293836 21.9823066,35.9130044 Z M15.3481236,42.5802876 C16.3914466,43.629695 17.973985,43.7213312 19.1787292,42.9736716 L21.4405342,45.24579 C18.9852527,47.2157771 15.4087997,47.0869496 13.1363096,44.8017952 C10.862293,42.5185578 10.7333087,38.9244239 12.6940231,36.4582975 L14.9558281,38.7292656 C14.2113062,39.941241 14.3032743,41.5308803 15.3481236,42.5802876 Z M31.4663181,50.0875568 L33.7285047,47.8158219 C35.6884559,50.2819483 35.5598532,53.8760822 33.2869814,56.1593196 C30.8450563,58.6135601 26.8824135,58.6135601 24.4404883,56.1593196 C22.167235,53.8760822 22.0382507,50.2819483 23.9985835,47.8158219 L26.2603885,50.0875568 C25.5154849,51.2995322 25.607453,52.8884047 26.6519208,53.937812 C27.8711661,55.1628235 29.8555404,55.1628235 31.075549,53.937812 C32.1196351,52.8884047 32.2116032,51.2995322 31.4663181,50.0875568 Z M24.981154,46.8277993 C27.2555522,45.0042767 30.4713833,45.0042767 32.7457815,46.8277993 L30.4835949,49.1006845 C29.4776698,48.4753343 28.2492658,48.4753343 27.2433407,49.1006845 L24.981154,46.8277993 Z M37.9551837,38.1352404 C36.9114792,39.185798 36.8191295,40.7746705 37.5644146,41.9854957 L35.3033728,44.2583808 C33.3422768,41.7907208 33.4708795,38.1981205 35.7437513,35.9129661 C38.0173862,33.6297287 41.5942208,33.5005178 44.049884,35.4701215 L41.7880789,37.7426233 C40.58219,36.99343 39.0000331,37.0869834 37.9551837,38.1352404 Z M42.7704205,38.7292656 L45.0326072,36.4571472 C46.9925584,38.9244239 46.8639556,42.5185578 44.5910839,44.8017952 C42.3182121,47.0869496 38.7413775,47.2157771 36.2857144,45.24579 L38.5479011,42.9736716 C39.7526452,43.7213312 41.3351837,43.6300784 42.3792698,42.5802876 C43.423356,41.5308803 43.5157057,39.941241 42.7704205,38.7292656 Z M55.8949574,24.5560168 C58.3376458,27.0098739 58.3376458,30.9912571 55.8949574,33.4435806 C53.6224673,35.7272014 50.0463959,35.8583294 47.5895879,33.8879588 L49.8513929,31.6154571 C51.0569003,32.3638835 52.6390572,32.2714804 53.6839065,31.2224565 C54.9023886,29.997445 54.9016254,28.0029192 53.6839065,26.7771409 C52.4650428,25.5532797 50.4799053,25.5532797 49.26066,26.7771409 C48.215429,27.8269317 48.1238425,29.4169544 48.8683645,30.6277796 L46.6061778,32.9006647 C44.645845,30.4330046 44.7752109,26.8388708 47.0484643,24.5560168 C49.4900079,22.1013928 53.4537954,22.1013928 55.8949574,24.5560168 Z M5.02598115,27.7658153 C5.70372128,27.0844865 6.80581222,27.0844865 7.48355235,27.7658153 C8.16167409,28.4479109 8.16167409,29.5532969 7.48355235,30.2346256 C6.80581222,30.9151876 5.70372128,30.9159544 5.02598115,30.235009 C4.34900424,29.5532969 4.34900424,28.4479109 5.02598115,27.7658153 Z M18.1904345,41.9798978 C17.5665014,42.2252835 16.8334278,42.0991399 16.3304652,41.5926485 C15.8282659,41.0869239 15.700808,40.3488496 15.9442755,39.7238829 C16.0293746,39.5026523 16.1556876,39.2982921 16.3304652,39.1234547 C16.5052428,38.9474672 16.7078779,38.8205567 16.9280672,38.735822 C17.5516186,38.4912031 18.2854555,38.6181135 18.7876548,39.1234547 C19.2913806,39.6284125 19.417312,40.3661033 19.173463,40.9918369 C19.0891271,41.2123006 18.9620508,41.4170443 18.788418,41.5926485 C18.6128772,41.7678692 18.4098605,41.8959299 18.1904345,41.9798978 Z M41.3960124,39.123378 C41.5715532,39.2985988 41.697103,39.5025757 41.7825837,39.7238062 C42.0260512,40.348773 41.8993565,41.0872306 41.3960124,41.5925718 C40.893813,42.0990632 40.1595946,42.2252068 39.5360431,41.9798211 C39.3173803,41.8958532 39.1136004,41.7677925 38.9388228,41.5925718 C38.7640452,41.4169676 38.6373505,41.2122239 38.5533962,40.9917602 C38.3091656,40.3660266 38.4354786,39.6283358 38.9399676,39.123378 C39.4421669,38.6176534 40.1756222,38.4915098 40.7991737,38.7357453 C41.0178364,38.8204801 41.2227612,38.9477739 41.3960124,39.123378 Z M52.7012215,30.2351624 C52.0234814,30.9157244 50.9210088,30.9153409 50.2425055,30.234779 C49.5659102,29.5530668 49.5659102,28.4476809 50.2425055,27.7659687 C50.9210088,27.0842565 52.0234814,27.0842565 52.7012215,27.7659687 C53.3778168,28.4476809 53.3781984,29.5530668 52.7012215,30.2351624 Z M28.2323223,50.0937681 C28.8554921,49.8483824 29.589329,49.9756763 30.0919099,50.4821677 C30.5944909,50.9871255 30.7211855,51.7228992 30.4780997,52.3493996 C30.3937638,52.5698634 30.2670691,52.7734568 30.0926731,52.9498278 C29.9171323,53.125432 29.713734,53.2531092 29.4950712,53.337844 C28.8715197,53.5828463 28.1373013,53.4559358 27.6347203,52.9498278 C27.1313762,52.4444866 27.0050631,51.7087129 27.2489122,51.0818291 C27.3336297,50.8613653 27.4599427,50.6562382 27.6347203,50.4821677 C27.8091163,50.3050299 28.0136595,50.1781195 28.2323223,50.0937681 Z" id="Combined-Shape" fill="#58B2FF"></path>
                    <path d="M71.9461933,28.6539244 C71.9461933,27.4530864 72.861478,26.4769418 73.9874471,26.4769418 L76.6016234,26.4769418 L76.6016234,30.9909481 L71.9461933,30.9909481 L71.9461933,28.6539244 Z M79.4746831,30.9909481 L84.1306101,30.9909481 L84.1306101,26.4764118 L79.4746831,26.4764118 L79.4746831,30.9909481 Z M91.6600937,28.6539244 L91.6600937,30.9909481 L87.0041667,30.9909481 L87.0041667,26.4769418 L89.618343,26.4769418 C90.744809,26.4769418 91.6600937,27.4530864 91.6600937,28.6539244 Z M95.4807364,30.9909481 L94.5331534,30.9909481 L94.5331534,28.6539244 C94.5331534,25.7641761 92.3279235,23.412844 89.618343,23.412844 L73.9874471,23.412844 C71.2778665,23.412844 69.0731336,25.7641761 69.0731336,28.6539244 L69.0731336,30.9909481 L68.166793,30.9909481 C67.3737451,30.9909481 66.7302632,31.677217 66.7302632,32.522997 C66.7302632,33.3693069 67.3737451,34.0550459 68.166793,34.0550459 L95.4807364,34.0550459 C96.2742813,34.0550459 96.9177632,33.3693069 96.9177632,32.522997 C96.9177632,31.677217 96.2742813,30.9909481 95.4807364,30.9909481 Z" id="Fill-176" fill="#000000"></path>
                    <path d="M69.7564054,10.8624485 C68.9626431,10.8624485 68.3190789,10.187384 68.3190789,9.35476982 C68.3190789,8.52163391 68.9626431,7.8465695 69.7564054,7.8465695 L75.3798831,7.8465695 C75.4032583,7.03586617 76.0338915,6.3853211 76.8127335,6.3853211 C77.5915754,6.3853211 78.2217113,7.03586617 78.2460812,7.8465695 L85.9320477,7.8465695 C85.9564176,7.03586617 86.5870508,6.3853211 87.3653955,6.3853211 C88.1447348,6.3853211 88.7748706,7.03586617 88.7987432,7.8465695 L94.4212262,7.8465695 C95.2149885,7.8465695 95.8585526,8.52163391 95.8585526,9.35476982 C95.8585526,10.187384 95.2149885,10.8624485 94.4212262,10.8624485 L88.7987432,10.8624485 C88.7748706,11.6736735 88.1447348,12.3242185 87.3653955,12.3242185 C86.5865535,12.3242185 85.9559203,11.6736735 85.9320477,10.8624485 L78.2460812,10.8624485 C78.2222086,11.6736735 77.5920728,12.3242185 76.8127335,12.3242185 C76.0338915,12.3242185 75.4032583,11.6736735 75.3798831,10.8624485 L69.7564054,10.8624485 Z M93.283152,13.5577501 C94.0774117,13.5577501 94.7209759,14.2328145 94.7209759,15.0654287 C94.7209759,15.8985646 94.0774117,16.573629 93.283152,16.573629 L87.4746621,16.573629 C86.1298418,16.573629 85.039662,17.7171694 85.039662,19.1272923 L85.039662,20.6709675 C85.039662,21.5041034 84.3960978,22.1791678 83.6018381,22.1791678 C82.8080758,22.1791678 82.1640143,21.5041034 82.1640143,20.6709675 L82.1640143,19.127814 C82.1640143,16.0514192 84.5418198,13.5577501 87.4741648,13.5577501 L93.283152,13.5577501 Z M69.3265503,14.6166726 C69.3265503,13.7835367 69.9701145,13.1084723 70.7643741,13.1084723 C71.5581364,13.1084723 72.202198,13.7835367 72.202198,14.6166726 L72.202198,21.3725336 C72.202198,22.2051478 71.5581364,22.8807339 70.7643741,22.8807339 C69.9701145,22.8807339 69.3265503,22.2051478 69.3265503,21.3725336 L69.3265503,14.6166726 Z M76.8129821,13.8096733 C77.6072418,13.8096733 78.250806,14.4847377 78.250806,15.3178736 L78.250806,20.6709153 C78.250806,21.5040512 77.6072418,22.1791156 76.8129821,22.1791156 C76.0187225,22.1791156 75.374661,21.5040512 75.374661,20.6709153 L75.374661,15.3178736 C75.374661,14.4847377 76.0187225,13.8096733 76.8129821,13.8096733 Z M93.283152,19.1636018 C94.0774117,19.1636018 94.7209759,19.8386662 94.7209759,20.6712805 C94.7209759,21.5038947 94.0774117,22.1794808 93.283152,22.1794808 L87.9978688,22.1794808 C87.2041065,22.1794808 86.5605424,21.5038947 86.5605424,20.6712805 C86.5605424,19.8386662 87.2041065,19.1636018 87.9978688,19.1636018 L93.283152,19.1636018 Z" id="Combined-Shape" fill="#000000"></path>
                    <path d="M146.599883,27.4023969 C145.808801,27.4023969 145.167812,26.7379381 145.167812,25.9178913 C145.167812,25.0978445 145.808801,24.4333858 146.599883,24.4333858 L155.43652,24.4333858 C156.227602,24.4333858 156.868591,25.0978445 156.868591,25.9178913 C156.868591,26.7379381 156.227602,27.4023969 155.43652,27.4023969 L146.599883,27.4023969 Z M147.388835,10.7923667 C146.598248,10.7923667 145.957259,10.1279079 145.957259,9.30837462 C145.957259,8.48832781 146.598248,7.82386909 147.388835,7.82386909 L155.408632,7.82386909 C157.761072,7.82386909 159.668189,9.8008135 159.668189,12.2388738 L159.668189,15.8713166 C159.668189,16.6913634 159.026704,17.3558221 158.235622,17.3558221 C157.445036,17.3558221 156.804046,16.6913634 156.804046,15.8713166 L156.804046,12.2393873 C156.804046,11.4403936 156.178908,10.7923667 155.407641,10.7923667 L147.388835,10.7923667 Z M158.915051,18.3754119 C160.066256,18.3754119 161,19.3433445 161,20.5367 L161,26.0757388 C161,30.4825276 157.553816,34.0548918 153.302184,34.0548918 L149.311605,34.0548918 C148.521018,34.0548918 147.879534,33.3904331 147.879534,32.5708998 C147.879534,31.750853 148.521018,31.0858808 149.311605,31.0858808 L153.302184,31.0858808 C155.972147,31.0858808 158.135858,28.8429475 158.135858,26.0757388 L158.135858,21.344423 L146.975015,21.344423 C146.087835,21.344423 145.505793,20.3826524 145.891179,19.5543897 L148.97724,12.9231533 C149.321512,12.1847517 150.17699,11.875116 150.88931,12.230966 C151.601631,12.5873295 151.900825,13.4746438 151.557049,14.2130453 L149.619715,18.3754119 L158.915051,18.3754119 Z M101.163649,29.0243642 L101.163649,27.8546293 C101.163649,27.0345825 101.804638,26.3701238 102.596215,26.3701238 C103.386307,26.3701238 104.027791,27.0345825 104.027791,27.8546293 L104.027791,29.0248777 C104.027791,30.1632896 104.917944,31.0860348 106.016146,31.0860348 L113.126966,31.0860348 L113.126966,27.1911976 C113.126966,26.3711508 113.767956,25.706692 114.559037,25.706692 C115.350119,25.706692 115.991604,26.3711508 115.991604,27.1911976 L115.991604,31.0860348 L122.797285,31.0860348 C123.895983,31.0860348 124.786136,30.1627761 124.786136,29.0243642 L124.786136,23.4709476 C124.786136,22.6509008 125.427125,21.9864421 126.218207,21.9864421 C127.009289,21.9864421 127.650773,22.6509008 127.650773,23.4709476 L127.650773,29.0248777 C127.650773,31.8028697 125.478146,34.0550459 122.798276,34.0550459 L106.016641,34.0550459 C103.336771,34.0550459 101.163649,31.8028697 101.163649,29.0243642 Z M102.596017,14.985286 C101.80444,14.985286 101.163451,14.3208273 101.163451,13.5007805 L101.163451,12.854294 C101.163451,10.076302 103.336078,7.82412584 106.016443,7.82412584 L113.195622,7.82412584 C113.219895,7.02615919 113.848005,6.3853211 114.623235,6.3853211 C115.399457,6.3853211 116.027071,7.02615919 116.050848,7.82412584 L122.797583,7.82412584 C125.477453,7.82412584 127.650575,10.076302 127.650575,12.854294 L127.650575,13.5007805 C127.650575,14.3208273 127.00909,14.985286 126.218504,14.985286 C125.427422,14.985286 124.786433,14.3208273 124.786433,13.5007805 L124.786433,12.854294 C124.786433,11.7153686 123.895785,10.7921099 122.797087,10.7921099 L106.016443,10.7921099 C104.918241,10.7921099 104.028088,11.7153686 104.028088,12.854294 L104.028088,13.5007805 C104.028088,14.3208273 103.386604,14.985286 102.596017,14.985286 Z M101.291847,24.0263406 C100.965408,23.2797232 101.284417,22.4006248 102.004167,22.0622335 L105.955118,20.159232 C105.793633,19.5800129 105.702487,18.9699844 105.702487,18.3368487 L105.702487,14.1631853 L105.702487,14.1626718 C105.702487,13.3431384 106.343477,12.6781662 107.134558,12.6781662 L110.105202,12.6781662 C110.896284,12.6781662 111.537273,13.3431384 111.537273,14.1626718 C111.537273,14.9822051 110.896284,15.6466638 110.105202,15.6466638 L108.567125,15.6466638 L108.567125,18.3363352 C108.567125,18.5217058 108.584462,18.702455 108.610221,18.8806368 L121.456756,12.6930575 C122.177002,12.3546662 123.025545,12.6853551 123.351984,13.4319726 C123.678423,14.1780765 123.359414,15.0576884 122.639664,15.3960797 L110.205264,21.385451 C110.736284,21.7279502 111.360927,21.9297526 112.033123,21.9297526 L117.343328,21.9297526 C118.896266,21.9297526 120.213415,20.865797 120.65329,19.4038852 C120.839048,18.7846137 121.355704,18.3363352 121.981832,18.3363352 L122.103194,18.3363352 C123.016629,18.3363352 123.679414,19.2467566 123.425792,20.1566645 C122.662945,22.8925502 120.224808,24.8987636 117.343328,24.8987636 L112.032628,24.8987636 C110.180496,24.8987636 108.519571,24.0689605 107.361926,22.7549343 L103.187075,24.7657692 C102.467324,25.104674 101.618286,24.7734716 101.291847,24.0268541 L101.291847,24.0263406 Z M102.596017,20.2694274 C101.507723,20.2694274 100.625,19.354898 100.625,18.226756 C100.625,17.0986139 101.507723,16.1840846 102.596017,16.1840846 C103.683817,16.1840846 104.566539,17.0986139 104.566539,18.226756 C104.566539,19.354898 103.683817,20.2694274 102.596017,20.2694274 Z M126.233216,16.1840332 C127.321511,16.1840332 128.204233,17.0985626 128.204233,18.2267046 C128.204233,19.3548467 127.321511,20.269376 126.233216,20.269376 C125.144921,20.269376 124.262694,19.3548467 124.262694,18.2267046 C124.262694,17.0985626 125.144921,16.1840332 126.233216,16.1840332 Z" id="Combined-Shape" fill="#000000"></path>
                    <path d="M139.311222,18.9486114 C140.402304,18.9486114 141.289763,19.8881891 141.289763,21.0428257 L141.289763,30.0079632 C141.289763,31.1620779 140.402304,32.1011336 139.311222,32.1011336 C138.220633,32.1011336 137.333667,31.1620779 137.333667,30.0079632 L137.333667,21.0428257 C137.333667,19.8881891 138.220633,18.9486114 139.311222,18.9486114 M132.948139,20.3637198 C133.410604,20.7468588 134.026402,20.779222 134.511546,20.4983927 C134.493304,20.6774344 134.48295,20.8590861 134.48295,21.0428257 L134.48295,30.0079632 C134.48295,32.8261744 136.649337,35.1192661 139.311222,35.1192661 C141.9736,35.1192661 144.140479,32.8261744 144.140479,30.0079632 L144.140479,21.0428257 C144.140479,18.2240926 141.9736,15.9310009 139.311222,15.9310009 C138.80537,15.9310009 138.31776,16.0145189 137.85924,16.1679833 L141.680245,10.9992618 L143.157372,10.9992618 C143.944252,10.9992618 144.582237,10.3238099 144.582237,9.49019561 C144.582237,8.65710336 143.944252,7.98165138 143.157372,7.98165138 L134.361664,7.98165138 C133.574291,7.98165138 132.936306,8.65710336 132.936306,9.49019561 C132.936306,10.3238099 133.574291,10.9992618 134.361664,10.9992618 L138.060397,10.9992618 L132.70458,18.2454941 C132.218943,18.9016325 132.328396,19.850084 132.948139,20.3637198" id="Fill-183" fill="#000000"></path>
                    <path d="M78.6948538,48.050993 C79.3421454,48.050993 79.8673534,48.6038281 79.8673534,49.2863406 C79.8673534,49.9683281 79.3421454,50.5216882 78.6948538,50.5216882 L72.4252449,50.5216882 C69.5719798,50.5216882 67.2598684,48.0845936 67.2598684,45.0789136 L67.2598684,39.0203028 C67.2598684,38.3383153 67.7840799,37.7854802 68.4318697,37.7854802 C69.0791612,37.7854802 69.6043693,38.3383153 69.6043693,39.0203028 L69.6043693,45.0789136 C69.6043693,46.7200936 70.8670612,48.050993 72.4252449,48.050993 L78.6948538,48.050993 Z M93.1041912,41.6239829 L95.310663,48.9410418 C95.5508436,49.7374813 94.9862698,50.5501962 94.1934747,50.5501962 C93.682219,50.5501962 93.2302611,50.2015898 93.0757881,49.6886555 L90.8693163,42.3726466 C90.4592155,41.0144468 89.2219369,40.1334807 87.8491208,40.262633 C86.6621705,40.3749851 85.6845061,41.302677 85.323737,42.4991739 L84.9081549,43.8778492 L88.9548482,43.8778492 C89.602638,43.8778492 90.1273478,44.4312093 90.1273478,45.1131968 C90.1273478,45.7951842 89.602638,46.3485443 88.9548482,46.3485443 L84.1626983,46.3485443 L83.1546377,49.6891805 C83.000663,50.2015898 82.5482067,50.5501962 82.0374494,50.5501962 C81.244156,50.5501962 80.6795822,49.7374813 80.9202611,48.9410418 L83.075408,41.7956611 C83.7042624,39.7103229 85.3825364,38.0948684 87.4430064,37.8239634 C90.004766,37.4879573 92.342789,39.1018368 93.1041912,41.6239829 Z M110.529588,37.8735768 C111.17688,37.8735768 111.702088,38.4264119 111.702088,39.1089244 L111.702088,48.3349182 C111.702088,49.1045823 111.355271,49.857446 110.726417,50.2491032 C110.40003,50.4517569 110.043746,50.5504587 109.690451,50.5504587 C109.170226,50.5504587 108.660465,50.3367798 108.275778,49.9330474 L99.9103196,40.8010304 L99.9103196,49.3151111 C99.9103196,49.9976236 99.3861082,50.5504587 98.7383183,50.5504587 C98.0910268,50.5504587 97.5658187,49.9976236 97.5658187,49.3151111 L97.5658187,40.0087909 C97.5658187,39.2716774 97.8782528,38.5471641 98.4627585,38.1418567 C99.279472,37.5758964 100.324407,37.7045237 100.991132,38.4038365 L109.357089,47.5363786 L109.357089,39.1089244 C109.357089,38.4264119 109.881798,37.8735768 110.529588,37.8735768 Z M128.375949,37.9617259 C129.123897,38.2788317 129.607746,39.0411457 129.607746,39.9047865 L129.607746,49.3434091 C129.607746,50.0101713 129.094497,50.5504062 128.461656,50.5504062 C127.828816,50.5504062 127.316065,50.0101713 127.316065,49.3434091 L127.316065,41.137509 L123.639609,47.0674925 C123.321693,47.5799019 122.84482,47.9820592 122.279748,48.1222368 C121.342945,48.354291 120.41511,47.9468836 119.912824,47.1373188 L116.192517,41.137509 L116.192517,49.3434091 C116.192517,50.0101713 115.679766,50.5504062 115.046926,50.5504062 C114.414085,50.5504062 113.901334,50.0101713 113.901334,49.3434091 L113.901334,39.9047865 C113.901334,39.0411457 114.384685,38.2788317 115.132633,37.9617259 C115.862144,37.6530203 116.687329,37.8430738 117.235459,38.4436847 L117.368006,38.619563 L121.754042,45.6935424 L126.273123,38.4436847 C126.821752,37.8425487 127.647434,37.6524953 128.375949,37.9617259 Z M144.098157,41.7949786 L146.253304,48.9408843 C146.493983,49.7373238 145.929409,50.5500387 145.136116,50.5500387 L145.135617,50.5500387 C144.625358,50.5500387 144.172902,50.2019573 144.018429,49.689023 L141.811957,42.3724891 C141.402853,41.0148143 140.166073,40.1338482 138.793256,40.2630005 C137.606306,40.3737776 136.627645,41.3014695 136.266378,42.4984914 L135.850297,43.8782167 L139.897987,43.8782167 C140.545777,43.8782167 141.070487,44.4310518 141.070487,45.1130392 C141.070487,45.7955517 140.545777,46.3483868 139.897987,46.3483868 L135.105339,46.3483868 L134.097777,49.689023 C133.942806,50.2019573 133.490848,50.5500387 132.98009,50.5500387 C132.186797,50.5500387 131.622721,49.7373238 131.862404,48.9408843 L134.069872,41.6238254 C134.830278,39.1022043 137.167802,37.4883248 139.729064,37.8238059 C141.79053,38.0936608 143.469302,39.7096404 144.098157,41.7949786 Z M159.987794,48.1471223 C160.930577,48.9377867 160.399389,50.537491 159.1945,50.537491 C158.906483,50.537491 158.627435,50.4345891 158.401207,50.2455856 L153.511889,46.1415856 L150.725396,50.0072313 C150.484717,50.3416624 150.109995,50.537491 149.711854,50.537491 L149.654051,50.537491 C148.601143,50.537491 148.003183,49.2680178 148.640509,48.3849516 L151.484306,44.4395044 L146.41261,40.1832516 C145.469827,39.3920621 146.001015,37.7923578 147.205904,37.7923578 C147.493921,37.7923578 147.773467,37.8957847 147.998699,38.0847882 L153.024053,42.3027153 L155.892765,38.3226175 C156.133942,37.9887114 156.509162,37.7923578 156.906806,37.7923578 L156.964608,37.7923578 C158.017018,37.7923578 158.614978,39.0618311 157.978649,39.9448972 L155.052632,44.0042715 L159.987794,48.1471223 Z" id="Combined-Shape" fill="#000000"></path>
                </g>
            </g>
        </g>
    </g>
</svg>