<?xml version="1.0" encoding="UTF-8"?>
<svg width="319px" height="23px" viewBox="0 0 319 23" version="1.1" xmlns="http://www.w3.org/2000/svg" xmlns:xlink="http://www.w3.org/1999/xlink">
    <!-- Generator: Sketch 49.2 (51160) - http://www.bohemiancoding.com/sketch -->
    <title>004</title>
    <desc>Created with Sketch.</desc>
    <defs></defs>
    <g id="Page-1" stroke="none" stroke-width="1" fill="none" fill-rule="evenodd">
        <g id="移动端-首页" transform="translate(-30.000000, -354.000000)" fill="#58B2FF" stroke="#58B2FF" stroke-width="0.5">
            <g id="Group-19" transform="translate(30.000000, 354.000000)">
                <g id="Group-20">
                    <path d="M17.712,15.48 C17.376,15.24 17.376,14.784 17.112,14.472 C16.248,13.44 15.216,12.744 14.136,12.192 C14.136,14.64 14.304,17.256 14.112,19.608 C14.04,20.376 13.608,20.832 13.008,21.048 C12.384,21.264 11.568,21.168 10.968,20.736 C10.632,20.496 10.296,20.184 10.176,19.776 C10.128,19.584 10.344,19.488 10.464,19.632 C10.776,20.016 11.184,20.28 11.64,20.376 C12.024,20.472 12.576,20.472 12.888,20.208 C13.272,19.896 13.392,19.392 13.368,18.864 C13.344,17.952 13.344,16.224 13.344,15.432 C13.32,13.104 13.272,8.256 13.248,6.12 C14.424,5.808 15.504,5.496 16.32,4.56 C16.704,4.104 16.32,3.384 15.696,3.384 C14.472,3.36 13.344,3.84 12.384,4.536 C11.208,5.376 10.248,6.6 9.552,7.8 C9.384,7.92 9.192,7.848 9.072,7.776 C8.688,7.488 8.688,7.056 8.64,6.624 C8.496,5.088 8.832,3.672 9.312,2.376 C9.384,2.232 9.528,2.208 9.648,2.136 C9.864,2.112 10.032,2.304 10.032,2.472 C9.84,3.192 9.624,3.888 9.48,4.632 C9.36,5.304 9.336,6 9.456,6.696 C10.128,5.664 10.968,4.68 11.952,3.936 C13.032,3.144 14.28,2.592 15.648,2.592 C16.224,2.592 16.776,2.856 17.04,3.288 C17.304,3.672 17.328,4.224 17.04,4.704 C16.44,5.76 15.216,6.336 14.04,6.528 L14.112,11.496 C15.624,12.144 17.04,12.888 18,14.376 C18.144,14.616 18.312,15 18.072,15.36 C18.024,15.48 17.856,15.6 17.712,15.48 Z M4.608,16.536 C4.248,16.752 3.936,16.848 3.72,16.776 C3.528,16.68 3.408,16.416 3.408,15.936 C3.408,14.52 3.48,13.056 3.624,11.664 C3.264,11.976 2.928,12.264 2.52,12.456 C1.968,12.696 1.488,12.6 1.248,12.288 C1.056,12.048 1.008,11.64 1.176,11.136 C2.184,9.384 3.6,7.56 5.376,6.408 C5.568,6.384 5.712,6.504 5.808,6.648 C5.76,7.056 5.52,7.272 5.256,7.464 C4.728,7.848 4.224,8.352 3.744,8.904 C3.048,9.672 2.424,10.584 1.992,11.424 C1.704,12 2.16,11.928 2.52,11.76 C2.904,11.568 3.288,11.232 3.504,10.968 C3.816,10.656 4.08,10.536 4.248,10.632 C4.368,10.728 4.44,10.92 4.416,11.304 C4.272,12.792 4.152,14.28 4.224,15.72 C4.248,15.768 4.32,15.792 4.344,15.768 C4.944,15.168 5.352,14.472 5.664,13.752 C6,13.032 6.264,12.288 6.624,11.4 C6.816,11.928 6.6,12.816 6.24,13.704 C5.76,14.88 5.04,16.08 4.608,16.536 Z M8.688,17.544 C8.52,17.544 8.376,17.52 8.304,17.352 C8.4,16.944 8.64,16.584 8.856,16.272 C10.152,14.424 10.992,12.36 12.096,10.392 C12.336,10.488 12.264,10.632 12.264,10.8 C11.592,13.248 10.728,15.624 8.688,17.544 Z M36.024,18.552 C34.944,19.296 33.912,19.944 32.664,20.376 C31.632,20.736 30.552,20.928 29.4,20.952 C28.632,20.88 27.864,20.52 27.504,19.776 C27.264,19.32 27.168,18.816 27.12,18.288 C27.072,17.808 27.048,17.328 27.024,16.848 C26.016,17.76 25.032,18.72 23.952,19.536 C23.592,19.752 23.088,19.896 22.656,19.68 C22.368,19.368 22.344,19.008 22.296,18.6 C22.248,18.12 22.296,17.616 22.32,17.112 C22.344,16.632 22.32,16.176 22.2,15.744 C22.08,15.624 21.96,15.576 21.84,15.624 C21.744,15.648 21.648,15.72 21.552,15.792 C21.24,16.08 20.928,16.464 20.472,16.104 C20.4,16.032 20.256,15.84 20.424,15.672 C22.128,13.944 24.648,11.064 25.608,9.936 C25.8,9.792 26.04,9.672 26.304,9.72 C26.52,9.768 26.64,9.936 26.616,10.152 C25.8,10.896 25.08,11.712 24.408,12.528 C23.736,13.344 23.088,14.136 22.368,14.904 C22.584,14.976 22.848,15.144 22.944,15.408 C23.112,15.936 23.16,16.512 23.16,17.088 C23.184,17.688 23.136,18.264 23.184,18.84 C23.16,18.912 23.256,19.008 23.472,18.912 C23.64,18.84 23.76,18.744 23.904,18.648 L24.264,18.336 C25.2,17.544 26.136,16.656 26.976,15.84 C27.072,15.336 27.072,14.76 27.168,14.256 C27.312,13.8 27.192,13.224 27.552,12.864 C27.72,12.768 27.888,12.84 27.96,12.936 L28.08,13.176 L28.128,13.368 C28.056,13.872 27.984,14.4 27.936,14.904 C28.44,14.448 28.92,13.992 29.424,13.56 C29.976,13.08 30.528,12.624 31.104,12.24 C31.296,12.072 31.608,12.024 31.872,12.096 C32.016,12.144 32.232,12.336 32.088,12.552 C31.944,12.768 31.68,12.84 31.464,12.96 C31.392,13.008 31.32,13.032 31.272,13.08 C30.096,14.04 28.944,14.976 27.864,16.008 C27.864,17.04 27.888,18.072 28.08,19.032 C28.176,19.584 28.8,20.016 29.328,20.088 C30.432,20.088 31.488,19.872 32.472,19.536 C33.528,19.176 34.512,18.648 35.424,17.976 C35.64,17.808 35.736,17.592 35.76,17.376 C35.688,17.112 35.544,16.848 35.4,16.584 C35.232,16.32 35.064,16.032 34.944,15.744 C34.848,15.648 34.896,15.528 34.992,15.48 C35.064,15.432 35.208,15.432 35.304,15.504 C35.448,15.576 35.568,15.696 35.664,15.84 C35.784,15.96 35.88,16.104 35.976,16.224 C36.144,16.488 36.336,16.728 36.456,16.992 C36.576,17.256 36.648,17.568 36.528,17.928 C36.432,18.192 36.24,18.408 36.024,18.552 Z M30.696,4.92 C30.528,4.944 29.616,5.064 29.256,5.16 C29.16,6.36 28.824,7.44 28.368,8.472 C28.248,8.64 28.08,8.808 27.768,8.736 C27.768,8.424 27.864,8.208 27.936,7.968 C28.032,7.752 28.104,7.512 28.152,7.296 C28.2,7.056 28.272,6.84 28.296,6.6 C28.032,7.08 27.744,7.608 27.336,7.968 C27.096,8.184 26.712,8.448 26.352,8.424 C25.848,8.4 25.392,8.04 25.176,7.608 C24.96,7.2 24.84,6.744 24.672,6.288 L21.72,7.104 C21.504,7.08 21.288,6.96 21.168,6.744 C21.144,6.552 21.288,6.36 21.48,6.36 L24.528,5.568 C24.48,5.208 24.48,4.824 24.504,4.44 C24.504,4.056 24.528,3.648 24.552,3.216 C24.624,3 24.744,2.712 25.032,2.568 C25.248,2.472 25.464,2.472 25.656,2.496 L26.256,2.64 C26.328,2.688 26.4,2.76 26.424,2.832 C26.424,2.88 26.424,2.976 26.328,3.024 L25.8,3.144 C25.632,3.192 25.512,3.264 25.44,3.432 C25.32,3.744 25.296,4.056 25.296,4.392 C25.296,4.68 25.344,4.992 25.344,5.328 C26.16,5.184 27.552,4.848 28.512,4.608 C28.464,4.248 28.488,3.816 28.608,3.456 C28.776,3.336 28.92,3.432 29.088,3.528 C29.28,3.768 29.352,4.056 29.328,4.392 C30.144,4.272 30.984,4.152 31.728,3.792 C31.872,3.768 31.944,3.936 31.944,4.032 C31.752,4.68 31.248,4.848 30.696,4.92 Z M25.488,6.12 C25.608,6.552 25.728,7.032 25.992,7.416 C26.16,7.584 26.304,7.68 26.472,7.656 C27.336,7.2 27.888,6.264 28.368,5.4 C27.408,5.616 26.424,5.856 25.488,6.12 Z M50.952,14.304 C50.832,14.352 50.616,14.328 50.496,14.232 C49.872,13.752 49.536,13.008 49.08,12.408 C48.72,11.928 48.312,11.496 47.64,11.328 C47.568,11.112 47.64,11.04 47.904,10.92 C48.288,10.872 48.552,10.92 48.792,11.064 C48.984,11.208 49.176,11.376 49.344,11.616 C49.536,11.856 49.68,12.096 49.872,12.336 C50.28,12.864 50.592,13.464 51.024,13.992 C51.048,14.16 51,14.256 50.952,14.304 Z M54.36,10.392 C54.168,12.408 53.784,14.376 52.824,16.032 C52.176,17.112 51.312,18.096 50.16,18.792 C49.656,19.008 49.008,19.152 48.384,19.152 C47.736,19.152 47.136,18.984 46.68,18.576 C46.224,18.168 45.696,17.664 45.696,16.992 C45.696,16.752 45.96,16.752 46.056,16.848 C46.368,17.568 46.896,18.096 47.52,18.336 C48.192,18.6 49.008,18.576 49.776,18.192 C50.568,17.808 51.216,17.16 51.72,16.392 C52.536,15.192 53.04,13.704 53.28,12.528 C53.592,11.016 53.688,9.432 53.592,7.8 C53.52,7.56 53.328,7.344 53.088,7.224 C52.392,7.056 51.72,7.368 51.096,7.584 C50.808,7.68 50.544,7.848 50.304,8.016 C50.04,8.184 49.824,8.328 49.56,8.424 C49.128,8.568 48.768,8.52 48.504,8.328 C48.264,8.136 48.072,7.824 48.048,7.392 C48.048,7.008 48.072,6 48.072,5.088 C48.072,4.992 47.952,4.92 47.904,4.992 C46.992,6 46.32,6.936 45.72,7.872 C45.144,8.76 44.688,9.648 44.208,10.632 C44.784,11.184 45.024,11.784 45.096,12.456 C45.144,13.056 45.12,14.064 44.904,14.904 C44.712,15.576 44.376,16.104 43.824,16.296 C43.464,16.44 42.936,16.44 42.6,16.128 C42.36,15.888 42.264,15.432 42.312,14.808 C42.384,13.56 42.84,12.36 43.392,10.968 C42.888,11.04 42.696,11.112 42.528,11.208 C42,11.568 41.76,12.144 41.616,12.744 C41.4,13.56 41.496,14.52 41.52,15.216 C41.544,15.552 41.544,15.888 41.496,16.248 C41.28,16.44 41.16,16.392 40.896,16.272 C40.512,15.792 40.08,14.808 39.768,13.824 C39.624,13.368 39.576,12.912 39.504,12.504 C39.456,12.12 39.432,11.76 39.384,11.496 C39.336,11.136 39.384,10.776 39.552,10.44 C39.696,10.104 39.984,9.792 40.344,9.576 C40.584,9.408 40.704,9.48 40.752,9.552 C40.824,9.672 40.824,9.864 40.728,9.96 C40.272,10.392 39.984,10.872 40.128,11.568 C40.2,11.928 40.224,12.384 40.344,13.008 C40.416,13.44 40.632,14.088 40.824,14.664 C40.872,13.968 40.944,13.368 41.04,12.816 C41.184,12.048 41.4,11.424 41.688,11.088 C42.072,10.584 42.672,10.272 43.632,10.416 C44.16,9.336 44.736,8.328 45.36,7.368 C45.912,6.504 46.536,5.664 47.208,4.848 C47.4,4.608 47.592,4.464 47.904,4.392 C48.216,4.416 48.456,4.44 48.624,4.656 C48.792,4.848 48.816,5.184 48.816,5.496 L48.816,7.512 C48.888,7.728 49.08,7.848 49.296,7.776 C49.608,7.68 49.92,7.512 50.184,7.344 C50.472,7.176 50.736,6.984 50.952,6.888 C51.432,6.6 52.056,6.456 52.632,6.432 C53.064,6.408 53.496,6.504 53.832,6.792 C54.336,7.224 54.408,7.824 54.408,8.448 C54.408,9.096 54.408,9.744 54.36,10.392 Z M42.216,8.208 C42.24,7.992 42.312,7.776 42.384,7.608 C42.432,7.512 42.456,7.416 42.456,7.152 C41.928,7.056 41.496,7.296 41.112,7.584 C40.32,8.208 39.504,9.288 39.168,9.792 C39.144,9.792 39,9.864 38.808,9.744 C38.616,9.648 38.592,9.576 38.616,9.528 C38.784,9.072 39.192,8.544 39.648,8.04 C40.176,7.464 40.8,6.936 41.28,6.648 C41.784,6.36 42.456,6.288 42.888,6.504 C43.152,6.624 43.32,6.888 43.128,7.296 C43.008,7.584 42.768,7.944 42.216,8.208 Z M43.92,11.28 C43.296,12.912 42.96,14.016 43.008,15.456 C43.08,15.576 43.128,15.648 43.248,15.72 C43.632,15.792 43.944,15.48 44.088,15.12 C44.256,14.712 44.352,14.064 44.4,13.392 C44.424,12.744 44.376,12.048 43.92,11.28 Z M71.64,11.424 C71.496,11.544 71.544,11.496 71.352,11.592 C70.512,11.952 69.624,12.192 68.784,12.6 C68.952,13.608 68.952,14.592 68.808,15.552 C68.664,16.488 68.376,17.4 67.944,18.216 C68.688,18.264 69.432,18.048 69.984,17.496 C70.224,17.4 70.296,17.592 70.296,17.736 C70.272,17.88 70.224,18.096 70.104,18.192 C69.456,18.792 68.16,19.008 67.32,18.984 C66.432,20.04 65.304,20.712 64.056,20.976 C63.072,21.192 62.064,21.216 61.008,20.952 C59.616,20.592 58.296,19.968 57.216,18.84 C57.072,18.672 56.88,18.48 56.88,18.216 C56.976,17.736 57.312,17.52 57.648,17.304 C58.488,16.776 60.048,15.888 60.84,15.456 C61.224,13.224 61.464,10.896 61.68,8.568 C61.824,8.088 62.136,7.776 62.496,7.536 C62.856,7.296 63.264,7.104 63.624,6.912 C64.608,6.504 65.568,6 66.48,5.424 C66.624,5.328 66.72,5.256 66.696,5.208 C66.696,5.16 66.6,5.16 66.432,5.16 C65.832,5.184 64.944,5.496 64.344,5.64 C63.744,5.784 63.12,5.904 62.472,5.904 C61.872,5.784 61.104,5.544 60.888,4.824 C60.672,4.032 60.984,3.24 61.272,2.568 C61.368,2.4 61.536,2.136 61.752,2.04 C62.136,1.824 62.256,2.232 62.232,2.448 C62.184,2.736 62.016,2.928 61.896,3.168 C61.752,3.576 61.584,4.152 61.704,4.584 C61.8,4.944 62.136,5.112 62.496,5.136 C62.76,5.16 63.048,5.136 63.336,5.088 C63.648,5.016 63.936,4.944 64.224,4.896 C64.68,4.824 65.136,4.656 65.592,4.536 C66,4.44 66.384,4.368 66.816,4.392 C67.104,4.416 67.392,4.416 67.488,4.776 C67.536,4.992 67.464,5.28 67.344,5.472 C66.984,5.832 66.576,6.072 66.144,6.288 C65.712,6.504 65.28,6.648 64.848,6.888 C64.608,7.032 64.32,7.152 64.056,7.272 C63.408,7.536 62.808,7.848 62.472,8.496 C62.256,10.68 61.992,12.84 61.704,14.976 C63.36,14.208 66.6,12.768 67.872,12.192 C67.752,11.256 67.2,10.56 66.456,9.96 C65.736,9.408 64.896,8.976 64.128,8.664 C63.984,8.592 63.96,8.472 63.96,8.328 L63.96,8.184 C64.056,8.04 64.176,7.944 64.344,7.92 C65.232,8.208 66.168,8.712 66.96,9.36 C67.752,10.032 68.424,10.896 68.664,11.88 C69.192,11.688 70.008,11.352 70.44,11.208 C70.8,11.088 71.208,11.04 71.616,11.064 C71.736,11.232 71.736,11.352 71.64,11.424 Z M61.608,15.936 C61.536,16.296 61.416,16.656 61.464,17.016 C61.584,17.304 61.776,17.592 62.112,17.688 C63.624,18.096 65.256,18.264 66.984,18.24 C67.536,17.424 67.848,16.464 67.992,15.432 C68.112,14.616 68.112,13.776 68.016,12.936 C66,13.848 63.672,14.904 61.608,15.936 Z M66.288,19.008 L64.512,18.936 C63.816,18.912 63.144,18.744 62.544,18.624 C61.896,18.48 61.32,18.216 60.816,17.712 C60.48,17.376 60.6,16.848 60.672,16.44 C59.688,16.968 58.776,17.544 57.816,18.192 C57.744,18.24 57.72,18.312 57.768,18.384 C58.68,19.464 59.904,20.04 61.2,20.328 C62.16,20.544 63.144,20.52 64.032,20.28 C64.872,20.04 65.64,19.656 66.288,19.008 Z M65.112,12.696 C64.536,12.408 64.152,12.072 63.84,11.712 C63.696,11.52 63.552,11.328 63.432,11.136 L63.072,10.56 C63.048,10.368 63.216,10.248 63.408,10.224 C63.672,10.248 63.816,10.344 63.912,10.464 C64.008,10.56 64.032,10.68 64.08,10.8 C64.464,11.376 64.92,11.976 65.832,12.504 C65.616,12.648 65.304,12.72 65.112,12.696 Z M66.144,17.4 C65.592,17.112 65.232,16.776 64.944,16.416 C64.8,16.248 64.656,16.056 64.536,15.864 C64.44,15.672 64.32,15.48 64.2,15.288 C64.176,15.096 64.344,14.976 64.536,14.952 C64.776,14.976 64.92,15.072 65.016,15.192 C65.112,15.312 65.136,15.432 65.184,15.552 C65.544,16.152 65.952,16.728 66.84,17.232 C66.624,17.376 66.336,17.424 66.144,17.4 Z M86.664,10.608 C86.544,10.704 86.4,10.752 86.28,10.8 C84.768,11.088 81.504,11.688 79.992,11.952 C78.984,12.12 77.064,12.36 75.672,12.6 C75.312,12.576 74.832,12.504 74.712,12.072 C74.616,11.784 74.928,11.64 75.096,11.568 C75.744,11.256 76.464,11.544 77.136,11.424 C79.824,11.232 82.368,10.632 84.888,10.032 C85.104,9.984 85.32,9.888 85.56,9.84 C85.8,9.768 86.04,9.72 86.28,9.792 C86.424,9.864 86.64,10.008 86.712,10.2 C86.808,10.392 86.76,10.512 86.664,10.608 Z M99.792,18.12 C99.408,18.504 99,18.888 98.568,19.128 C98.424,19.152 98.256,19.128 98.184,18.96 C98.448,18.432 98.88,18.12 99.24,17.688 C99.888,16.944 100.92,15.36 101.136,13.944 C101.256,13.272 101.208,12.6 100.776,12.144 C100.512,11.856 100.104,11.736 99.696,11.64 C99.216,11.544 98.832,11.52 98.28,11.544 C97.872,12.12 97.512,12.696 97.176,13.32 C96.6,14.424 96.024,15.576 95.352,16.656 C94.896,17.424 94.368,18.12 93.72,18.768 L93.432,19.008 C93.312,19.08 93.216,19.152 93.096,19.2 C92.88,19.248 92.712,19.2 92.664,19.032 C93.768,17.904 94.512,16.68 95.184,15.408 C95.832,14.184 96.432,12.912 97.176,11.712 C96.024,11.856 94.992,12.336 93.936,12.768 C93.792,12.792 93.6,12.768 93.456,12.696 C93.336,12.6 93.24,12.48 93.288,12.264 C93.672,12.048 94.08,11.88 94.464,11.736 C95.136,11.472 95.856,11.232 96.576,11.064 C97.56,10.824 98.568,10.728 99.552,10.848 C100.512,10.968 101.112,11.208 101.64,12.096 C102.12,12.864 102.024,14.088 101.76,14.904 C101.4,16.056 100.584,17.16 99.792,18.12 Z M95.352,5.592 C94.92,6.576 94.344,7.656 93.696,8.712 C92.832,10.104 91.896,11.496 91.008,12.6 C90.912,12.72 90.744,12.72 90.648,12.672 C90.552,12.624 90.432,12.504 90.552,12.384 C91.32,11.064 92.112,9.744 92.88,8.424 C93.624,7.128 94.32,5.808 94.92,4.44 C95.112,4.032 95.592,4.248 95.664,4.536 C95.616,4.92 95.496,5.256 95.352,5.592 Z M102.84,9.384 C102.624,9.264 102.384,9.072 102.168,8.952 C101.496,8.472 100.872,7.944 100.272,7.392 C99.96,7.128 99.576,6.696 99.144,6.288 C98.688,5.856 98.184,5.472 97.632,5.376 C97.344,5.328 97.032,5.304 96.72,5.28 C96.552,5.136 96.528,4.968 96.648,4.8 C97.296,4.488 97.92,4.56 98.448,4.824 C98.904,5.04 99.288,5.352 99.624,5.688 C100.56,6.624 101.496,7.464 102.528,8.16 L103.584,8.88 C103.704,9.024 103.752,9.192 103.68,9.384 C103.368,9.552 103.104,9.504 102.84,9.384 Z M124.032,20.184 C123.456,20.016 122.544,19.056 122.208,18.672 C121.68,18.072 121.176,17.424 120.768,16.752 C120.216,17.4 119.64,18.024 118.992,18.48 C118.248,19.008 117.456,19.32 116.496,19.296 C116.4,19.296 116.352,19.2 116.352,19.128 C116.328,19.056 116.376,18.984 116.448,18.96 C117.24,18.744 118.008,18.312 118.68,17.76 C119.28,17.256 119.832,16.656 120.288,16.056 C119.736,15.096 119.184,14.136 118.68,13.152 C117.936,13.8 117.216,14.496 116.256,15.288 C116.112,15.36 115.92,15.336 115.752,15.264 C115.56,15.024 115.656,14.784 115.8,14.664 C116.616,13.92 117.432,13.152 118.344,12.456 C117.936,11.688 117.576,10.92 117.24,10.128 C116.88,10.464 116.568,10.824 116.304,11.208 C115.968,11.664 115.68,12.168 115.416,12.696 C115.296,12.768 115.008,12.72 114.96,12.528 C115.008,11.832 115.368,11.208 115.776,10.656 C116.112,10.2 116.544,9.744 116.928,9.36 L115.992,7.032 C115.92,6.84 116.304,6.36 116.544,6.696 C117,7.296 117.288,8.088 117.528,8.832 C118.032,8.496 118.488,8.184 119.016,7.872 C119.568,7.56 120.168,7.272 120.864,7.248 C121.128,7.224 121.344,7.392 121.488,7.584 C121.512,7.728 121.488,7.872 121.416,7.968 C121.248,8.208 120.84,8.544 120.552,8.688 C120.456,8.76 120.192,8.616 120.36,8.448 C120.456,8.352 120.552,8.208 120.576,8.088 C120.6,8.064 120.552,7.968 120.528,7.992 C119.544,8.28 118.728,8.88 117.84,9.576 C118.224,10.368 118.584,11.184 118.968,12 C119.688,11.496 120.456,10.968 121.272,10.56 C121.536,10.464 121.824,10.368 122.088,10.536 C122.256,10.632 122.184,10.824 122.064,10.92 C120.96,11.592 120.096,12.072 119.328,12.672 C119.76,13.56 120.24,14.424 120.768,15.264 C121.008,14.88 121.296,14.448 121.632,14.064 C121.968,13.704 122.328,13.392 122.76,13.176 C122.952,13.176 123.168,13.296 123.216,13.488 C123.024,13.848 122.76,14.04 122.472,14.304 L122.232,14.568 C121.824,15 121.536,15.528 121.224,16.032 C122.016,17.352 123.024,18.6 124.296,19.68 C124.392,19.848 124.32,20.28 124.032,20.184 Z M113.736,17.448 C113.376,18.336 112.848,19.176 112.152,19.8 C111.84,19.968 111.48,19.968 111.192,19.776 C110.976,19.608 110.856,19.344 110.808,19.08 C110.64,18.072 110.568,16.608 110.544,15.528 C109.896,15.936 109.224,16.248 108.504,16.536 C108.312,16.56 108.168,16.488 108.024,16.392 C107.928,16.224 107.832,16.08 107.928,15.888 C108.12,15.744 108.312,15.648 108.528,15.552 C108.72,15.48 108.912,15.432 109.104,15.336 L109.896,14.928 C110.16,14.784 110.424,14.64 110.64,14.496 C110.688,13.608 110.784,12.672 111.528,12.144 C111.768,11.976 111.912,12.144 111.912,12.36 C111.912,12.6 111.768,12.816 111.696,13.032 C111.672,13.104 111.648,13.176 111.648,13.248 C111.6,13.488 111.552,13.728 111.528,13.968 C112.248,13.536 113.52,12.672 114.048,12.216 C114.216,12.072 114.384,12.216 114.384,12.432 C114.264,12.96 113.808,13.344 113.4,13.608 L111.408,14.952 C111.384,16.224 111.36,17.712 111.624,18.888 C111.672,18.936 111.768,18.96 111.816,18.912 C112.368,18.456 112.8,17.784 113.136,17.088 C113.52,16.32 113.784,15.504 114.072,14.808 C114.12,14.736 114.192,14.688 114.264,14.664 C114.384,14.664 114.432,14.76 114.408,14.88 C114.288,15.72 114.072,16.608 113.736,17.448 Z M111.36,4.776 C111.288,4.824 111.192,4.872 111.12,4.944 C110.472,5.856 109.992,6.912 109.584,7.992 C109.152,9.072 108.792,10.176 108.288,11.208 C108.048,11.736 107.352,13.008 106.824,13.272 C106.512,13.464 106.368,13.32 106.536,13.056 C107.28,11.904 107.736,10.656 108.192,9.408 C108.816,7.68 109.44,5.904 110.496,4.368 C110.664,4.104 111.072,4.008 111.36,4.08 C111.528,4.152 111.768,4.368 111.624,4.584 C111.576,4.656 111.48,4.704 111.36,4.776 Z M123.456,5.976 C122.952,5.304 122.328,4.824 121.656,4.488 C121.032,4.2 120.36,4.008 119.664,3.864 C119.496,3.888 119.352,3.984 119.208,4.128 C119.04,4.272 118.872,4.416 118.656,4.512 C118.368,4.608 118.104,4.488 118.176,4.032 C118.272,3.528 118.872,3.12 119.352,3.072 C120.264,3.144 121.104,3.384 121.872,3.792 C122.664,4.2 123.528,4.848 123.888,5.712 C123.96,5.904 123.624,6.096 123.456,5.976 Z M113.112,11.568 C112.968,11.496 112.968,11.4 112.896,11.28 C112.848,11.184 112.8,11.136 112.728,11.112 C111.648,11.064 110.736,11.304 109.824,11.712 C109.632,11.808 109.392,11.832 109.176,11.712 C108.984,11.616 108.864,11.376 109.056,11.184 C109.272,11.016 109.512,10.896 109.752,10.824 C109.992,10.752 110.232,10.704 110.448,10.608 C111.336,10.368 112.272,10.2 113.184,10.416 C113.4,10.464 113.496,10.656 113.52,10.848 C113.52,11.112 113.376,11.424 113.112,11.568 Z M113.112,8.592 C113.184,8.472 113.232,8.424 113.28,8.376 L113.448,8.232 C113.544,8.16 113.592,8.064 113.592,7.992 C112.584,7.608 111.432,7.848 110.448,8.184 C110.256,8.064 110.256,7.824 110.376,7.68 C110.616,7.392 110.928,7.248 111.288,7.152 C111.624,7.08 111.984,7.056 112.344,6.984 C113.064,6.984 113.808,7.104 114.408,7.536 C114.528,7.68 114.552,7.848 114.528,7.992 C114.288,8.376 113.544,8.784 113.112,8.592 Z M145.608,11.4 L145.296,11.832 C143.712,13.392 142.128,14.88 140.136,15.528 L139.488,15.528 C139.464,17.016 139.44,19.488 139.416,20.784 C139.416,21.384 139.176,22.128 138.456,22.416 C138.432,22.176 138.456,22.008 138.504,21.864 L138.6,21.432 C138.72,19.08 138.672,14.376 138.624,12.024 C138.672,11.568 138.672,11.088 138.696,10.632 C138.744,10.152 138.816,9.696 139.056,9.312 C139.272,8.976 139.608,9.24 139.704,9.408 C139.488,10.296 139.44,11.232 139.416,12.168 C139.416,13.08 139.464,14.016 139.464,14.928 C139.92,14.928 140.352,14.736 140.76,14.496 C141.192,14.256 141.6,13.944 142.008,13.704 C142.944,12.96 143.928,12.144 144.672,11.232 C144.672,11.16 144.624,11.088 144.528,11.04 C144.456,10.968 144.336,10.92 144.264,10.848 C143.712,10.632 143.16,10.44 142.656,10.128 C142.128,9.816 141.672,9.408 141.432,8.784 C141.36,8.352 141.336,7.896 141.36,7.44 L141.432,6.096 C141.36,5.856 141.336,5.592 141.072,5.472 C140.496,5.28 139.824,5.232 139.128,5.304 C138.648,5.352 138.144,5.472 137.736,5.64 C137.16,6.192 136.752,6.816 136.416,7.488 C135.576,9.216 134.784,10.968 134.232,12.768 C134.64,12.816 135,13.128 135.24,13.488 C135.48,13.944 135.504,14.448 135.432,14.928 C135.312,15.648 134.952,16.344 134.616,16.944 C134.352,17.448 133.848,17.952 133.272,18.048 C132.96,18.072 132.72,17.928 132.48,17.784 C132.216,17.52 132.192,17.16 132.216,16.848 C132.504,15.816 132.84,14.808 133.176,13.8 C132.672,13.992 132.192,14.592 131.856,15 C131.568,15.36 131.496,15.768 131.496,16.224 C131.52,16.848 131.712,17.496 131.736,18.12 C131.496,18.432 131.136,18.288 130.992,18 C130.8,17.232 130.536,16.44 130.176,15.744 C129.792,15.048 129.288,14.4 128.568,13.872 C127.992,14.232 127.44,14.664 126.768,14.856 C126.6,14.904 126.24,14.688 126.48,14.448 C128.856,12.888 130.416,11.448 133.08,9.072 C131.376,9.768 129.768,10.584 128.184,11.544 C127.92,11.688 127.704,11.424 127.632,11.256 C127.536,11.136 127.536,10.944 127.632,10.848 C128.328,10.368 129.144,10.104 129.816,9.624 C130.248,9.336 130.608,8.976 130.848,8.448 C131.064,7.992 131.232,7.536 131.328,7.056 L131.616,5.712 C130.296,5.976 129.048,6.48 127.704,6.744 C127.536,6.696 127.344,6.576 127.272,6.384 C127.296,6.144 127.536,6.048 127.728,5.952 C129.048,5.568 130.416,5.256 131.76,4.896 L131.928,3.888 C132,3.504 132.12,3.12 132.24,2.88 C132.312,2.76 132.432,2.688 132.552,2.64 C132.936,2.616 133.224,2.76 133.512,2.976 C133.896,3.264 134.304,3.528 134.664,3.816 C134.904,4.008 135.096,4.248 135.024,4.608 C134.952,4.848 134.712,4.992 134.544,5.064 L132.48,5.448 C132.216,6.744 131.952,8.016 131.232,9.12 C132.144,8.736 133.08,8.304 134.064,7.992 C134.256,7.992 134.472,7.992 134.616,8.112 C134.832,8.232 134.808,8.472 134.712,8.592 C132.936,10.32 131.064,11.904 129.168,13.416 C129.888,13.944 130.464,14.688 130.896,15.48 C131.184,14.256 132.336,13.152 133.512,12.888 C134.472,10.32 135.528,7.824 136.944,5.472 C137.352,4.944 137.952,4.656 138.576,4.536 C139.344,4.392 140.136,4.464 140.856,4.56 C141.36,4.728 141.96,4.896 142.176,5.448 C142.296,5.976 142.248,6.552 142.2,7.08 C142.152,7.632 142.104,8.184 142.224,8.688 C142.44,9.096 142.776,9.336 143.136,9.528 C143.52,9.72 143.952,9.84 144.312,10.032 L145.056,10.296 C145.32,10.392 145.56,10.536 145.704,10.824 C145.728,11.04 145.68,11.232 145.608,11.4 Z M134.472,13.752 C134.328,13.608 134.16,13.56 133.944,13.56 C133.584,14.712 133.104,15.816 133.008,17.04 C133.056,17.184 133.2,17.28 133.368,17.232 C133.536,17.088 133.704,16.896 133.848,16.704 C134.208,16.224 134.616,15.096 134.712,14.472 C134.76,14.184 134.712,13.944 134.472,13.752 Z M133.656,3.84 L132.984,3.36 C132.912,3.312 132.864,3.384 132.864,3.384 C132.816,3.72 132.72,4.32 132.648,4.656 L133.44,4.536 C133.728,4.488 133.968,4.44 134.208,4.344 C134.064,4.152 133.872,3.984 133.656,3.84 Z M153.768,8.88 L153.288,9.384 C153.312,12.168 153.216,14.472 153.096,17.184 C153.072,17.88 152.976,18.768 152.808,19.536 C152.64,20.208 152.328,20.784 151.944,21.12 C151.776,21.192 151.584,21.096 151.608,20.952 C151.752,20.4 151.896,20.088 151.968,19.584 L152.208,17.88 L152.4,12.72 C152.424,11.952 152.472,11.064 152.4,10.368 L149.208,13.68 C149.04,13.872 148.776,14.064 148.464,13.992 C148.2,13.896 148.152,13.632 148.248,13.44 C149.328,12.408 150.288,11.232 150.96,9.96 C151.104,9.6 151.2,9.096 150.984,8.808 C150.84,8.616 150.624,8.52 150.36,8.448 C150.12,8.4 149.832,8.376 149.592,8.352 C149.136,8.28 148.824,8.28 148.512,8.304 C148.224,8.328 147.912,8.376 147.48,8.4 C147.264,8.304 147.12,8.112 147.144,7.896 C147.192,7.608 147.576,7.512 147.768,7.512 C148.416,7.44 148.464,7.416 149.112,7.464 C149.856,7.512 150.624,7.68 151.272,8.016 C151.752,8.4 151.872,9 151.728,9.576 C151.656,9.84 151.56,10.08 151.464,10.344 C151.584,10.248 151.704,10.128 151.848,9.984 C152.04,9.816 152.208,9.6 152.4,9.432 C152.376,7.896 152.328,4.848 152.328,3.264 C152.376,3.072 152.616,2.88 152.808,2.904 C153.024,2.952 153.192,3.144 153.192,3.336 C153.288,5.04 153.264,6.768 153.288,8.52 C153.36,8.448 153.456,8.376 153.528,8.28 C153.624,8.16 153.768,8.016 153.912,7.968 C154.128,7.848 154.296,8.088 154.176,8.304 C154.08,8.52 153.936,8.712 153.768,8.88 Z M164.328,9.672 L164.28,9.72 C164.232,9.744 164.16,9.792 164.136,9.84 C163.536,10.272 162.96,10.656 162.456,10.968 L162.696,15.48 C162.768,16.896 162.624,18.36 161.952,19.704 C161.664,20.28 161.28,20.784 160.8,21.144 C160.344,21.48 159.84,21.672 159.264,21.672 C159,21.648 158.712,21.504 158.784,21.192 C160.104,20.904 160.8,20.232 161.256,19.272 C161.664,18.432 161.856,17.472 161.88,16.536 C161.952,14.856 161.736,13.152 161.64,11.496 C159.864,12.6 158.232,13.344 156.048,14.136 C155.616,14.208 155.016,14.256 154.632,13.992 C154.512,13.8 154.656,13.608 154.872,13.464 C155.136,13.296 155.424,13.248 155.712,13.224 C155.952,13.2 156.24,13.176 156.48,13.08 C158.184,12.504 159.84,11.712 161.64,10.632 C161.64,10.368 161.592,10.104 161.592,9.816 C161.568,9.48 161.568,9.144 161.616,8.76 C161.76,8.592 161.88,8.52 162,8.544 C162.168,8.568 162.312,8.808 162.312,9.144 C162.36,9.456 162.384,9.816 162.384,10.152 C162.888,9.864 163.392,9.528 163.92,9.144 C164.136,9.096 164.304,9.192 164.4,9.36 C164.472,9.48 164.4,9.6 164.328,9.672 Z M160.344,8.712 C159.768,9.528 159.024,10.176 158.088,10.704 C157.512,11.04 156.936,11.328 156.36,11.448 C155.856,11.568 155.352,11.544 154.872,11.4 C154.728,11.328 154.704,11.256 154.704,11.16 C154.704,11.016 154.8,10.896 154.968,10.896 C155.856,10.92 156.72,10.68 157.584,10.176 C158.376,9.72 159.264,8.952 159.816,8.112 C160.224,7.488 160.512,6.768 160.704,5.952 C160.776,5.664 160.8,5.448 160.728,5.28 C160.68,5.136 160.536,5.04 160.2,5.016 C159.6,4.992 158.664,5.016 157.896,5.064 C157.344,5.112 156.888,4.992 156.768,4.56 C156.648,4.104 156.648,3.576 156.744,3.048 C156.864,2.472 157.128,1.92 157.488,1.584 C157.8,1.464 158.064,1.68 157.92,1.968 C157.608,2.568 157.392,3.528 157.536,4.104 C157.56,4.248 157.704,4.32 157.896,4.272 C158.496,4.224 159.36,4.224 159.864,4.224 C160.488,4.224 160.992,4.296 161.28,4.584 C161.616,4.92 161.688,5.472 161.496,6.216 C161.232,7.176 160.848,7.992 160.344,8.712 Z M160.008,17.904 L159.864,17.688 L159.72,17.496 C159.264,16.896 158.688,16.104 157.992,15.672 C157.776,15.624 157.536,15.576 157.344,15.768 C157.176,15.552 157.2,15.312 157.344,15.168 C157.464,14.976 157.728,14.856 157.944,14.808 C158.328,14.832 158.616,15.048 158.88,15.264 C159.384,15.672 159.816,16.272 160.176,16.848 C160.32,17.088 160.392,17.352 160.392,17.664 C160.368,17.904 160.176,18.072 160.008,17.904 Z M158.472,8.496 C157.896,7.8 157.08,7.128 156.384,6.936 C156.24,6.696 156.264,6.288 156.72,6.24 C157.344,6.192 157.92,6.672 158.4,7.248 C158.688,7.584 158.88,7.944 158.952,8.232 C158.928,8.448 158.616,8.664 158.472,8.496 Z M177.864,10.8 C177.768,10.824 177.552,10.728 177.672,10.56 C177.792,10.416 177.96,10.296 178.104,10.152 C178.248,10.032 178.368,9.912 178.416,9.768 C177.744,9.336 176.928,9.288 176.064,9.24 C176.016,9.792 175.992,10.368 175.92,10.944 C175.848,11.544 175.704,12.12 175.368,12.6 C175.272,12.768 175.008,12.984 174.744,12.912 C175.032,12 175.176,11.064 175.248,10.08 C175.296,9.24 175.296,8.376 175.272,7.536 C174.504,8.376 173.616,9.36 172.8,10.152 C172.752,10.728 172.728,11.28 172.632,11.808 C172.512,12.336 172.32,12.84 171.984,13.272 C171.936,13.344 171.816,13.344 171.768,13.344 C171.696,13.32 171.576,13.272 171.624,13.152 C171.816,12.432 171.96,11.664 171.936,10.896 L170.448,11.976 C170.064,12.144 169.632,12.024 169.344,11.76 C169.056,11.376 168.936,10.92 168.888,10.44 C168.84,9.984 168.864,9.48 168.864,9 C168.864,8.808 168.936,8.52 169.2,8.448 C169.464,8.4 169.632,8.616 169.68,8.808 C169.608,9.576 169.656,10.44 169.896,11.184 C169.968,11.328 170.16,11.376 170.304,11.304 C170.88,10.92 171.432,10.488 171.96,10.056 C171.936,8.808 172.08,7.584 172.584,6.528 C171.336,6.816 170.112,7.32 168.936,7.848 C168.696,7.848 168.384,7.944 168.192,7.752 C168.12,7.68 167.976,7.488 168.12,7.32 C169.392,6.744 170.688,6.264 172.032,5.856 C173.256,5.496 174.504,5.208 175.776,5.016 C175.968,5.016 176.16,5.04 176.304,5.184 C176.448,5.448 176.208,5.664 176.04,5.736 C175.152,5.832 174.312,6.048 173.472,6.24 C172.944,7.152 172.8,8.232 172.776,9.36 C173.52,8.664 174.984,6.96 175.272,6.624 C175.44,6.504 175.608,6.456 175.752,6.48 C175.92,6.504 176.04,6.648 176.04,6.888 C176.064,7.464 176.088,8.04 176.088,8.616 C176.136,8.616 176.208,8.592 176.28,8.568 C176.376,8.52 176.472,8.496 176.592,8.496 C177.528,8.568 178.416,8.712 179.184,9.216 C179.328,9.384 179.448,9.6 179.424,9.84 C178.944,10.32 178.416,10.608 177.864,10.8 Z M179.688,21.336 C178.944,21.48 178.128,21.432 177.408,21.264 C176.688,21.096 176.016,20.808 175.392,20.424 C174.744,20.04 174.144,19.584 173.544,19.08 C172.776,19.776 172.056,20.496 171.144,21 C170.616,21.312 170.088,21.504 169.536,21.672 C169.416,21.696 169.176,21.48 169.296,21.36 C169.944,21.024 170.544,20.64 171.12,20.184 C171.768,19.704 172.368,19.152 172.944,18.552 C172.656,18.264 172.416,18 172.152,17.712 C171.624,17.112 171.144,16.584 170.352,16.368 C170.16,16.296 170.256,16.008 170.424,15.984 C171.048,15.912 171.456,16.056 171.936,16.416 C172.224,16.632 172.464,16.92 172.752,17.208 C173.016,17.472 173.232,17.664 173.52,17.928 C174.432,16.968 175.104,15.84 175.536,14.64 C175.56,14.52 175.608,14.328 175.44,14.28 C174.912,14.4 174.408,14.64 173.928,14.928 C173.424,15.216 172.944,15.552 172.488,15.864 C172.248,16.032 171.936,16.008 171.768,15.888 C171.672,15.792 171.6,15.624 171.72,15.456 C172.32,15.12 172.872,14.712 173.424,14.352 C174,13.992 174.576,13.68 175.224,13.536 C175.704,13.44 176.064,13.68 176.304,14.064 C176.4,14.448 176.328,14.784 176.208,15.12 C175.824,16.248 174.912,17.568 174.144,18.432 C174.888,19.176 175.824,19.776 176.76,20.208 C177.456,20.544 178.296,20.664 179.16,20.664 C179.808,20.664 180.408,20.544 180.96,20.328 C181.152,20.304 181.248,20.52 181.128,20.64 C180.72,21.024 180.216,21.216 179.688,21.336 Z M171.696,2.808 C171.552,2.736 171.432,2.616 171.384,2.472 C171.264,2.184 171.552,2.064 171.768,1.992 C172.368,2.088 173.016,2.184 173.592,2.352 C174.192,2.52 174.72,2.784 175.176,3.24 C175.32,3.456 175.416,3.768 175.176,3.888 C174.6,3.552 174,3.312 173.376,3.144 C172.824,3 172.272,2.88 171.696,2.808 Z M197.592,19.464 C197.424,19.704 196.872,20.04 196.536,19.968 C196.248,19.8 196.056,19.608 195.888,19.32 C195.696,18.96 195.216,18.192 194.88,17.688 L194.184,18.408 C193.92,18.672 193.632,18.912 193.368,19.128 C192.768,19.584 192.12,19.92 191.352,19.872 C191.112,19.848 190.968,19.728 190.896,19.608 C190.8,19.44 190.824,19.296 190.968,19.272 C191.496,19.296 191.952,19.128 192.384,18.864 C193.2,18.384 193.824,17.64 194.496,16.968 C193.968,16.104 193.008,14.4 192.432,13.44 C191.664,12.144 190.344,10.08 189.648,8.976 C189.384,9.024 189.096,9.216 188.856,9.384 C187.824,10.128 186.984,11.016 186.312,12.024 C185.568,13.128 185.088,14.376 184.872,15.696 C185.496,15.024 186.288,14.4 187.2,14.328 C187.8,14.28 188.16,14.856 188.328,15.288 C188.448,15.84 188.4,16.344 188.28,16.848 C188.112,17.496 187.776,18.12 187.416,18.696 C187.224,18.936 186.96,19.104 186.648,19.176 C186.336,19.176 186,19.128 185.76,18.864 C185.28,18.312 185.4,17.544 185.568,16.92 C185.76,16.776 185.88,17.016 185.928,17.184 C185.952,17.424 185.952,17.664 186.024,17.904 C186.096,18.12 186.216,18.312 186.408,18.432 C186.576,18.456 186.696,18.312 186.816,18.216 C186.84,18.168 186.888,18.12 186.936,18.072 C187.128,17.688 187.32,17.28 187.44,16.848 C187.56,16.368 187.608,15.84 187.464,15.336 C187.368,15.144 187.152,15.072 186.96,15.096 C186.288,15.288 185.712,15.696 185.28,16.272 C184.8,16.896 184.512,17.688 184.464,18.456 C184.416,18.552 184.416,18.672 184.368,18.768 C184.344,18.864 184.272,18.984 184.128,19.056 C183.864,19.152 183.72,18.96 183.624,18.792 C183.696,17.064 183.984,15.384 184.584,13.848 C185.112,12.528 185.88,11.28 186.96,10.176 C186.528,10.368 186.168,10.608 185.76,10.824 C185.544,10.944 185.304,11.04 185.064,11.112 C184.8,11.16 184.56,11.16 184.32,10.992 C184.176,10.92 184.056,10.824 184.08,10.584 C184.344,10.416 184.608,10.368 184.896,10.296 C184.968,10.272 185.064,10.248 185.136,10.2 C186.504,9.624 187.824,8.904 189.168,8.256 C189.12,8.136 189.048,7.992 188.928,7.872 L188.544,7.44 C188.328,7.272 188.064,7.104 187.8,7.272 C187.68,7.272 187.608,7.224 187.56,7.152 C187.512,7.104 187.512,7.032 187.464,6.984 C187.464,6.72 187.704,6.576 187.848,6.528 C188.28,6.432 188.664,6.576 189,6.816 C189.408,7.104 189.72,7.56 189.936,7.968 L190.992,7.512 C191.376,7.344 191.76,7.224 192.192,7.176 C192.336,7.2 192.552,7.248 192.6,7.488 C192.624,7.656 192.528,7.728 192.408,7.8 C192.36,7.824 192.312,7.848 192.264,7.848 L192.12,7.92 C191.52,8.112 190.92,8.352 190.368,8.616 C191.112,9.84 192.576,12.168 193.392,13.512 C193.704,13.992 194.592,15.552 195,16.272 C195.696,15.528 196.224,14.616 196.776,13.728 C196.92,13.536 197.16,13.392 197.4,13.368 C197.616,13.344 198.144,13.488 198.192,13.776 C198.336,14.736 198.36,15.696 198.264,16.608 C198.144,17.592 197.928,18.528 197.592,19.464 Z M197.76,7.344 C196.992,6.672 196.248,5.976 195.432,5.376 C194.64,4.776 193.824,4.272 192.912,3.96 C192.744,3.888 192.6,3.936 192.456,4.032 C192.288,4.128 192.168,4.272 192.024,4.368 C191.88,4.464 191.688,4.392 191.64,4.2 C191.808,3.744 192.192,3.168 192.792,3.144 C193.224,3.144 193.608,3.288 193.944,3.456 C194.568,3.744 195.072,4.2 195.672,4.56 C196.488,5.232 197.328,6 198.024,6.84 L198.144,7.056 C198.168,7.128 198.192,7.224 198.12,7.344 C198.024,7.44 197.832,7.416 197.76,7.344 Z M197.352,14.352 C196.776,15.24 196.152,16.2 195.48,17.064 C195.792,17.568 196.368,18.504 196.68,18.96 C196.752,19.008 196.872,18.984 196.92,18.888 C197.112,18.336 197.304,17.472 197.4,16.56 C197.472,15.816 197.496,15.024 197.4,14.328 C197.4,14.304 197.376,14.328 197.352,14.352 Z M218.616,7.704 C218.208,7.944 217.824,8.04 217.488,8.112 C217.152,8.184 216.816,8.208 216.456,8.304 C216.24,10.704 216.36,13.176 216.336,15.624 C216.648,15.336 216.936,14.976 217.224,14.616 C217.32,14.544 217.44,14.52 217.584,14.52 C217.656,14.736 217.608,14.88 217.536,15.024 C217.488,15.144 217.392,15.264 217.32,15.384 C217.176,15.648 217.008,15.888 216.816,16.128 C216.624,16.368 216.432,16.584 216.264,16.824 C216.24,17.256 216.216,17.664 216.024,18.048 L215.856,18.168 C215.808,18.192 215.712,18.216 215.64,18.144 C215.496,17.976 215.304,17.832 215.16,17.76 C214.8,18.024 214.416,18.36 213.936,18.432 C213.648,18.456 213.456,18.408 213.264,18.216 L213.264,18.264 C213.216,18.456 213.192,18.6 213.024,18.72 C212.856,18.72 212.76,18.648 212.688,18.552 L212.52,18.312 C212.328,18.024 212.28,17.712 212.232,17.4 C212.088,14.592 212.232,11.664 212.304,8.928 C212.112,8.928 211.872,8.904 211.656,8.952 C211.416,8.976 211.248,9.048 211.152,9.312 C210.12,12.312 208.8,15.24 207.12,18 C207.072,18.048 207.024,18.144 206.952,18.216 C206.784,18.48 206.544,18.792 206.16,18.72 C205.92,18.672 205.944,18.216 206.112,18 C206.616,17.04 207.288,16.2 207.696,15.216 C207.672,15.12 207.624,15.048 207.552,15.024 C207.192,15.12 206.952,15.408 206.712,15.648 L206.448,15.936 C205.872,16.56 205.104,17.4 204.648,17.928 C204.312,18.168 203.832,18.192 203.448,17.976 C203.112,17.64 202.848,17.28 202.632,16.92 C202.392,16.536 202.224,16.152 202.032,15.744 C201.648,15 201.216,14.256 200.448,13.608 C200.448,13.536 200.424,13.44 200.424,13.344 C200.424,13.272 200.448,13.152 200.544,13.08 C201.144,12.864 201.792,13.584 202.056,13.968 C202.368,14.592 202.608,15.264 202.896,15.888 C203.136,16.416 203.424,16.944 203.904,17.352 C204.024,17.376 204.144,17.328 204.24,17.256 C204.36,17.16 204.456,17.064 204.576,16.992 C205.44,16.08 206.136,15.024 207.192,14.304 C207.744,14.064 208.152,14.136 208.368,14.352 C209.328,12.432 210.048,10.416 210.864,8.4 C211.056,8.16 211.32,8.112 211.608,8.112 C211.728,8.088 211.872,8.112 212.016,8.088 C212.136,8.088 212.256,8.088 212.376,8.064 C212.472,7.344 212.616,5.928 212.736,5.16 C212.832,4.968 212.88,4.752 213,4.56 C213.12,4.368 213.264,4.224 213.528,4.128 C214.008,4.296 214.584,4.584 214.776,5.232 C214.608,5.28 214.488,5.256 214.368,5.232 C214.248,5.232 214.104,5.184 213.984,5.184 C213.72,5.16 213.576,5.208 213.528,5.448 C213.432,6.12 213.312,7.32 213.24,7.944 C213.864,7.896 214.992,7.728 215.64,7.656 C215.688,7.368 215.688,7.032 215.712,6.696 C215.712,6.36 215.76,6 215.904,5.664 C216.312,5.448 216.624,5.736 216.912,5.976 C216.888,6.144 216.84,6.288 216.816,6.408 C216.672,6.768 216.504,7.08 216.504,7.488 C217.104,7.44 217.68,7.2 218.256,6.984 C218.448,6.96 218.616,7.128 218.76,7.248 C218.76,7.416 218.736,7.584 218.616,7.704 Z M206.04,10.632 C205.968,11.184 205.968,11.712 205.92,12.24 C205.848,12.768 205.728,13.296 205.416,13.848 C205.176,13.896 205.128,13.776 205.128,13.632 C205.128,13.584 205.152,13.536 205.152,13.464 L205.152,13.344 C205.248,12.576 205.248,11.784 205.248,10.968 C204.024,11.424 202.752,11.904 201.456,12.312 C201.168,12.312 200.832,12.216 200.688,11.904 L200.688,11.832 L200.64,11.736 C200.64,11.664 200.64,11.592 200.712,11.52 C200.88,11.4 201.072,11.352 201.24,11.328 C201.432,11.328 201.6,11.328 201.768,11.28 C202.944,10.896 204.096,10.608 205.2,10.128 C205.272,9.72 205.2,9.288 205.176,8.856 C205.152,8.424 205.152,7.992 205.344,7.512 C205.632,7.248 205.968,7.224 206.304,7.272 C206.616,7.32 206.928,7.44 207.192,7.512 C207.408,7.32 207.696,7.08 207.768,6.816 C207.768,6.672 207.696,6.6 207.576,6.576 C207.456,6.528 207.288,6.528 207.192,6.456 C206.136,6.24 205.008,6.432 203.952,6.576 C203.712,6.6 203.448,6.48 203.256,6.336 C203.04,6.168 202.968,5.928 203.112,5.808 C204.72,5.376 206.736,5.304 208.272,5.952 C208.512,6.096 208.68,6.336 208.656,6.624 C208.608,7.152 208.08,7.416 207.696,7.656 C207.984,7.776 208.272,7.872 208.584,7.944 C208.944,8.04 209.304,8.136 209.64,8.28 C210,8.448 209.904,8.904 209.664,9.072 C208.512,9.648 207.24,10.152 206.04,10.632 Z M213.192,8.808 L213.024,12.312 C213.648,11.832 214.704,11.544 215.472,11.712 C215.496,10.896 215.544,9.336 215.592,8.472 C214.8,8.64 213.984,8.712 213.192,8.808 Z M215.088,12.552 C214.992,12.528 214.872,12.552 214.776,12.552 C214.104,12.696 213.456,12.936 213.024,13.488 C213.072,14.568 212.976,15.936 213.096,17.016 L213.168,17.328 L213.168,17.4 C213.552,16.728 214.176,15.552 214.464,15 C214.608,14.592 214.824,14.232 214.992,13.848 C215.16,13.488 215.28,13.128 215.256,12.72 C215.232,12.624 215.16,12.576 215.088,12.552 Z M208.776,8.616 C208.488,8.472 208.2,8.376 207.912,8.304 C207.624,8.208 207.336,8.16 207.024,8.088 C206.856,8.064 206.664,8.04 206.496,8.04 C206.328,8.04 206.184,8.064 206.112,8.16 C206.112,8.616 206.112,9.36 206.088,9.792 C207.048,9.456 207.96,9.048 208.776,8.712 C208.824,8.712 208.824,8.64 208.776,8.616 Z M215.472,14.4 L214.008,17.28 C213.96,17.328 213.96,17.4 214.008,17.424 C214.296,17.4 214.536,17.256 214.776,17.088 C215.016,16.92 215.256,16.704 215.472,16.512 C215.448,15.888 215.448,15.024 215.472,14.4 Z M235.56,21.888 C235.176,22.056 234.768,22.176 234.336,22.272 C233.616,22.344 232.944,22.128 232.128,21.768 C230.688,21.12 229.44,20.016 228.192,19.08 C227.808,18.792 227.496,18.456 227.136,18.096 C226.8,17.76 226.488,17.496 226.104,17.328 C225.816,18.048 225.432,18.744 225,19.392 C224.616,20.016 223.416,21.576 222.672,21.864 C222.528,21.912 222.36,21.912 222.24,21.888 C222.12,21.84 222.024,21.744 222.096,21.576 C223.056,20.832 223.824,19.944 224.4,19.008 C224.904,18.144 225.312,17.256 225.624,16.344 C224.304,16.848 223.032,17.52 221.736,18.024 C221.424,18.072 221.112,17.76 221.352,17.52 C222.864,16.752 224.4,16.056 225.936,15.384 C226.104,14.928 226.248,14.472 226.416,14.04 C226.584,13.56 226.776,13.128 227.04,12.72 C227.304,12.312 227.64,12.072 228.024,11.928 C228.576,11.736 229.248,11.76 229.872,11.808 C230.448,11.928 231,12.096 231.504,12.408 C231.768,12.504 231.84,12.816 231.816,13.056 C230.496,13.944 228.024,15.168 226.584,15.864 C226.536,16.128 226.416,16.344 226.368,16.584 C226.752,16.752 227.112,17.04 227.424,17.352 L227.904,17.832 L228.408,18.288 C229.104,18.912 229.896,19.464 230.664,19.992 C231.432,20.52 232.224,21 233.064,21.336 C233.664,21.6 234.12,21.624 234.528,21.528 C235.152,21.408 235.728,21.168 236.208,20.808 C236.28,20.76 236.376,20.784 236.424,20.808 C236.472,20.832 236.544,20.904 236.472,20.976 C236.304,21.408 235.968,21.696 235.56,21.888 Z M230.256,10.296 C229.992,10.416 229.728,10.512 229.488,10.632 C228.672,11.088 227.952,11.664 227.112,12.12 C226.848,12.192 226.536,12.192 226.296,12.024 C225.96,11.784 225.864,11.424 225.84,11.064 C225.84,10.848 225.864,10.608 225.888,10.392 C225.912,10.224 225.96,10.056 225.96,9.912 C225.264,10.248 224.064,10.872 223.128,11.376 C222.96,11.4 222.792,11.472 222.6,11.52 C222.408,11.544 222.216,11.544 222.048,11.4 C221.976,11.328 221.88,11.088 222.072,10.992 C223.392,10.416 224.712,9.672 226.056,9.024 C226.2,8.712 226.296,8.376 226.416,8.064 C226.536,7.728 226.632,7.392 226.824,7.104 C227.088,6.648 227.448,6.312 228.048,6.144 C228.696,5.976 229.32,6.168 229.8,6.6 C230.088,6.864 230.208,7.104 230.184,7.368 C229.656,7.824 229.08,8.184 228.504,8.52 C227.952,8.832 227.376,9.12 226.8,9.48 C226.752,9.744 226.68,10.008 226.656,10.296 C226.608,10.608 226.608,10.896 226.656,11.208 C226.728,11.352 226.872,11.4 227.016,11.352 C228.048,10.656 229.104,9.96 230.256,9.432 C230.664,9.264 231.12,9.48 231,9.816 C230.784,10.056 230.52,10.176 230.256,10.296 Z M223.68,7.608 C223.416,7.632 223.128,7.632 222.936,7.368 C222.864,7.224 222.936,7.128 223.008,7.056 L223.272,6.936 C224.352,6.456 225.504,6.072 226.32,5.136 C225.696,4.896 225.192,4.416 224.784,3.864 C224.328,3.24 224.064,2.688 223.824,1.968 C223.776,1.824 223.752,1.656 223.872,1.488 C223.944,1.368 224.136,1.32 224.304,1.44 C224.544,1.752 224.64,2.088 224.808,2.424 L224.976,2.76 C225.432,3.456 226.296,4.488 226.896,4.584 C227.904,3.648 228.672,2.424 229.344,1.248 C229.488,1.128 229.872,0.984 229.944,1.296 C229.992,1.56 229.92,1.776 229.824,1.968 C229.728,2.136 229.584,2.304 229.512,2.496 C228.792,3.528 227.952,4.56 227.016,5.472 C227.976,5.232 228.96,4.896 229.944,4.896 C230.28,5.016 230.28,5.376 230.064,5.592 C229.008,5.688 227.976,5.904 226.992,6.216 C225.84,6.576 224.736,7.056 223.68,7.608 Z M230.808,12.72 C230.064,12.456 229.08,12.312 228.312,12.576 C227.664,12.984 227.328,13.68 227.088,14.376 C227.04,14.544 226.992,14.736 226.92,14.904 C228.24,14.28 229.536,13.56 230.808,12.84 C230.832,12.816 230.832,12.768 230.808,12.72 Z M229.272,6.936 C228.936,6.768 228.648,6.696 228.312,6.744 C227.928,6.816 227.664,7.104 227.472,7.392 C227.28,7.728 227.16,8.112 227.064,8.472 C227.832,8.04 228.576,7.584 229.32,7.152 C229.368,7.104 229.368,7.008 229.272,6.936 Z M250.632,14.304 C250.512,14.352 250.296,14.328 250.176,14.232 C249.552,13.752 249.216,13.008 248.76,12.408 C248.4,11.928 247.992,11.496 247.32,11.328 C247.248,11.112 247.32,11.04 247.584,10.92 C247.968,10.872 248.232,10.92 248.472,11.064 C248.664,11.208 248.856,11.376 249.024,11.616 C249.216,11.856 249.36,12.096 249.552,12.336 C249.96,12.864 250.272,13.464 250.704,13.992 C250.728,14.16 250.68,14.256 250.632,14.304 Z M254.04,10.392 C253.848,12.408 253.464,14.376 252.504,16.032 C251.856,17.112 250.992,18.096 249.84,18.792 C249.336,19.008 248.688,19.152 248.064,19.152 C247.416,19.152 246.816,18.984 246.36,18.576 C245.904,18.168 245.376,17.664 245.376,16.992 C245.376,16.752 245.64,16.752 245.736,16.848 C246.048,17.568 246.576,18.096 247.2,18.336 C247.872,18.6 248.688,18.576 249.456,18.192 C250.248,17.808 250.896,17.16 251.4,16.392 C252.216,15.192 252.72,13.704 252.96,12.528 C253.272,11.016 253.368,9.432 253.272,7.8 C253.2,7.56 253.008,7.344 252.768,7.224 C252.072,7.056 251.4,7.368 250.776,7.584 C250.488,7.68 250.224,7.848 249.984,8.016 C249.72,8.184 249.504,8.328 249.24,8.424 C248.808,8.568 248.448,8.52 248.184,8.328 C247.944,8.136 247.752,7.824 247.728,7.392 C247.728,7.008 247.752,6 247.752,5.088 C247.752,4.992 247.632,4.92 247.584,4.992 C246.672,6 246,6.936 245.4,7.872 C244.824,8.76 244.368,9.648 243.888,10.632 C244.464,11.184 244.704,11.784 244.776,12.456 C244.824,13.056 244.8,14.064 244.584,14.904 C244.392,15.576 244.056,16.104 243.504,16.296 C243.144,16.44 242.616,16.44 242.28,16.128 C242.04,15.888 241.944,15.432 241.992,14.808 C242.064,13.56 242.52,12.36 243.072,10.968 C242.568,11.04 242.376,11.112 242.208,11.208 C241.68,11.568 241.44,12.144 241.296,12.744 C241.08,13.56 241.176,14.52 241.2,15.216 C241.224,15.552 241.224,15.888 241.176,16.248 C240.96,16.44 240.84,16.392 240.576,16.272 C240.192,15.792 239.76,14.808 239.448,13.824 C239.304,13.368 239.256,12.912 239.184,12.504 C239.136,12.12 239.112,11.76 239.064,11.496 C239.016,11.136 239.064,10.776 239.232,10.44 C239.376,10.104 239.664,9.792 240.024,9.576 C240.264,9.408 240.384,9.48 240.432,9.552 C240.504,9.672 240.504,9.864 240.408,9.96 C239.952,10.392 239.664,10.872 239.808,11.568 C239.88,11.928 239.904,12.384 240.024,13.008 C240.096,13.44 240.312,14.088 240.504,14.664 C240.552,13.968 240.624,13.368 240.72,12.816 C240.864,12.048 241.08,11.424 241.368,11.088 C241.752,10.584 242.352,10.272 243.312,10.416 C243.84,9.336 244.416,8.328 245.04,7.368 C245.592,6.504 246.216,5.664 246.888,4.848 C247.08,4.608 247.272,4.464 247.584,4.392 C247.896,4.416 248.136,4.44 248.304,4.656 C248.472,4.848 248.496,5.184 248.496,5.496 L248.496,7.512 C248.568,7.728 248.76,7.848 248.976,7.776 C249.288,7.68 249.6,7.512 249.864,7.344 C250.152,7.176 250.416,6.984 250.632,6.888 C251.112,6.6 251.736,6.456 252.312,6.432 C252.744,6.408 253.176,6.504 253.512,6.792 C254.016,7.224 254.088,7.824 254.088,8.448 C254.088,9.096 254.088,9.744 254.04,10.392 Z M241.896,8.208 C241.92,7.992 241.992,7.776 242.064,7.608 C242.112,7.512 242.136,7.416 242.136,7.152 C241.608,7.056 241.176,7.296 240.792,7.584 C240,8.208 239.184,9.288 238.848,9.792 C238.824,9.792 238.68,9.864 238.488,9.744 C238.296,9.648 238.272,9.576 238.296,9.528 C238.464,9.072 238.872,8.544 239.328,8.04 C239.856,7.464 240.48,6.936 240.96,6.648 C241.464,6.36 242.136,6.288 242.568,6.504 C242.832,6.624 243,6.888 242.808,7.296 C242.688,7.584 242.448,7.944 241.896,8.208 Z M243.6,11.28 C242.976,12.912 242.64,14.016 242.688,15.456 C242.76,15.576 242.808,15.648 242.928,15.72 C243.312,15.792 243.624,15.48 243.768,15.12 C243.936,14.712 244.032,14.064 244.08,13.392 C244.104,12.744 244.056,12.048 243.6,11.28 Z M275.376,16.176 C274.896,16.728 274.248,17.208 273.504,17.64 C272.736,18.072 271.872,18.408 271.08,18.504 C270.696,18.552 270.24,18.576 269.736,18.528 C269.136,18.408 268.512,18.072 268.224,17.496 C267.936,16.92 267.912,16.272 267.888,15.624 C267.888,15.072 267.888,14.544 267.864,14.016 L266.928,14.328 C266.592,14.448 266.208,14.544 265.824,14.592 C265.392,14.64 264.96,14.592 264.528,14.352 C264,13.968 263.832,13.344 264,12.768 C264.192,12.192 264.576,11.64 265.056,11.16 C265.536,10.68 266.112,10.272 266.664,9.984 C266.76,9.912 266.856,9.96 266.88,10.056 C266.904,10.128 266.88,10.224 266.832,10.32 C266.424,10.728 265.992,11.136 265.608,11.568 C265.176,12.048 264.864,12.528 264.768,13.128 C264.768,13.392 264.864,13.632 265.104,13.776 C265.464,13.872 265.824,13.848 266.16,13.8 C266.736,13.728 267.288,13.464 267.816,13.248 C267.816,11.28 267.936,9.336 267.984,7.44 C267.336,7.512 266.208,7.68 265.944,7.728 C265.632,7.776 265.224,7.896 264.936,8.088 C264.648,8.136 264.408,8.112 264.288,8.04 C264.12,7.944 264.144,7.776 264.312,7.656 C264.744,7.368 265.104,7.128 265.608,7.032 C266.424,6.864 267.192,6.744 268.032,6.72 C268.08,6.456 268.056,6.168 268.056,5.904 C268.056,5.592 268.032,5.28 268.128,4.992 C268.32,4.704 268.824,4.776 268.872,5.136 C268.92,5.664 268.896,6.12 268.872,6.672 C269.76,6.696 270.672,6.744 271.392,7.296 C271.536,7.416 271.608,7.608 271.536,7.8 C271.464,7.992 271.176,7.968 271.032,7.968 C270.864,7.776 270.696,7.704 270.48,7.632 C270.264,7.56 270.048,7.536 269.856,7.488 C269.52,7.464 269.112,7.416 268.776,7.416 L268.632,12.792 C269.064,12.696 270.144,11.832 270.456,11.544 C271.128,10.968 271.704,10.32 272.304,9.696 C272.472,9.624 272.688,9.624 272.808,9.768 C273.024,9.96 273.024,10.2 272.952,10.44 C272.664,11.256 272.088,12.456 271.512,13.056 C271.392,13.128 271.176,13.08 271.176,12.912 L271.608,11.88 L271.872,11.112 C271.392,11.544 270.888,12 270.36,12.408 C269.808,12.864 269.232,13.272 268.632,13.584 C268.656,14.544 268.728,15.744 268.752,16.584 C268.848,16.992 269.064,17.304 269.352,17.496 C269.76,17.736 270.24,17.832 270.744,17.784 C271.488,17.712 272.376,17.424 273.168,16.968 C273.816,16.584 274.392,16.128 274.824,15.648 C275.112,15.336 275.136,14.904 275.064,14.496 C274.92,13.584 274.44,13.008 273.936,12.288 C273.72,11.976 273.744,11.736 273.96,11.688 C274.176,11.64 274.512,11.784 274.608,11.976 C274.944,12.528 275.208,12.864 275.424,13.224 C275.64,13.608 275.784,14.016 275.88,14.712 C275.952,15.264 275.688,15.792 275.376,16.176 Z M260.88,13.944 C260.112,14.568 259.344,15.096 258.504,15.528 C258.336,15.552 258.072,15.576 257.928,15.456 C257.712,15.264 257.736,14.904 257.808,14.688 C258.504,13.272 259.536,12.024 260.52,10.848 C260.568,10.8 260.592,10.728 260.496,10.776 C260.088,11.016 259.224,11.4 258.744,11.472 C258.384,11.544 258.024,11.592 257.64,11.448 C257.448,11.304 257.4,11.16 257.4,10.968 C257.616,10.344 258.024,9.792 258.48,9.312 C259.008,8.76 261.36,6.672 261.984,6.192 C262.224,6 262.464,5.928 262.728,5.976 C263.064,6.048 263.112,6.384 262.896,6.48 C261.72,7.296 259.032,9.672 258.288,10.8 C258.264,10.824 258.288,10.896 258.312,10.872 C258.744,10.824 259.248,10.632 259.728,10.44 C260.232,10.224 260.712,9.984 261.072,9.816 C261.36,9.768 261.6,9.912 261.744,10.128 C261.792,10.32 261.744,10.56 261.552,10.704 C260.568,11.832 259.296,13.296 258.648,14.568 C258.624,14.592 258.648,14.64 258.696,14.64 C259.344,14.232 259.968,13.752 260.568,13.248 C261.192,12.72 261.792,12.192 262.416,11.688 C262.584,11.592 262.824,11.568 263.016,11.568 C263.208,11.664 263.136,11.904 263.064,12 C262.344,12.672 261.624,13.344 260.88,13.944 Z M262.992,14.904 C262.152,15.816 261.192,16.584 260.232,17.256 C259.344,17.88 258.384,18.384 257.4,18.768 C257.136,18.864 256.728,18.864 256.608,18.528 C256.632,18.408 256.68,18.192 256.872,18.12 C257.928,17.784 258.888,17.256 259.8,16.632 C260.928,15.864 262.008,14.928 263.016,13.92 C263.16,13.848 263.376,13.8 263.472,13.968 C263.448,14.352 263.232,14.64 262.992,14.904 Z M293.64,10.536 C293.544,10.536 293.328,10.536 293.064,10.56 C292.728,12.144 291.6,13.32 290.376,14.256 C290.376,15.864 290.448,17.352 290.256,18.888 C290.184,19.56 289.824,20.184 289.368,20.688 C288.768,21.336 287.928,21.84 287.16,22.056 C286.44,22.272 285.624,22.152 285.072,21.792 C284.928,21.72 285.024,21.48 285.12,21.432 C285.864,21.6 286.536,21.528 287.16,21.288 C287.832,21.048 288.432,20.568 288.936,19.968 C289.344,19.488 289.464,18.936 289.512,18.24 C289.608,17.04 289.584,15.96 289.584,14.784 C289.08,15.048 288.696,15.312 288.12,15.6 C287.856,15.744 287.352,15.888 286.992,15.696 C286.848,15.624 286.848,15.408 286.92,15.288 C287.904,14.784 288.672,14.4 289.584,13.848 C289.584,13.272 289.56,12.24 289.512,11.448 C287.928,11.904 286.32,12.48 284.88,13.296 C284.688,13.296 284.472,13.248 284.4,13.08 C284.304,12.936 284.304,12.72 284.496,12.6 C285.792,11.784 288.024,11.088 289.488,10.632 C289.488,10.296 289.464,9.696 289.416,9.168 C289.488,9 289.584,8.952 289.704,8.976 C289.8,8.976 289.896,9 289.968,9.048 C290.184,9.24 290.232,9.48 290.256,9.744 C290.28,9.96 290.232,10.2 290.256,10.44 C290.784,10.296 291.624,10.056 292.368,9.936 C292.392,9.48 292.296,9.096 292.056,8.808 C291.84,8.544 291.504,8.352 291.048,8.328 C290.136,8.28 289.344,8.328 288.6,8.472 C287.712,8.64 286.848,8.928 285.936,9.24 C285.624,9.288 285.432,9.144 285.36,8.952 C285.312,8.76 285.36,8.544 285.624,8.424 C285.744,8.352 285.888,8.304 286.032,8.256 C287.064,7.872 287.856,7.32 288.696,6.6 C289.344,6.048 289.92,5.448 290.232,5.016 C290.232,4.968 290.232,4.896 290.184,4.92 C289.704,4.92 289.176,4.968 288.672,4.968 C288.144,4.992 287.64,4.944 287.136,4.848 C286.824,4.776 286.536,4.608 286.368,4.368 C286.224,4.176 286.152,3.912 286.176,3.648 C286.272,3.192 286.464,2.76 286.704,2.352 C286.968,1.872 287.352,1.488 287.856,1.248 C288.024,1.152 288.24,1.224 288.384,1.344 C288.504,1.488 288.552,1.704 288.264,1.872 C287.904,2.064 287.616,2.352 287.376,2.688 C287.184,3 287.04,3.36 286.968,3.696 C287.016,4.008 287.208,4.056 287.472,4.128 C287.928,4.224 288.408,4.248 288.912,4.224 C289.416,4.2 289.944,4.152 290.448,4.176 C290.688,4.248 290.856,4.392 290.952,4.584 C291.096,4.896 291.048,5.16 290.88,5.4 C290.52,5.952 289.92,6.552 289.32,7.032 C288.936,7.344 288.552,7.608 288.192,7.824 C289.488,7.584 290.424,7.536 291.024,7.584 C291.768,7.656 292.32,7.896 292.68,8.328 C292.992,8.688 293.16,9.192 293.16,9.816 C293.328,9.792 293.52,9.792 293.664,9.816 C294,9.888 294.096,10.032 294.072,10.224 C294,10.392 293.832,10.56 293.64,10.536 Z M279.984,15.288 C279.72,15.552 279.48,15.6 279.288,15.528 C279.024,15.408 279.072,15.096 279.312,14.808 C280.08,13.872 280.848,12.84 281.52,11.664 C281.712,10.872 281.328,9.984 280.752,9.6 C280.2,9.24 279.456,9.072 278.784,9.096 C278.736,9.048 278.712,9.048 278.664,9.024 L278.544,9.024 C278.448,9 278.328,8.976 278.28,8.808 C278.352,8.592 278.496,8.4 278.736,8.376 C279.528,8.328 280.488,8.544 281.208,9.024 C281.88,9.456 282.336,10.128 282.216,10.992 C282.792,10.296 283.512,9.504 284.52,8.52 C284.736,8.496 284.808,8.76 284.736,8.856 C283.056,11.232 281.616,13.224 279.984,15.288 Z M290.328,11.232 C290.376,11.952 290.328,12.552 290.352,13.272 C291.216,12.504 291.864,11.832 292.224,10.752 C291.456,10.896 290.592,11.112 290.328,11.232 Z M304.176,17.088 C304.152,17.328 304.128,17.592 304.032,17.832 C303.96,18.072 303.816,18.264 303.528,18.408 C303,18.648 302.424,18.288 302.04,17.952 L301.2,17.232 C300.912,16.992 300.624,16.728 300.384,16.44 C300.312,16.344 300.312,16.248 300.408,16.2 C300.48,16.176 300.576,16.176 300.648,16.224 C301.44,16.704 302.256,17.16 303.12,17.544 C303.192,17.544 303.288,17.496 303.312,17.4 C303.408,15.888 303.432,14.328 303.384,12.744 C302.52,13.608 301.68,14.568 300.552,15.096 C300.408,15.168 300.288,15.168 300.144,15.144 L299.736,15.024 L299.592,14.76 C299.544,14.664 299.52,14.544 299.544,14.4 C299.976,13.344 300.408,12.192 300.432,11.088 C300.36,10.464 300.048,9.864 299.472,9.504 C298.752,9.216 297.768,9.288 297.192,9.792 C296.808,10.128 296.64,10.608 296.784,11.136 C296.856,11.232 296.88,11.328 296.928,11.52 C296.448,11.496 296.208,11.016 296.112,10.728 C295.992,10.032 296.28,9.456 296.832,9.096 C297.528,8.64 298.488,8.544 299.328,8.64 C299.976,8.784 300.648,9.192 300.96,9.84 C301.2,10.392 301.248,11.016 301.2,11.616 C301.128,12.504 300.792,13.392 300.48,14.112 C300.432,14.184 300.504,14.208 300.528,14.208 C301.56,13.68 302.472,12.84 303.384,11.976 C303.384,10.416 303.384,8.04 303.36,6.456 C303.288,6.072 303.336,5.64 303.624,5.328 C303.888,5.232 304.128,5.4 304.224,5.664 C304.224,8.664 304.2,14.04 304.176,17.088 Z M311.832,15.672 C310.176,15.696 308.784,15.192 307.512,14.304 C306.744,13.608 306.408,12.6 306.696,11.592 C306.96,10.92 307.32,10.272 307.704,9.648 C308.088,9.024 308.52,8.424 308.904,7.8 C308.952,7.656 308.928,7.536 308.88,7.392 C308.856,7.248 308.784,7.104 308.76,6.888 C308.904,6.864 309,6.816 309.12,6.792 C309.216,6.768 309.336,6.744 309.432,6.744 C309.648,6.744 309.864,6.816 309.984,7.08 C310.008,7.296 309.96,7.464 309.912,7.608 L309.672,8.04 C309,9.264 308.16,10.44 307.56,11.712 C307.368,12.264 307.488,12.912 307.8,13.392 C308.712,14.328 309.936,14.712 311.136,15.048 C311.448,15.096 311.856,15.168 312.12,15.24 C312.24,15.456 311.976,15.6 311.832,15.672 Z M317.208,5.904 L317.04,6.648 C316.776,7.776 316.752,8.952 316.752,10.128 C316.728,11.856 316.848,13.608 317.016,15.264 C316.968,15.504 316.944,15.768 316.656,15.816 C316.368,15.48 316.296,15.096 316.248,14.736 C316.056,12.984 315.936,11.184 315.984,9.408 C316.032,8.016 316.2,6.624 316.536,5.28 C316.584,5.184 316.656,4.92 316.896,4.872 C317.04,4.848 317.28,4.896 317.352,5.112 C317.328,5.376 317.28,5.64 317.208,5.904 Z M317.904,21.072 C317.064,20.808 316.464,19.92 316.248,19.152 C316.224,18.888 316.296,18.696 316.512,18.576 C316.752,18.528 316.92,18.744 316.968,18.888 C317.04,19.152 317.16,19.368 317.304,19.608 C317.592,20.016 317.904,20.376 318.192,20.784 C318.216,20.952 318.024,21.096 317.904,21.072 Z" id="你花的每一分钱都将变成甜美的纯净水！"></path>
                </g>
            </g>
        </g>
    </g>
</svg>