<?xml version="1.0" encoding="UTF-8"?>
<svg width="39px" height="3px" viewBox="0 0 39 3" version="1.1" xmlns="http://www.w3.org/2000/svg" xmlns:xlink="http://www.w3.org/1999/xlink">
    <!-- Generator: Sketch 49.2 (51160) - http://www.bohemiancoding.com/sketch -->
    <title>006</title>
    <desc>Created with Sketch.</desc>
    <defs></defs>
    <g id="Page-1" stroke="none" stroke-width="1" fill="none" fill-rule="evenodd">
        <g id="移动端-首页" transform="translate(-168.000000, -1105.000000)" fill="#FFFFFF" fill-rule="nonzero">
            <g id="Group-2-Copy" transform="translate(168.000000, 1105.000000)">
                <g id="Group-3">
                    <path d="M21.6936316,0.524403312 C22.143736,0.233364621 22.7179565,0 23.5427312,0 C24.8573601,0 25.5354319,0.569169967 26.0751217,1.01976284 C26.5456205,1.41106719 26.8915754,1.69565217 27.625,1.69565217 C28.3584246,1.69565217 28.7043796,1.41106719 29.1748784,1.01976284 C29.7284064,0.569169967 30.4064781,0 31.7072689,0 C33.0218978,0 33.7138078,0.592885381 34.2534976,1.06719367 C34.7239964,1.48221343 35.0699514,1.77865612 35.7895378,1.77865612 C36.5921533,1.77865612 37.2010341,1.22134388 37.9067823,0.498023727 L39,1.28063241 C38.2804136,2.00395257 37.3117397,3 35.7895377,3 C34.4610706,3 33.7829988,2.40711462 33.2294708,1.93280633 C32.758972,1.51778657 32.413017,1.22134388 31.6934307,1.22134388 C30.9600061,1.22134388 30.6140511,1.50592886 30.1435523,1.89723321 C29.5900243,2.34782609 28.9119526,2.91699605 27.6111618,2.91699605 C26.310371,2.91699605 25.6184611,2.34782609 25.0787713,1.89723321 C24.6082725,1.50592886 24.2623175,1.22134388 23.5288929,1.22134388 C23.0944591,1.22134388 22.7962088,1.32939324 22.5245185,1.50635256 C21.8295277,2.19461524 20.9083187,3 19.5395377,3 C19.5238815,3 19.5083156,2.99991765 19.4928391,2.99975413 C19.477522,2.99991765 19.4621172,3 19.4466241,3 C18.1113069,3 17.2019448,2.23351372 16.5223668,1.55702873 C16.229957,1.3502371 15.9179213,1.22134388 15.4434307,1.22134388 C14.7100061,1.22134388 14.3640511,1.50592886 13.8935523,1.89723321 C13.3400243,2.34782609 12.6619526,2.91699605 11.3611618,2.91699605 C10.060371,2.91699605 9.36846106,2.34782609 8.82877129,1.89723321 C8.35827251,1.50592886 8.01231752,1.22134388 7.27889294,1.22134388 C6.55930655,1.22134388 6.21335156,1.51778657 5.74285278,1.93280633 C5.18932481,2.40711462 4.51125302,3 3.19662407,3 C1.67442214,3 0.705748184,2.00395257 0,1.28063241 L1.09321777,0.498023727 C1.79896596,1.22134386 2.40784672,1.77865612 3.2104623,1.77865612 C3.93004868,1.77865612 4.27600367,1.48221343 4.74650245,1.06719367 C5.30003042,0.592885381 5.97810221,0 7.29273116,0 C8.60736011,0 9.2854319,0.569169967 9.82512167,1.01976284 C10.2956205,1.41106719 10.6415754,1.69565217 11.375,1.69565217 C12.1084246,1.69565217 12.4543796,1.41106719 12.9248784,1.01976284 C13.4784064,0.569169967 14.1564781,0 15.4572689,0 C16.2800913,0 16.8589653,0.232261127 17.3092541,0.522337517 L17.3432178,0.498023727 C17.3914076,0.547413425 17.4391458,0.596029124 17.4865249,0.643746249 C17.6790976,0.783361362 17.8476448,0.930221893 18.0034976,1.06719367 C18.4652964,1.47453926 18.8071146,1.76765247 19.5,1.77835316 C20.1928854,1.76765247 20.5347037,1.47453926 20.9965025,1.06719367 C21.1502574,0.935443779 21.3136219,0.794544755 21.4975695,0.659744872 C21.5501668,0.6069091 21.6031953,0.552944953 21.6567823,0.498023727 L21.6936316,0.524403311 Z" id="Combined-Shape"></path>
                </g>
            </g>
        </g>
    </g>
</svg>