<?xml version="1.0" encoding="UTF-8"?>
<svg width="225px" height="75px" viewBox="0 0 225 75" version="1.1" xmlns="http://www.w3.org/2000/svg" xmlns:xlink="http://www.w3.org/1999/xlink">
    <!-- Generator: Sketch 49.2 (51160) - http://www.bohemiancoding.com/sketch -->
    <title>014</title>
    <desc>Created with Sketch.</desc>
    <defs></defs>
    <g id="Page-1" stroke="none" stroke-width="1" fill="none" fill-rule="evenodd">
        <g id="移动端-解决方案" transform="translate(-74.000000, -1313.000000)" fill="#58B2FF" stroke="#58B2FF" stroke-width="0.5">
            <g id="Group-6-Copy" transform="translate(74.000000, 1313.000000)">
                <g id="Group-5" transform="translate(0.000000, 1.000000)">
                    <path d="M69.91,28.56 C69.595,28.385 69.42,28.14 69.245,27.895 C69.105,27.65 68.965,27.405 68.86,27.16 C67.635,24.99 66.655,22.715 65.29,20.615 C63.925,21.735 62.35,22.645 60.495,22.68 C60.355,22.54 60.18,22.54 60.18,22.225 C61.475,21.875 63.645,20.615 64.73,19.6 C62.84,16.485 61.335,13.02 59.795,9.765 L55.175,12.11 C55.14,13.02 55,13.93 55.035,14.84 C55.42,14.525 55.77,14.14 56.085,13.72 C56.47,13.265 56.785,12.74 57.205,12.25 C57.52,12.215 57.66,12.46 57.695,12.67 C57.415,13.37 56.995,14 56.505,14.56 C56.015,15.155 55.49,15.68 55,16.205 C55,17.535 55.07,18.9 55.035,20.23 C55,21.595 54.86,22.89 54.405,24.115 C54.055,25.025 53.075,25.69 52.2,25.76 C50.45,25.865 48.98,25.025 47.825,23.765 C47.405,23.1 47.335,22.26 47.755,21.56 C49.47,19.565 51.78,17.605 53.845,15.925 C53.845,14.84 53.88,13.79 53.88,12.74 C51.99,13.65 50.135,14.735 48.07,15.26 C47.72,15.33 47.475,15.155 47.3,15.015 C46.95,14.735 46.845,14.315 46.95,13.895 C47.02,13.79 47.09,13.685 47.125,13.58 L47.265,13.3 C48.385,11.725 49.75,10.36 51.115,9.03 C52.48,7.735 53.88,6.44 55.105,5.005 C55.14,4.83 55.035,4.69 54.93,4.655 C53.915,4.725 52.97,4.935 52.025,5.18 C51.08,5.39 50.1,5.565 49.05,5.635 C48.735,5.635 48.35,5.6 48.07,5.425 C47.79,5.285 47.755,5.04 47.79,4.795 L47.79,4.585 C48,4.235 48.21,4.27 48.42,4.375 L48.735,4.48 C48.805,4.48 48.91,4.48 48.98,4.445 C49.54,4.445 50.065,4.375 50.555,4.305 C51.08,4.2 51.57,4.095 52.095,3.955 C53.075,3.745 54.125,3.535 55.245,3.605 C55.665,3.675 56.085,3.885 56.26,4.27 C56.54,4.795 56.295,5.25 55.945,5.635 C54.615,7.14 53.075,8.435 51.675,9.835 C50.38,11.13 49.155,12.46 48.14,13.895 C48.105,13.965 48.14,14 48.21,14.035 C50.205,13.405 52.095,12.46 53.95,11.445 C54.055,10.85 54.09,10.22 54.23,9.59 C54.37,8.995 54.58,8.4 55,7.875 C55.28,7.77 55.56,8.05 55.56,8.225 C55.49,8.855 55.315,10.045 55.245,10.815 C56.33,10.29 58.185,9.38 59.305,8.785 L58.255,6.79 C58.115,6.545 58.325,6.44 58.535,6.37 C59.025,6.37 59.34,6.58 59.62,6.86 C59.97,7.245 60.145,7.84 60.425,8.295 C60.565,8.225 60.74,8.155 60.88,8.05 C61.44,7.77 61.965,7.385 62.665,7.49 C62.91,7.7 62.91,7.98 62.805,8.155 C62.525,8.47 62.175,8.645 61.825,8.82 C61.51,8.995 61.16,9.1 60.88,9.275 C62.35,12.46 63.715,15.68 65.57,18.69 C66.2,17.99 66.585,17.15 67.04,16.345 C67.53,15.47 68.44,14.105 69,13.615 C69.14,13.545 69.315,13.51 69.455,13.685 C69.735,13.86 69.63,14.21 69.525,14.42 C68.93,15.295 68.475,16.205 67.95,17.115 C67.46,18.025 66.935,18.935 66.165,19.705 C67.74,22.4 68.93,25.235 70.155,28.035 C70.225,28.245 70.19,28.56 69.91,28.56 Z M51.64,19.145 C50.625,20.055 49.435,21.245 48.7,22.33 C48.56,22.785 48.805,23.135 49.12,23.485 C49.96,24.045 50.8,24.64 51.885,24.605 C52.62,24.57 53.145,23.87 53.425,23.205 C53.915,21.385 53.88,19.11 53.81,17.185 C53.18,17.78 51.92,18.9 51.64,19.145 Z M66.935,9.485 C66.76,8.05 66.305,6.79 65.745,5.6 C65.15,4.375 64.485,3.22 63.855,2.065 C63.68,1.96 63.505,1.995 63.33,2.065 C63.225,2.135 63.12,2.17 63.015,2.205 C62.91,2.275 62.805,2.31 62.63,2.345 C62.42,2.065 62.525,1.855 62.7,1.61 L62.84,1.435 C63.085,1.155 63.4,0.735 63.855,0.63 C64.31,0.665 64.555,1.05 64.8,1.365 C65.36,2.205 65.815,3.08 66.235,3.99 C66.62,4.865 66.97,5.775 67.39,6.685 C67.67,7.315 67.775,8.155 67.53,8.855 C67.425,8.96 67.46,9.485 66.935,9.485 Z M97.245,25.27 C96.195,26.32 95.075,27.16 93.745,27.72 C92.87,28.105 91.925,28.315 91.05,28.28 C89.825,28.245 88.74,27.755 87.865,26.775 C87.69,26.39 87.97,26.04 88.285,26.25 C89.195,26.845 90,27.09 90.805,27.195 C91.54,27.3 92.275,27.16 93.15,26.775 C94.62,26.075 95.88,25.095 96.895,23.66 C97.14,22.96 97.28,22.225 97.245,21.42 L96.825,12.985 C96.685,10.29 96.615,8.995 96.615,6.09 C96.615,5.635 96.3,5.355 95.915,5.355 C94.375,5.355 92.03,5.915 90,6.86 C89.79,6.965 89.51,6.79 89.545,6.51 C91.05,5.145 92.835,4.515 95.215,4.165 C96.055,4.06 96.65,4.235 97.07,4.515 C97.63,4.865 97.7,5.53 97.735,6.58 C97.805,9.625 97.91,10.885 98.05,13.65 C98.155,16.415 98.33,19.215 98.47,22.155 C98.54,23.415 98.05,24.43 97.245,25.27 Z M80.06,24.045 C79.64,24.255 79.29,23.835 79.08,23.52 C78.905,22.96 78.835,22.4 78.835,21.84 L78.835,20.09 C78.835,18.375 79.01,15.68 79.22,14 C79.22,13.825 79.01,13.79 78.94,13.86 C78.66,14.07 78.345,14.28 78.03,14.455 C77.75,14.63 77.435,14.805 76.98,14.945 C77.015,14.56 77.155,14.35 77.33,14.175 L77.855,13.72 C78.345,13.265 78.87,12.67 79.535,12.425 C80.095,12.32 80.375,12.74 80.445,13.09 C80.06,15.925 79.885,19.775 80.095,22.68 C80.165,22.89 80.305,22.89 80.41,22.855 C80.55,22.75 80.76,22.715 81.005,22.89 C80.83,23.345 80.48,23.8 80.06,24.045 Z M85.31,19.53 C84.645,18.935 84.435,18.025 84.47,17.115 C84.365,15.085 84.365,10.57 84.435,8.435 C84.435,8.05 84.33,7.7 84.26,7.35 C84.26,7.21 84.225,7.105 84.225,6.93 C84.435,6.755 84.68,6.72 84.855,6.825 C85.205,7.035 85.52,7.42 85.59,7.875 L85.59,13.195 C85.59,14.77 85.52,16.975 85.905,19.355 C85.905,19.6 85.45,19.6 85.31,19.53 Z M80.305,8.995 C80.025,9.1 79.675,9.17 79.5,9.38 C78.275,10.36 77.19,11.445 76.28,12.67 C75.3,13.965 74.495,15.4 73.725,16.8 C73.55,17.15 73.095,17.15 72.99,16.625 C72.92,16.275 73.025,15.96 73.165,15.68 L73.55,14.805 C74.18,13.72 74.88,12.565 75.72,11.445 C76.875,9.94 78.31,8.61 80.025,7.84 C80.375,7.77 80.655,7.98 80.795,8.26 C80.865,8.715 80.585,8.89 80.305,8.995 Z M88.46,3.255 C87.27,2.065 85.905,1.47 84.26,1.155 C83.98,1.12 83.875,0.7 83.875,0.49 C84.015,0.14 84.26,-0.035 84.575,0.035 C85.415,0.14 86.15,0.385 86.815,0.77 C87.69,1.225 88.39,1.925 88.845,2.94 C88.88,3.08 88.705,3.43 88.46,3.255 Z M119.33,18.235 C119.155,18.305 118.84,18.27 118.665,18.13 C117.755,17.43 117.265,16.345 116.6,15.47 C116.075,14.77 115.48,14.14 114.5,13.895 C114.395,13.58 114.5,13.475 114.885,13.3 C115.445,13.23 115.83,13.3 116.18,13.51 C116.46,13.72 116.74,13.965 116.985,14.315 C117.265,14.665 117.475,15.015 117.755,15.365 C118.35,16.135 118.805,17.01 119.435,17.78 C119.47,18.025 119.4,18.165 119.33,18.235 Z M124.3,12.53 C124.02,15.47 123.46,18.34 122.06,20.755 C121.115,22.33 119.855,23.765 118.175,24.78 C117.44,25.095 116.495,25.305 115.585,25.305 C114.64,25.305 113.765,25.06 113.1,24.465 C112.435,23.87 111.665,23.135 111.665,22.155 C111.665,21.805 112.05,21.805 112.19,21.945 C112.645,22.995 113.415,23.765 114.325,24.115 C115.305,24.5 116.495,24.465 117.615,23.905 C118.77,23.345 119.715,22.4 120.45,21.28 C121.64,19.53 122.375,17.36 122.725,15.645 C123.18,13.44 123.32,11.13 123.18,8.75 C123.075,8.4 122.795,8.085 122.445,7.91 C121.43,7.665 120.45,8.12 119.54,8.435 C119.12,8.575 118.735,8.82 118.385,9.065 C118,9.31 117.685,9.52 117.3,9.66 C116.67,9.87 116.145,9.8 115.76,9.52 C115.41,9.24 115.13,8.785 115.095,8.155 C115.095,7.595 115.13,6.125 115.13,4.795 C115.13,4.655 114.955,4.55 114.885,4.655 C113.555,6.125 112.575,7.49 111.7,8.855 C110.86,10.15 110.195,11.445 109.495,12.88 C110.335,13.685 110.685,14.56 110.79,15.54 C110.86,16.415 110.825,17.885 110.51,19.11 C110.23,20.09 109.74,20.86 108.935,21.14 C108.41,21.35 107.64,21.35 107.15,20.895 C106.8,20.545 106.66,19.88 106.73,18.97 C106.835,17.15 107.5,15.4 108.305,13.37 C107.57,13.475 107.29,13.58 107.045,13.72 C106.275,14.245 105.925,15.085 105.715,15.96 C105.4,17.15 105.54,18.55 105.575,19.565 C105.61,20.055 105.61,20.545 105.54,21.07 C105.225,21.35 105.05,21.28 104.665,21.105 C104.105,20.405 103.475,18.97 103.02,17.535 C102.81,16.87 102.74,16.205 102.635,15.61 C102.565,15.05 102.53,14.525 102.46,14.14 C102.39,13.615 102.46,13.09 102.705,12.6 C102.915,12.11 103.335,11.655 103.86,11.34 C104.21,11.095 104.385,11.2 104.455,11.305 C104.56,11.48 104.56,11.76 104.42,11.9 C103.755,12.53 103.335,13.23 103.545,14.245 C103.65,14.77 103.685,15.435 103.86,16.345 C103.965,16.975 104.28,17.92 104.56,18.76 C104.63,17.745 104.735,16.87 104.875,16.065 C105.085,14.945 105.4,14.035 105.82,13.545 C106.38,12.81 107.255,12.355 108.655,12.565 C109.425,10.99 110.265,9.52 111.175,8.12 C111.98,6.86 112.89,5.635 113.87,4.445 C114.15,4.095 114.43,3.885 114.885,3.78 C115.34,3.815 115.69,3.85 115.935,4.165 C116.18,4.445 116.215,4.935 116.215,5.39 L116.215,8.33 C116.32,8.645 116.6,8.82 116.915,8.715 C117.37,8.575 117.825,8.33 118.21,8.085 C118.63,7.84 119.015,7.56 119.33,7.42 C120.03,7 120.94,6.79 121.78,6.755 C122.41,6.72 123.04,6.86 123.53,7.28 C124.265,7.91 124.37,8.785 124.37,9.695 C124.37,10.64 124.37,11.585 124.3,12.53 Z M106.59,9.345 C106.625,9.03 106.73,8.715 106.835,8.47 C106.905,8.33 106.94,8.19 106.94,7.805 C106.17,7.665 105.54,8.015 104.98,8.435 C103.825,9.345 102.635,10.92 102.145,11.655 C102.11,11.655 101.9,11.76 101.62,11.585 C101.34,11.445 101.305,11.34 101.34,11.27 C101.585,10.605 102.18,9.835 102.845,9.1 C103.615,8.26 104.525,7.49 105.225,7.07 C105.96,6.65 106.94,6.545 107.57,6.86 C107.955,7.035 108.2,7.42 107.92,8.015 C107.745,8.435 107.395,8.96 106.59,9.345 Z M109.075,13.825 C108.165,16.205 107.675,17.815 107.745,19.915 C107.85,20.09 107.92,20.195 108.095,20.3 C108.655,20.405 109.11,19.95 109.32,19.425 C109.565,18.83 109.705,17.885 109.775,16.905 C109.81,15.96 109.74,14.945 109.075,13.825 Z M141.835,19.775 C141.625,20.09 141.345,20.37 141.1,20.685 C140.75,21.07 140.505,21.455 140.505,21.945 C140.155,22.4 139.805,22.505 139.455,22.365 L137.915,23.765 C137.39,24.255 136.83,24.71 136.235,25.095 C135.955,25.165 135.78,25.165 135.535,25.06 C135.115,24.745 135.22,24.395 135.395,24.115 C135.465,23.94 135.605,23.8 135.675,23.625 C135.78,23.485 135.85,23.345 135.885,23.03 L136.27,23.345 C136.305,23.38 136.375,23.38 136.375,23.415 C136.97,23.03 137.565,22.575 138.09,22.05 L139.735,20.475 C139.77,19.18 139.875,16.625 139.875,15.155 C138.055,16.45 136.13,17.675 134.1,18.515 C134.1,19.53 134.1,21.455 134.065,22.435 C133.96,22.715 133.75,22.925 133.505,22.995 C133.12,23.065 132.945,22.715 132.91,22.505 C132.875,19.81 132.875,14.385 132.84,11.48 C132.84,10.36 132.84,9.275 132.875,8.225 C132.91,7.14 133.015,6.125 133.225,5.04 C133.295,4.9 133.4,4.83 133.54,4.795 C133.645,4.795 133.75,4.83 133.855,4.83 C134.065,4.935 134.17,5.11 134.275,5.32 C134.135,7.56 134.065,9.625 134.065,11.9 C135.955,11.095 137.845,10.255 139.84,9.835 C139.91,8.365 139.84,6.93 139.735,5.495 C139.665,5.25 139.595,4.97 139.315,4.865 C138.475,4.76 137.705,5.11 137.005,5.53 C136.585,5.915 136.445,6.405 136.34,6.965 C136.235,7.525 136.2,8.12 135.92,8.61 C135.815,8.89 135.5,8.82 135.535,8.54 C135.535,8.19 135.5,7.805 135.465,7.385 C135.465,6.965 135.43,6.51 135.465,6.125 C135.535,5.495 135.78,4.97 136.41,4.655 C137.39,3.955 138.58,3.5 139.84,3.745 C140.26,3.92 140.505,4.305 140.75,4.655 C140.995,5.53 141.03,6.37 141.065,7.21 C141.065,8.05 141.03,8.925 141.1,9.8 C141.275,9.835 141.52,10.01 141.555,10.22 C141.555,10.43 141.485,10.605 141.38,10.745 L141.1,11.095 C141.065,13.16 141.03,17.01 141.03,19.11 L141.38,18.62 C141.52,18.375 141.73,18.13 142.045,17.955 C142.36,18.13 142.36,18.48 142.29,18.725 C142.255,19.145 142.08,19.46 141.835,19.775 Z M139.84,13.86 L139.84,11.06 C137.81,11.515 135.92,12.355 134.065,13.265 C134.1,14.315 134.1,16.205 134.1,17.185 C136.13,16.345 138.02,15.155 139.84,13.86 Z M161.26,19.495 C160.595,19.565 160.28,19.04 159.895,18.585 C159.79,18.445 159.685,18.34 159.545,18.235 C158.67,17.22 157.69,16.275 156.675,15.505 L156.535,22.33 C156.5,23.24 156.5,24.15 156.22,25.025 C155.94,25.795 155.485,26.53 154.61,26.95 C154.33,27.125 153.56,27.16 153.245,26.635 C153.98,26.495 154.47,26.11 154.785,25.62 C155.1,25.06 155.17,24.465 155.24,23.87 C155.275,22.47 155.415,21 155.485,19.53 C155.52,18.305 155.555,17.08 155.45,15.855 C154.33,17.675 153.035,19.46 151.565,21.105 C150.97,21.77 150.165,22.225 149.255,22.26 C148.94,22.295 148.975,21.805 149.185,21.7 C150.235,21.245 150.97,20.405 151.67,19.46 C153.07,17.57 154.4,15.68 155.45,13.545 C155.45,12.285 155.415,10.85 155.38,9.975 C154.715,10.255 154.085,10.605 153.455,10.99 C152.755,11.41 152.055,11.865 151.355,12.18 C150.935,12.39 150.55,12.285 150.13,12.18 C149.955,12.075 149.745,11.725 149.92,11.515 C150.935,11.13 151.81,10.675 152.685,10.185 C153.525,9.695 154.4,9.205 155.38,8.75 C155.38,8.33 155.31,7.7 155.31,7.07 C155.275,6.405 155.31,5.74 155.38,5.285 C155.66,4.97 156.22,5.075 156.325,5.425 C156.535,6.335 156.465,7.28 156.535,8.225 L157.34,7.91 C157.655,7.77 158.005,7.595 158.32,7.49 C158.81,7.35 159.335,7.28 159.93,7.595 C159.965,7.665 160.035,7.735 160.07,7.84 C160.14,7.945 160.14,8.05 160.035,8.19 C159.825,8.295 159.615,8.33 159.405,8.365 C159.195,8.4 158.985,8.4 158.81,8.47 C158.425,8.645 158.005,8.785 157.62,8.925 C157.235,9.065 156.85,9.24 156.535,9.45 C156.535,10.5 156.605,11.725 156.605,12.88 C156.815,12.915 156.99,13.055 157.095,13.265 C157.095,13.545 156.99,13.755 156.885,13.965 C156.78,14.175 156.675,14.385 156.64,14.595 C157.27,14.77 157.83,15.12 158.32,15.575 L159.86,16.975 C160,17.15 160.14,17.29 160.315,17.43 C160.77,17.885 161.26,18.27 161.505,18.865 C161.54,19.145 161.435,19.32 161.26,19.495 Z M174.455,21.98 C173.475,21.07 172.495,20.16 171.445,19.39 C170.64,18.795 169.8,18.305 168.925,17.955 C168.89,19.635 168.925,21.42 168.715,23.065 C168.505,24.5 168.155,25.83 167.35,27.02 C167,27.405 166.615,27.79 166.16,28.035 C165.74,28.315 165.215,28.455 164.655,28.28 C163.885,28 162.87,27.265 162.8,26.355 C162.905,26.04 163.255,26.145 163.395,26.285 C163.955,26.88 164.55,27.405 165.32,27.265 C166.405,26.81 166.895,25.655 167.175,24.57 C167.595,22.96 167.7,21.14 167.665,19.32 C167.665,17.955 167.595,16.625 167.63,15.295 C167.63,14.07 167.735,12.81 167.98,11.55 C165.845,12.39 163.465,13.72 160.28,15.12 C159.93,15.19 159.58,15.015 159.3,14.84 C159.125,14.665 158.985,14.385 159.125,14.07 C160.28,13.125 161.54,12.25 162.66,11.34 C162.765,11.27 162.905,11.305 162.975,11.375 C163.045,11.48 163.08,11.62 162.975,11.76 C162.555,12.145 161.925,12.775 161.33,13.405 C164.865,11.69 167.42,10.535 170.745,9.24 C170.92,9.275 171.095,9.275 171.27,9.275 C171.445,9.31 171.585,9.345 171.76,9.52 C171.795,9.765 171.865,9.8 171.795,10.08 C170.99,10.465 170.115,10.675 169.31,11.025 C168.82,12.88 168.75,15.05 168.855,17.01 C170.08,17.185 171.2,17.745 172.25,18.48 C173.125,19.075 174,19.81 174.805,20.545 C175.085,20.895 175.4,21.385 175.155,21.91 C174.98,22.19 174.63,22.19 174.455,21.98 Z M165.915,16.415 C165.81,16.59 165.705,16.73 165.565,16.87 L165.075,17.36 C164.34,18.515 163.535,19.74 162.625,20.895 C161.61,22.19 160.455,23.38 159.02,24.185 C158.81,24.325 158.46,24.29 158.215,24.255 C157.97,24.045 158.18,23.8 158.32,23.66 C159.545,22.61 160.665,21.455 161.645,20.23 C162.8,18.795 163.815,17.29 164.725,15.785 C164.935,15.61 165.11,15.365 165.32,15.19 C165.53,15.015 165.775,14.875 166.09,14.84 C166.405,14.805 166.475,15.015 166.405,15.435 C166.3,15.82 166.125,16.135 165.915,16.415 Z M169.45,5.46 C169.03,5.53 168.575,5.53 168.155,5.6 C167.175,5.775 166.125,5.845 165.11,5.775 C164.165,5.705 163.22,5.495 162.415,5.005 L161.96,4.585 C161.82,4.375 161.715,4.165 161.89,3.885 C162.065,3.71 162.205,3.71 162.38,3.745 C162.415,3.745 162.485,3.78 162.555,3.815 L162.8,3.815 C163.78,4.41 164.935,4.585 166.16,4.55 C167.49,4.515 168.785,4.235 169.905,3.955 C170.185,3.92 170.43,3.99 170.605,4.2 C170.78,4.34 170.85,4.62 170.675,4.83 C170.29,5.215 169.87,5.355 169.45,5.46 Z" id="我们的目标"></path>
                    <path d="M23.125,54.34 C23.055,54.41 22.915,54.41 22.81,54.445 C20.535,54.62 18.33,55.215 16.265,55.915 C16.195,56.86 16.195,57.805 16.195,58.75 C16.195,59.73 16.16,60.675 15.985,61.655 C15.95,61.725 15.915,61.725 15.915,61.76 L15.845,61.865 C15.81,61.9 15.775,61.97 15.635,62.005 C15.46,62.005 15.39,61.9 15.355,61.795 C15.32,61.76 15.32,61.725 15.32,61.69 L15.25,61.585 C15.18,61.235 15.075,60.5 15.075,60.115 L15.075,53.57 C15.075,51.295 15.11,49.055 15.11,47.55 C15.11,47.27 15.32,47.025 15.565,46.955 C15.81,46.885 16.09,46.99 16.265,47.2 C16.72,47.725 17.315,48.46 17.7,48.985 C17.805,49.195 17.595,49.3 17.385,49.3 C17.07,49.3 16.825,49.125 16.51,49.055 C16.335,48.985 16.265,48.95 16.265,49.125 C16.23,50.525 16.23,53.255 16.265,54.655 C17.385,54.445 18.26,54.165 19.1,53.92 C19.94,53.675 20.71,53.465 21.62,53.395 C22.18,53.36 22.74,53.465 23.23,53.92 C23.335,54.13 23.265,54.27 23.125,54.34 Z M9.475,61.725 C8.915,63.055 8.11,64.315 6.885,65.33 C6.64,65.435 6.29,65.435 6.045,65.26 C5.87,65.19 5.765,65.085 5.695,64.945 L5.45,64.56 C5.52,63.51 5.835,62.6 5.975,61.585 L6.185,59.905 C6.255,59.38 6.255,58.82 6.22,58.26 C6.01,57.875 5.66,57.7 5.24,57.63 C4.925,57.56 4.575,57.595 4.225,57.595 C3.875,57.595 3.525,57.63 3.21,57.63 C2.615,57.735 1.67,57.945 1.18,58.05 C0.55,57.84 0.55,57.315 0.83,56.93 C2.125,56.335 3.35,55.81 4.435,54.69 C4.785,54.62 4.785,55.075 4.68,55.215 C4.365,55.635 3.84,56.16 3.385,56.51 C4.12,56.44 4.89,56.37 5.625,56.51 C6.255,56.65 6.815,56.895 7.2,57.455 C7.41,57.77 7.48,58.12 7.48,58.47 C7.445,58.82 7.41,59.17 7.41,59.52 C7.2,61.025 6.99,62.565 6.605,64 C6.605,64 6.745,64.105 6.78,64.07 C7.48,63.3 8.04,62.46 8.495,61.655 C9.195,60.325 9.685,58.925 10.105,57.49 C10.175,57.315 10.35,57.28 10.455,57.35 C10.595,57.385 10.665,57.49 10.665,57.665 C10.455,59.1 10,60.43 9.475,61.725 Z M26.765,57.91 L23.09,60.185 C21.585,61.34 18.47,63.58 16.93,64.665 C15.32,65.82 13.57,66.695 11.82,67.57 L11.33,67.71 C11.155,67.745 10.945,67.78 10.805,67.675 C10.525,67.57 10.455,67.22 10.49,67.01 C11.155,66.345 11.96,66.1 12.8,65.715 C13.045,65.61 13.29,65.505 13.535,65.365 C14.375,64.805 16.02,63.79 16.755,63.405 C18.19,62.355 20.745,60.535 22.25,59.485 C23.615,58.54 25.085,57.63 26.695,57.07 L26.975,57.14 C27.045,57.14 27.15,57.21 27.22,57.35 C27.185,57.665 26.975,57.805 26.765,57.91 Z M8.565,48.635 C8.39,48.495 8.215,48.32 8.005,48.18 C7.025,47.69 6.01,47.34 4.96,47.06 C4.715,46.885 4.4,46.675 4.365,46.36 C4.26,46.01 4.54,45.765 4.785,45.66 C5.1,45.695 5.38,45.8 5.625,45.905 C5.905,46.01 6.15,46.15 6.43,46.22 C7.095,46.43 7.9,46.71 8.53,47.2 C9.02,47.585 9.475,48.215 9.335,49.02 C8.985,48.95 8.775,48.775 8.565,48.635 Z M52.805,55.845 L51.895,55.39 C51.545,55.215 51.23,55.04 50.915,54.83 L49.97,54.165 C49.375,53.745 48.78,53.36 48.115,53.15 C48.045,54.515 48.185,55.985 48.185,57.385 C48.185,58.855 48.045,60.325 47.38,61.585 C47.205,61.725 47.065,61.9 46.89,62.075 C46.715,62.215 46.54,62.355 46.33,62.46 C45.875,62.53 45.805,62.32 45.84,62.04 C46.61,60.955 46.89,59.66 46.96,58.26 C47.03,56.895 46.89,54.69 46.89,53.15 C46.82,53.15 46.75,53.22 46.645,53.255 C46.54,53.29 46.33,53.325 46.225,53.08 C46.225,52.66 46.54,52.45 46.82,52.24 C46.995,50.875 46.68,49.65 46.82,48.25 C46.96,47.97 47.17,47.62 47.555,47.48 L48.955,47.62 C49.445,47.62 49.935,47.585 50.355,47.48 C50.915,47.305 51.335,47.06 51.58,46.5 C51.755,45.905 51.685,45.24 51.16,44.855 C50.495,44.505 49.69,44.295 48.815,44.295 C47.38,44.26 45.91,44.645 44.79,45.24 C42.725,46.395 41.22,48.005 40.065,49.86 C39.365,51.015 38.77,52.275 38.245,53.605 C37.72,54.97 37.3,56.405 36.915,57.77 C36.845,57.945 36.74,58.015 36.6,58.085 C36.495,58.155 36.355,58.19 36.215,58.26 C35.935,58.225 35.655,58.19 35.445,57.98 C35.06,57.315 34.955,56.545 34.78,55.81 C34.71,55.565 34.64,55.32 34.535,55.11 C34.43,54.9 34.185,54.795 33.975,54.725 C33.8,54.76 33.625,54.865 33.485,55.005 C33.135,55.25 32.855,55.635 32.575,55.915 L32.12,56.405 C31.7,56.755 31.21,57 30.58,56.72 C30.16,56.475 30.055,56.055 30.09,55.635 C30.09,55.25 30.195,54.795 30.23,54.445 C30.51,53.64 30.895,52.8 31.42,52.065 C32.05,51.155 32.925,50.385 34.045,50.07 C34.115,50.105 34.185,50.105 34.255,50.105 C34.325,50.105 34.395,50.105 34.465,50.14 C34.605,50.14 34.78,50.21 34.815,50.525 C33.8,51.05 32.96,51.785 32.365,52.66 C31.7,53.57 31.315,54.655 31.245,55.74 C31.28,55.775 31.385,55.705 31.455,55.705 L32.26,54.725 C32.54,54.41 32.855,54.095 33.205,53.885 C33.59,53.605 34.045,53.5 34.57,53.64 C35.095,53.92 35.375,54.34 35.585,54.795 L35.865,55.81 C35.935,56.055 35.97,56.3 36.075,56.545 C36.425,55.425 36.81,54.235 37.3,53.08 C37.825,51.855 38.42,50.63 39.12,49.475 C40.835,46.675 43.11,44.33 46.435,43.455 C47.695,43.14 49.34,42.965 50.705,43.42 C51.405,43.665 52.035,44.085 52.49,44.75 C52.84,45.45 52.945,46.5 52.49,47.2 C52.035,47.97 51.37,48.25 50.67,48.53 C50.18,48.67 48.675,48.775 48.045,48.705 L48.045,51.96 C49.165,52.135 50.11,52.8 50.985,53.465 C51.895,54.165 52.77,54.9 53.82,55.32 C53.995,55.425 54.17,55.74 53.82,55.88 C53.47,55.985 53.12,55.95 52.805,55.845 Z M54.1,65.12 C53.085,64.98 52.14,65.015 51.23,65.19 C50.145,65.4 49.095,65.785 48.08,66.24 C48.85,66.765 49.655,67.535 49.655,68.62 C49.655,69.32 49.375,69.985 48.92,70.51 C48.36,71.14 47.695,71.49 46.96,71.595 C46.26,71.7 45.49,71.595 44.755,71.35 C43.915,71.105 43.11,70.615 42.48,69.88 C41.745,69.075 41.255,68.165 40.94,67.185 C40.52,65.75 40.45,64.245 40.625,62.67 C40.695,62.11 41.5,62.18 41.535,62.705 C41.605,64.175 41.745,65.715 42.235,67.08 C42.69,68.375 43.425,69.46 44.825,70.055 C45.21,70.23 45.7,70.405 46.155,70.475 C46.995,70.615 47.695,70.3 48.15,69.845 C48.675,69.25 48.745,68.34 48.01,67.605 C47.695,67.29 47.275,67.045 46.89,66.87 C46.54,66.695 46.26,66.31 46.47,65.82 C46.855,65.295 47.555,65.26 48.08,64.98 C49.095,64.63 50.145,64.28 51.23,64.105 C52.14,63.965 53.085,63.895 53.995,64.07 L54.345,64.245 C54.45,64.315 54.555,64.42 54.59,64.595 C54.695,64.945 54.345,65.05 54.1,65.12 Z M35.69,69.145 C35.76,69.74 35.865,70.37 36.39,70.615 C36.495,70.65 36.565,70.65 36.705,70.58 C36.88,70.475 36.985,70.44 37.195,70.545 C37.265,70.86 37.125,71.105 36.95,71.28 C36.635,71.595 36.04,71.56 35.69,71.455 C34.465,70.58 34.395,69.005 34.605,67.675 C34.78,66.59 35.13,65.54 35.585,64.525 C36.005,63.58 36.53,62.705 37.09,61.865 C37.37,61.27 38.42,61.41 38.175,62.25 C37.405,63.405 36.74,64.63 36.285,65.925 C35.935,66.94 35.725,68.025 35.69,69.145 Z M43.425,55.74 C42.69,57.35 41.885,59.1 40.24,60.22 C39.96,60.36 39.82,60.15 39.855,59.87 C39.96,59.31 40.45,58.82 40.765,58.365 L41.08,57.875 C41.71,56.895 42.095,55.775 42.62,54.76 C43.18,53.745 43.81,52.73 44.755,51.925 C45,51.82 45.21,51.96 45.315,52.135 C44.79,53.395 43.95,54.515 43.425,55.74 Z M75.555,61.235 C75.38,61.305 75.065,61.27 74.89,61.13 C73.98,60.43 73.49,59.345 72.825,58.47 C72.3,57.77 71.705,57.14 70.725,56.895 C70.62,56.58 70.725,56.475 71.11,56.3 C71.67,56.23 72.055,56.3 72.405,56.51 C72.685,56.72 72.965,56.965 73.21,57.315 C73.49,57.665 73.7,58.015 73.98,58.365 C74.575,59.135 75.03,60.01 75.66,60.78 C75.695,61.025 75.625,61.165 75.555,61.235 Z M80.525,55.53 C80.245,58.47 79.685,61.34 78.285,63.755 C77.34,65.33 76.08,66.765 74.4,67.78 C73.665,68.095 72.72,68.305 71.81,68.305 C70.865,68.305 69.99,68.06 69.325,67.465 C68.66,66.87 67.89,66.135 67.89,65.155 C67.89,64.805 68.275,64.805 68.415,64.945 C68.87,65.995 69.64,66.765 70.55,67.115 C71.53,67.5 72.72,67.465 73.84,66.905 C74.995,66.345 75.94,65.4 76.675,64.28 C77.865,62.53 78.6,60.36 78.95,58.645 C79.405,56.44 79.545,54.13 79.405,51.75 C79.3,51.4 79.02,51.085 78.67,50.91 C77.655,50.665 76.675,51.12 75.765,51.435 C75.345,51.575 74.96,51.82 74.61,52.065 C74.225,52.31 73.91,52.52 73.525,52.66 C72.895,52.87 72.37,52.8 71.985,52.52 C71.635,52.24 71.355,51.785 71.32,51.155 C71.32,50.595 71.355,49.125 71.355,47.795 C71.355,47.655 71.18,47.55 71.11,47.655 C69.78,49.125 68.8,50.49 67.925,51.855 C67.085,53.15 66.42,54.445 65.72,55.88 C66.56,56.685 66.91,57.56 67.015,58.54 C67.085,59.415 67.05,60.885 66.735,62.11 C66.455,63.09 65.965,63.86 65.16,64.14 C64.635,64.35 63.865,64.35 63.375,63.895 C63.025,63.545 62.885,62.88 62.955,61.97 C63.06,60.15 63.725,58.4 64.53,56.37 C63.795,56.475 63.515,56.58 63.27,56.72 C62.5,57.245 62.15,58.085 61.94,58.96 C61.625,60.15 61.765,61.55 61.8,62.565 C61.835,63.055 61.835,63.545 61.765,64.07 C61.45,64.35 61.275,64.28 60.89,64.105 C60.33,63.405 59.7,61.97 59.245,60.535 C59.035,59.87 58.965,59.205 58.86,58.61 C58.79,58.05 58.755,57.525 58.685,57.14 C58.615,56.615 58.685,56.09 58.93,55.6 C59.14,55.11 59.56,54.655 60.085,54.34 C60.435,54.095 60.61,54.2 60.68,54.305 C60.785,54.48 60.785,54.76 60.645,54.9 C59.98,55.53 59.56,56.23 59.77,57.245 C59.875,57.77 59.91,58.435 60.085,59.345 C60.19,59.975 60.505,60.92 60.785,61.76 C60.855,60.745 60.96,59.87 61.1,59.065 C61.31,57.945 61.625,57.035 62.045,56.545 C62.605,55.81 63.48,55.355 64.88,55.565 C65.65,53.99 66.49,52.52 67.4,51.12 C68.205,49.86 69.115,48.635 70.095,47.445 C70.375,47.095 70.655,46.885 71.11,46.78 C71.565,46.815 71.915,46.85 72.16,47.165 C72.405,47.445 72.44,47.935 72.44,48.39 L72.44,51.33 C72.545,51.645 72.825,51.82 73.14,51.715 C73.595,51.575 74.05,51.33 74.435,51.085 C74.855,50.84 75.24,50.56 75.555,50.42 C76.255,50 77.165,49.79 78.005,49.755 C78.635,49.72 79.265,49.86 79.755,50.28 C80.49,50.91 80.595,51.785 80.595,52.695 C80.595,53.64 80.595,54.585 80.525,55.53 Z M62.815,52.345 C62.85,52.03 62.955,51.715 63.06,51.47 C63.13,51.33 63.165,51.19 63.165,50.805 C62.395,50.665 61.765,51.015 61.205,51.435 C60.05,52.345 58.86,53.92 58.37,54.655 C58.335,54.655 58.125,54.76 57.845,54.585 C57.565,54.445 57.53,54.34 57.565,54.27 C57.81,53.605 58.405,52.835 59.07,52.1 C59.84,51.26 60.75,50.49 61.45,50.07 C62.185,49.65 63.165,49.545 63.795,49.86 C64.18,50.035 64.425,50.42 64.145,51.015 C63.97,51.435 63.62,51.96 62.815,52.345 Z M65.3,56.825 C64.39,59.205 63.9,60.815 63.97,62.915 C64.075,63.09 64.145,63.195 64.32,63.3 C64.88,63.405 65.335,62.95 65.545,62.425 C65.79,61.83 65.93,60.885 66,59.905 C66.035,58.96 65.965,57.945 65.3,56.825 Z M100.16,52.45 L100.055,52.73 C99.95,52.94 99.845,53.15 99.495,53.15 C99.32,52.66 99.18,52.275 98.725,52.205 C97.185,51.96 95.4,52.205 93.965,52.59 C93.93,53.64 93.895,55.88 93.895,57.21 C95.015,56.475 97.22,55.145 98.34,54.48 C98.585,54.375 98.76,54.585 98.76,54.725 C98.62,55.32 98.06,55.705 97.675,55.985 C96.38,56.86 95.05,57.7 93.825,58.575 L93.65,60.465 C93.58,61.34 93.44,62.215 93.16,62.985 C92.81,64 92.25,64.91 91.34,65.61 C90.955,65.89 90.85,65.505 90.92,65.295 C91.095,64.84 91.445,64.455 91.655,64 C92.285,62.565 92.53,60.92 92.635,59.17 C92.04,59.45 91.445,59.8 90.85,60.115 C90.185,60.465 89.485,60.78 88.715,60.85 L88.295,60.78 C88.155,60.745 87.98,60.675 87.91,60.465 C87.84,60.115 88.05,59.975 88.26,59.905 L88.575,59.835 L88.82,59.73 C90.15,59.17 91.445,58.575 92.705,57.84 C92.705,56.58 92.705,54.27 92.74,53.045 C91.34,53.395 89.94,53.99 88.855,55.145 C88.75,55.355 88.505,55.565 88.225,55.6 C88.015,55.32 88.085,55.075 88.225,54.83 C88.575,54.06 88.96,53.57 89.695,53.115 C90.15,52.8 90.71,52.59 91.27,52.38 C91.795,52.205 92.32,51.995 92.775,51.75 L92.775,50.21 C92.775,49.685 92.845,49.16 93.02,48.67 C93.265,48.39 93.685,48.285 94,48.46 C94.315,48.6 94.875,48.81 95.12,48.88 C95.295,48.88 95.33,49.02 95.295,49.125 C95.295,49.265 95.19,49.37 95.05,49.44 C94.84,49.51 94.63,49.475 94.385,49.51 C94.21,49.545 94.105,49.615 94.07,49.825 C94.035,50.245 94,51.015 94,51.4 C94.63,51.33 95.295,51.155 95.995,51.05 C96.66,50.98 97.36,50.875 98.06,50.875 C98.76,50.91 99.425,51.015 100.02,51.435 C100.125,51.54 100.195,51.68 100.23,51.785 C100.265,51.855 100.265,51.925 100.3,51.96 C100.3,52.03 100.335,52.065 100.37,52.205 C100.265,52.31 100.195,52.38 100.16,52.45 Z M89.695,47.34 L89.31,47.69 C89.065,47.935 88.89,48.145 88.785,48.425 C88.155,50.245 87.63,52.1 87.245,53.99 C86.72,56.44 86.405,58.96 86.44,61.655 C86.335,61.795 86.125,61.9 85.915,61.795 C85.565,61.235 85.39,60.535 85.39,59.87 C85.425,57.7 85.705,55.565 86.125,53.535 C86.51,51.75 87.035,50 87.595,48.32 C87.665,48.18 87.735,47.97 87.84,47.795 C88.05,47.235 88.4,46.64 89.1,46.535 C89.415,46.5 89.765,46.535 90.045,46.92 C89.94,47.13 89.8,47.235 89.695,47.34 Z M100.3,64.665 C96.975,66.38 93.475,67.64 89.8,68.445 C89.205,68.515 88.4,68.55 87.945,68.095 C87.805,67.92 87.595,67.5 87.945,67.36 C89.205,67.465 90.325,67.255 91.41,66.94 C92.495,66.625 93.545,66.205 94.63,65.855 C96.73,65.225 98.725,64.28 100.65,63.23 C100.79,63.125 100.93,62.95 101.07,62.81 C101.175,62.67 101.35,62.495 101.595,62.425 C101.875,62.565 101.84,62.88 101.805,63.055 C101.595,63.895 100.93,64.35 100.3,64.665 Z M117.415,52.38 C116.4,52.66 115.385,52.975 114.405,53.395 C113.95,54.2 113.775,55.11 113.74,56.125 C114.545,55.74 115.525,55.53 116.47,55.67 C117.135,55.775 117.835,56.055 118.22,56.65 C118.57,57.175 118.64,57.84 118.675,58.435 C118.99,58.61 119.34,58.785 119.48,59.135 C119.55,59.31 119.585,59.73 119.235,59.835 C119.025,59.73 118.745,59.59 118.535,59.45 C118.325,60.185 117.905,60.885 117.345,61.48 C116.82,62.075 116.155,62.53 115.455,62.775 C114.895,62.985 114.195,62.915 113.705,62.635 L113.705,62.915 C113.705,63.09 113.67,63.3 113.495,63.475 C113.18,63.475 112.935,63.3 112.795,63.02 C112.62,62.32 112.55,61.585 112.515,60.815 L112.445,58.575 C112.515,57.77 112.55,56.895 112.655,56.09 C112.76,55.355 112.865,54.62 113.145,53.955 C111.115,54.83 109.12,55.81 107.16,56.86 C106.845,56.895 106.6,56.685 106.635,56.405 C106.705,56.09 106.845,55.845 107.02,55.6 C109.12,54.585 111.22,53.64 113.355,52.73 C114.405,51.89 115.385,50.84 116.26,49.79 C115.875,50.035 115.49,50.28 115.07,50.42 C114.65,50.525 114.265,50.525 113.88,50.35 C113.355,50 113.215,49.51 113.18,48.95 C113.145,48.565 113.32,47.55 113.495,47.025 C112.305,47.41 111.045,47.935 109.855,48.425 C109.575,48.46 109.33,48.355 109.085,48.25 C108.84,48.11 108.7,47.69 108.945,47.515 C109.855,47.2 110.695,46.85 111.57,46.535 C112.48,46.22 113.355,45.94 114.335,45.765 C114.58,45.73 114.86,45.8 115,46.15 C114.86,46.78 114.545,47.34 114.37,47.9 C114.3,48.355 114.125,48.88 114.265,49.16 C114.37,49.335 114.615,49.44 115.105,49.3 C115.91,48.88 116.75,48.355 117.485,47.69 C118.185,47.095 118.78,46.395 119.27,45.625 C119.515,45.555 119.9,45.59 120.04,45.905 C120.005,46.36 119.83,46.745 119.62,47.06 C118.465,48.705 116.995,50.42 115.455,51.89 C116.89,51.435 118.43,50.98 119.97,50.595 C120.145,50.63 120.46,50.735 120.565,50.84 C120.705,50.98 120.74,51.33 120.565,51.47 C119.515,51.82 118.465,52.065 117.415,52.38 Z M126.935,68.165 C126.235,67.395 125.57,66.695 124.87,66.135 C124.31,65.645 123.715,65.26 123.085,64.91 C122.35,65.05 121.79,65.33 121.16,65.68 C120.635,65.995 119.69,66.66 119.06,67.045 C119.62,67.15 120.145,67.29 120.635,67.535 C121.125,67.78 121.37,68.025 121.475,68.375 C121.58,68.655 121.58,69.005 121.3,69.46 C120.88,70.195 120.285,70.72 119.62,71.14 C118.605,71.735 117.415,72.085 116.225,72.505 C115.525,72.75 114.79,72.89 114.055,72.925 C113.145,72.96 112.27,72.75 111.675,72.26 C111.08,71.805 110.73,71.105 110.765,70.125 C110.8,69.425 110.905,68.375 110.87,67.57 C109.435,68.69 108.21,69.74 106.775,71.14 C106.565,71.35 106.18,71.245 106.04,71.035 C105.935,70.86 106.04,70.65 106.11,70.475 C107.125,69.355 108.21,68.235 109.855,66.94 C111.78,65.435 113.915,64 115.14,63.37 C115.315,63.265 115.525,63.37 115.63,63.51 C115.77,63.685 115.77,63.93 115.525,64.105 C114.3,64.91 112.97,65.855 111.78,66.8 C111.99,67.325 111.99,67.885 111.99,68.445 C111.955,69.04 111.885,69.6 111.92,70.195 C111.955,70.895 112.27,71.56 112.97,71.63 C114.125,71.77 115.245,71.63 116.295,71.315 C117.38,71 118.395,70.51 119.41,69.915 C120.075,69.53 120.425,69.11 120.355,68.725 C120.32,68.445 120.005,68.13 119.375,67.92 C118.92,67.815 118.465,67.745 118.045,67.675 C117.555,67.71 116.995,67.78 116.47,67.78 C115.945,67.78 115.42,67.71 115,67.465 C114.685,67.325 114.965,66.52 115.35,66.555 C115.805,66.59 116.365,66.625 116.925,66.625 C117.52,66.625 118.115,66.59 118.605,66.345 C119.165,66.065 120.18,65.33 121.02,64.735 C121.72,64.21 122.49,63.79 123.435,63.79 C124.135,64.175 124.835,64.63 125.465,65.155 C126.2,65.75 126.9,66.45 127.495,67.22 C127.6,67.395 127.6,67.675 127.53,67.885 C127.46,68.095 127.11,68.41 126.935,68.165 Z M116.26,44.68 C114.895,43.91 113.565,43.35 111.675,43 C111.36,42.86 111.465,42.475 111.57,42.265 C111.71,42.055 112.025,41.985 112.34,42.02 C112.935,42.055 113.635,42.265 114.335,42.545 C115.385,42.965 116.365,43.56 117.1,44.015 C117.31,44.365 117.275,44.61 117.17,44.75 C116.995,44.89 116.645,44.89 116.26,44.68 Z M117.1,57.14 C116.785,56.86 116.225,56.72 115.77,56.72 C115,56.72 114.195,57.035 113.635,57.42 C113.635,58.085 113.635,58.89 113.6,59.415 C114.755,58.61 116.015,58.19 117.45,58.19 C117.45,57.77 117.415,57.42 117.1,57.14 Z M113.705,60.745 C113.67,60.92 113.635,61.305 113.67,61.515 C114.055,61.865 114.72,61.865 115.245,61.725 C115.735,61.515 116.225,61.2 116.575,60.815 C116.995,60.395 117.275,59.87 117.38,59.31 C116.085,59.345 114.615,59.87 113.705,60.745 Z M152.94,68.41 C152.66,68.69 152.31,68.9 152.065,69.075 C151.12,69.74 150.035,70.195 148.88,70.405 C147.48,70.65 146.01,70.545 144.75,70.02 C142.65,69.145 140.76,67.64 139.185,65.89 C137.75,67.815 135.685,69.145 133.55,69.845 C133.305,69.95 133.165,69.565 133.375,69.46 C135.265,68.48 137.225,66.905 138.485,65.015 C138.24,64.735 137.995,64.385 137.75,64.07 L137.085,63.02 C136.665,62.32 136.21,61.62 135.44,60.955 C135.825,60.78 136.07,60.85 136.385,61.06 L136.665,61.2 C137.19,61.62 137.575,62.145 137.925,62.67 C138.275,63.16 138.625,63.65 139.045,64.035 C139.675,62.775 139.815,61.27 139.85,59.73 C139.57,59.835 139.325,59.975 139.045,60.15 L138.03,60.71 C137.785,60.745 137.365,60.71 137.295,60.325 C137.26,60.115 137.33,59.94 137.435,59.835 C137.505,59.73 137.61,59.66 137.68,59.59 L137.715,59.59 C135.79,56.02 133.76,52.52 131.625,49.02 C131.625,48.705 131.66,48.32 132.045,48.285 C132.395,48.285 132.605,48.46 132.745,48.67 C134.25,51.155 135.72,53.675 136.945,55.985 C137.715,55.495 139.185,54.655 140.025,54.2 C140.095,53.43 140.095,52.1 140.06,51.365 C138.975,51.855 137.82,52.38 136.84,53.36 C136.56,53.15 136.945,52.205 137.05,52.03 C137.4,51.505 138.065,51.085 138.66,50.77 C138.94,50.595 139.675,50.21 140.095,50 C140.13,49.65 140.06,49.23 140.06,48.845 C140.06,48.425 140.095,48.04 140.41,47.655 C140.69,47.655 140.865,47.935 140.97,48.075 C141.11,48.565 141.18,49.125 141.215,49.65 C142.545,49.3 144.435,49.09 145.765,49.825 C146.43,50.21 146.815,50.91 146.815,51.645 C146.71,52.38 146.5,53.01 146.255,53.675 C146.045,54.305 145.765,54.9 145.52,55.565 C145.24,56.055 144.995,56.58 144.68,57.105 C144.4,57.63 144.085,58.155 143.665,58.645 C143.49,58.855 143.28,58.925 143.105,58.855 C142.93,58.785 142.86,58.575 142.965,58.4 C143.105,58.12 143.245,57.84 143.42,57.595 L143.665,57.105 C142.79,57.735 141.95,58.4 141.005,59.03 C140.935,59.695 140.935,60.605 140.795,61.655 C140.655,62.705 140.41,63.825 139.815,64.875 C141.18,66.59 142.93,67.955 144.785,68.83 C146.255,69.495 147.795,69.53 149.265,69.18 C150.84,68.83 152.275,67.99 153.465,66.87 C153.78,66.87 153.745,67.29 153.675,67.5 C153.5,67.85 153.255,68.165 152.94,68.41 Z M145.065,50.77 C143.805,50.315 142.475,50.525 141.25,50.945 C141.25,51.61 141.215,52.835 141.215,53.64 C142.58,53.045 144.085,52.485 145.59,52.17 C145.8,51.575 145.415,51.05 145.065,50.77 Z M143.945,46.43 L143.735,46.29 C143.665,46.255 143.595,46.185 143.525,46.185 C141.635,45.31 139.15,45.31 136.98,45.555 L136.455,45.485 C136.28,45.45 136.07,45.38 135.93,45.17 C135.895,44.785 136.28,44.47 136.56,44.4 C138.8,44.225 141.39,44.225 143.455,45.065 C143.91,45.31 144.575,45.8 144.575,46.5 C144.295,46.605 144.12,46.535 143.945,46.43 Z M141.145,54.935 C141.145,55.635 141.11,56.93 141.075,57.63 C141.635,57.315 142.195,56.93 142.755,56.51 L144.575,55.145 C144.75,54.725 145.03,53.99 145.17,53.465 C143.77,53.85 142.44,54.305 141.145,54.935 Z M137.575,56.93 C137.855,57.525 138.415,58.47 138.695,59.065 C139.08,58.855 139.57,58.54 139.85,58.365 L139.99,55.53 C139.15,55.95 138.38,56.44 137.575,56.93 Z M167.57,50.035 C167.36,50.21 167.15,50.35 166.975,50.56 C166.59,50.805 165.995,51.33 165.68,51.61 C165.925,53.115 165.82,54.515 165.435,55.81 C165.015,57.28 164.245,58.61 163.195,59.8 C163.3,59.975 163.44,60.15 163.58,60.325 C163.72,60.5 163.895,60.675 164.035,60.885 C164.315,61.235 164.595,61.655 164.63,62.18 C164.525,62.355 164.35,62.39 164.21,62.355 C164.105,62.355 164,62.285 163.895,62.285 L162.425,60.605 C161.515,61.41 160.85,61.9 159.73,62.32 C158.925,62.6 158.085,62.67 157.14,62.285 C156.685,61.97 156.16,61.515 156.09,60.92 C155.985,59.835 156.58,58.995 157.21,58.225 L158.19,57 C158.505,56.615 158.785,56.265 159.1,55.985 C158.295,54.55 157.105,52.555 156.475,51.4 C156.37,51.26 156.405,51.12 156.475,51.015 C156.545,50.91 156.65,50.84 156.755,50.77 C157,50.77 157.21,50.875 157.455,50.945 C158.225,52.38 159.065,53.745 159.94,55.11 C161.41,53.745 162.915,52.485 164.525,51.365 L164.455,51.155 C164.35,50.805 164.175,50.49 164.455,50.14 C164.805,50.14 164.98,50.35 165.225,50.595 L165.365,50.735 C165.785,50.49 166.135,50.175 166.52,49.86 C166.94,49.545 167.36,49.23 167.815,49.055 C168.095,48.95 168.2,49.265 168.13,49.44 C167.99,49.685 167.78,49.895 167.57,50.035 Z M182.13,58.785 C180.87,58.75 180.03,58.785 178.805,58.995 C179.225,60.15 178.945,61.9 177.3,64.28 C176.425,65.54 175.34,66.695 174.08,67.57 C173.1,68.235 172.05,68.69 170.825,68.795 C170.055,68.865 169.355,68.515 168.795,68.06 C168.235,67.57 167.745,66.94 167.36,66.345 C167.325,66.205 167.185,65.785 167.115,65.435 C167.465,65.33 167.64,65.435 167.815,65.68 L167.955,65.855 C168.305,66.31 168.725,66.8 169.18,67.15 C169.635,67.535 170.125,67.745 170.755,67.675 C171.77,67.57 172.75,67.15 173.59,66.485 C175.095,65.33 176.39,63.615 177.23,62.18 C177.755,61.305 178.035,60.15 177.58,59.24 C173.625,59.625 171.315,60.605 167.675,62.11 L167.36,62.005 C167.255,61.97 167.15,61.865 167.08,61.69 C167.08,61.27 167.465,61.025 167.745,60.85 C170.86,59.45 173.8,58.61 177.09,58.155 C176.775,57.805 176.46,57.525 176.145,57.21 C175.76,56.825 175.375,56.475 175.13,56.09 C174.71,55.46 174.465,54.76 174.815,53.92 C175.13,53.22 175.515,52.555 175.865,51.89 C176.18,51.225 176.425,50.525 176.46,49.79 C175.83,48.39 174.255,47.655 172.82,47.305 C171.875,47.06 170.86,47.34 170.16,47.97 C169.985,48.075 169.74,48.145 169.495,48.075 C169.25,47.9 169.25,47.62 169.39,47.445 C170.16,46.185 171.665,45.905 172.995,46.15 C174.465,46.43 175.83,47.165 177.02,48.25 C177.51,48.985 177.93,49.86 177.58,50.805 C177.02,52.205 175.9,53.36 175.69,54.9 C175.795,55.355 176.04,55.67 176.39,55.95 C176.985,56.44 177.72,57.105 178.35,57.98 C179.015,57.91 179.68,57.805 180.38,57.7 C181.045,57.63 181.78,57.63 182.445,57.98 C182.9,58.33 182.48,58.785 182.13,58.785 Z M160.57,56.09 C161.165,57.07 161.83,58.015 162.53,58.82 C163.3,57.875 163.93,56.825 164.315,55.705 C164.665,54.655 164.805,53.57 164.7,52.38 C163.265,53.57 161.83,54.725 160.57,56.09 Z M159.695,56.965 C158.925,57.805 158.4,58.33 157.875,59.275 L157.42,60.08 C157.315,60.36 157.28,60.605 157.385,60.885 C157.525,61.27 157.91,61.34 158.26,61.48 C159.73,61.27 160.64,60.78 161.655,59.73 C160.99,58.82 160.325,57.91 159.695,56.965 Z M203.76,50.77 L203.62,50.875 C203.445,51.015 203.27,51.12 203.06,50.98 C202.885,50.56 202.535,50.455 202.08,50.455 C201.45,50.42 200.015,50.56 199.455,50.735 C199.385,52.765 199.525,54.935 199.35,56.93 C199.28,57.665 199.07,59.45 198.615,60.08 C198.44,60.325 198.02,60.29 197.95,59.975 C198.3,57.105 198.405,54.095 198.265,51.12 C197.81,51.225 197.39,51.47 196.9,51.75 C195.64,52.52 194.38,54.97 193.33,57.595 C192.21,60.43 191.3,63.51 190.88,64.945 L190.74,65.05 C190.565,65.155 190.425,65.19 190.215,65.12 L189.865,64.63 C189.725,61.795 190.145,59.205 190.39,56.51 C190.425,56.09 190.18,55.81 190.075,55.46 C190.005,55.355 189.97,55.215 189.97,55.04 C190.075,54.83 190.25,54.83 190.39,54.83 L190.6,54.935 L190.67,54.935 C191.16,55.18 191.405,55.565 191.44,56.02 C191.475,56.3 191.44,56.615 191.44,56.93 C191.44,57.21 191.405,57.525 191.405,57.77 C191.23,59.1 191.055,60.36 191.055,61.69 C192.035,58.505 193.295,55.46 195.01,52.59 C195.745,51.33 196.97,50.315 198.3,49.895 L198.51,48.6 C198.58,48.18 198.755,47.725 199,47.27 C199.35,47.27 199.77,47.34 199.805,47.725 C199.805,48.04 199.735,48.355 199.665,48.67 L199.525,49.475 C200.33,49.44 201.275,49.23 202.15,49.265 C202.85,49.3 203.515,49.545 203.935,50.105 C204.075,50.35 203.935,50.665 203.76,50.77 Z M214.015,53.64 C213.735,53.745 213.56,53.57 213.455,53.465 L213.35,53.36 C213.28,53.29 213.175,53.22 213.07,53.22 C212.685,53.045 212.265,52.975 211.845,52.94 C211.425,52.94 210.97,52.94 210.55,52.905 C209.71,52.835 208.905,52.765 208.24,52.065 C207.855,51.645 207.54,51.155 207.4,50.665 C206.665,52.625 205.335,56.16 204.705,57.91 C203.725,60.535 202.43,63.02 201.345,65.61 C201.205,65.855 200.855,66.1 200.505,65.89 C200.365,65.855 200.295,65.75 200.26,65.68 C200.26,65.61 200.26,65.575 200.225,65.54 C200.225,65.505 200.225,65.47 200.19,65.4 C200.4,64.21 200.89,63.09 200.715,61.83 C200.715,61.725 200.54,61.585 200.365,61.515 C200.19,61.515 200.015,61.48 199.875,61.515 C199.735,61.515 199.595,61.585 199.49,61.725 C199.105,62.215 198.93,62.81 198.755,63.475 C198.615,64.105 198.475,64.805 198.3,65.435 C198.125,65.68 197.88,65.855 197.495,65.82 C196.655,64.945 196.025,64 195.465,63.02 C194.905,62.04 194.45,60.99 193.995,59.975 C193.89,59.8 193.855,59.38 194.275,59.31 C194.8,59.52 195.15,60.08 195.395,60.535 C195.78,61.165 196.095,61.83 196.445,62.495 C196.76,63.09 197.11,63.685 197.495,64.245 C197.565,64.14 197.6,63.965 197.635,63.79 L197.81,63.055 C198.16,62.04 198.72,60.78 199.91,60.395 C200.295,60.29 200.61,60.395 200.96,60.57 C201.03,60.64 201.135,60.675 201.24,60.745 C201.695,61.13 201.73,61.655 201.8,62.215 C203.76,57.98 205.615,53.71 206.91,49.195 C206.98,48.985 206.98,48.74 207.015,48.495 C207.085,48.285 207.12,48.04 207.365,47.795 C207.715,47.76 208.1,47.795 208.24,48.25 C208.1,49.545 208.345,50.98 209.535,51.61 C209.955,51.785 210.445,51.82 210.935,51.82 C211.425,51.82 211.915,51.785 212.37,51.855 C213.07,51.925 213.7,52.24 214.085,53.01 C214.12,53.15 214.155,53.43 214.015,53.64 Z M214.54,68.9 C213.63,69.005 212.93,68.62 212.23,68.165 C211.11,67.395 209.745,66.065 208.765,65.12 C207.89,66.695 206.21,67.815 204.53,68.06 C204.145,68.025 203.69,67.815 203.725,67.29 C205.545,67.185 207.225,65.82 207.96,64.245 C207.365,63.58 206.7,62.915 205.93,62.6 C205.65,62.46 205.475,62.46 205.3,62.6 C205.055,62.775 204.88,62.95 204.67,63.125 C204.46,63.265 204.215,63.37 203.83,63.3 C203.83,62.565 204.495,62.005 205.02,61.62 C205.72,61.34 206.35,61.515 206.91,61.83 C207.435,62.145 207.925,62.6 208.345,63.055 C208.66,62.11 208.73,61.13 208.8,60.115 C208.87,59.31 208.94,58.505 209.045,57.735 C209.185,56.965 209.36,56.23 209.745,55.53 C209.92,55.39 210.095,55.215 210.27,55.11 C210.48,54.97 210.725,54.9 211.11,54.97 C210.445,55.845 210.235,56.685 210.13,57.63 C210.025,58.645 210.06,59.765 209.885,60.745 C209.78,61.34 209.71,61.9 209.64,62.46 C209.57,62.985 209.465,63.51 209.255,64 C210.55,65.4 211.915,66.59 213.35,67.64 C213.77,67.85 214.26,68.06 214.68,67.815 C214.855,67.675 214.89,67.5 215.03,67.325 C215.065,67.255 215.1,67.22 215.275,67.115 C215.485,67.43 215.52,67.815 215.45,68.13 C215.24,68.515 214.855,68.725 214.54,68.9 Z M186.225,60.395 C186.085,60.675 185.84,60.78 185.56,60.78 C185.28,60.605 185.28,60.185 185.315,59.835 C186.505,56.86 188.185,53.955 190.04,51.295 C190.635,50.455 191.37,49.65 192.28,49.16 C192.735,49.055 192.805,49.615 192.665,49.965 C191.195,51.575 189.97,53.29 188.92,55.04 C187.905,56.755 187.03,58.575 186.225,60.395 Z M222.695,48.985 L222.45,50.07 C222.065,51.715 222.03,53.43 222.03,55.145 C221.995,57.665 222.17,60.22 222.415,62.635 C222.345,62.985 222.31,63.37 221.89,63.44 C221.47,62.95 221.365,62.39 221.295,61.865 C221.015,59.31 220.84,56.685 220.91,54.095 C220.98,52.065 221.225,50.035 221.715,48.075 C221.785,47.935 221.89,47.55 222.24,47.48 C222.45,47.445 222.8,47.515 222.905,47.83 C222.87,48.215 222.8,48.6 222.695,48.985 Z M223.71,71.105 C222.485,70.72 221.61,69.425 221.295,68.305 C221.26,67.92 221.365,67.64 221.68,67.465 C222.03,67.395 222.275,67.71 222.345,67.92 C222.45,68.305 222.625,68.62 222.835,68.97 C223.255,69.565 223.71,70.09 224.13,70.685 C224.165,70.93 223.885,71.14 223.71,71.105 Z" id="让您的生意更好做！"></path>
                </g>
            </g>
        </g>
    </g>
</svg>