<?xml version="1.0" encoding="UTF-8"?>
<svg width="78px" height="78px" viewBox="0 0 78 78" version="1.1" xmlns="http://www.w3.org/2000/svg" xmlns:xlink="http://www.w3.org/1999/xlink">
    <!-- Generator: Sketch 49.2 (51160) - http://www.bohemiancoding.com/sketch -->
    <title>019</title>
    <desc>Created with Sketch.</desc>
    <defs>
        <path d="M5.719,0.205090909 L0.523115385,3.75818182 C0.277576923,3.92618182 0.133269231,4.18881818 0.133269231,4.46863636 C0.133269231,4.74790909 0.277576923,5.01163636 0.523115385,5.17909091 L5.719,8.73190909 C5.9255,8.87318182 6.18530769,8.93427273 6.44161538,8.90045455 C6.69711538,8.86745455 6.92784615,8.74281818 7.08319231,8.55436364 C7.238,8.36618182 7.30503846,8.12918182 7.26815385,7.89572727 C7.23153846,7.66309091 7.09476923,7.45227273 6.88826923,7.311 L4.03038462,5.35663636 L12.7986923,5.35663636 C13.3368846,5.35663636 13.7730385,4.95927273 13.7730385,4.46863636 C13.7730385,3.978 13.3368846,3.58036364 12.7986923,3.58036364 L4.03038462,3.58036364 L6.88826923,1.626 C7.31876923,1.332 7.406,0.774818182 7.08319231,0.382909091 C6.89203846,0.15 6.59938462,0.0275454545 6.30323077,0.0275454545 C6.09969231,0.0275454545 5.89426923,0.0853636364 5.719,0.205090909 Z" id="path-1"></path>
    </defs>
    <g id="Page-1" stroke="none" stroke-width="1" fill="none" fill-rule="evenodd">
        <g id="移动端-招商加盟" transform="translate(-149.000000, -742.000000)">
            <g id="Group-4-Copy" transform="translate(149.000000, 742.000000)">
                <g id="Group-5">
                    <g id="Group-2-Copy-4" fill="#E6F3FF">
                        <circle id="Oval-2" cx="39" cy="39" r="39"></circle>
                    </g>
                    <g id="Page-1" transform="translate(18.000000, 20.000000)">
                        <g id="Group-7" fill="#58B2FF">
                            <path d="M17.6659509,2.09126357 C9.08282209,2.09126357 2.10009202,9.13717071 2.10009202,17.798235 C2.10009202,26.4590207 9.08282209,33.5052064 17.6659509,33.5052064 C26.2488037,33.5052064 33.2318098,26.4590207 33.2318098,17.798235 C33.2318098,9.13717071 26.2488037,2.09126357 17.6659509,2.09126357 M17.6659509,35.5563279 C7.96196319,35.5563279 0.0670858896,27.5900207 0.0670858896,17.798235 C0.0670858896,8.00617071 7.96196319,0.0401421429 17.6659509,0.0401421429 C27.3699387,0.0401421429 35.264816,8.00617071 35.264816,17.798235 C35.264816,27.5900207 27.3699387,35.5563279 17.6659509,35.5563279" id="Fill-1"></path>
                            <path d="M24.7156564,19.318065 L18.8963006,19.318065 L18.8963006,15.3286436 L23.0164233,15.3286436 C23.3029877,15.3286436 23.5710552,15.215265 23.7709325,15.0094007 C23.9688773,14.805765 24.0748896,14.5363864 24.0693681,14.2592079 C24.0693681,13.6694721 23.5942454,13.1897721 23.0095215,13.1897721 L20.379092,13.1897721 L24.2706258,9.26302929 C24.4763006,9.06078643 24.5894908,8.790015 24.5892147,8.50030071 C24.5892147,8.210865 24.4760245,7.94037214 24.2742147,7.74230786 C23.8595521,7.32445071 23.1856564,7.32417214 22.7709939,7.74230786 L17.8229264,12.7354221 L12.9085399,7.77657214 C12.4938773,7.35815786 11.8194294,7.35843643 11.4050429,7.77657214 C11.1999202,7.98355071 11.0883865,8.25655071 11.090319,8.54487214 C11.0919755,8.83012929 11.2051656,9.09727929 11.4050429,9.29339357 L15.2617914,13.1897721 L12.6633865,13.1897721 C12.0750736,13.1897721 11.596638,13.6694721 11.596638,14.2592079 C11.596638,14.8489436 12.0750736,15.3286436 12.6633865,15.3286436 L16.7766074,15.3286436 L16.7766074,19.318065 L10.9572515,19.318065 C10.3725276,19.318065 9.89712883,19.797765 9.89712883,20.3875007 C9.89712883,20.9811364 10.3725276,21.4639007 10.9572515,21.4639007 L16.7766074,21.4639007 L16.7766074,29.0683436 C16.7766074,29.6617007 17.2520061,30.144465 17.836454,30.144465 C18.4209018,30.144465 18.8963006,29.6617007 18.8963006,29.0683436 L18.8963006,21.4639007 L24.7156564,21.4639007 C25.3001043,21.4639007 25.7757791,20.9811364 25.7757791,20.3875007 C25.7757791,19.797765 25.3001043,19.318065 24.7156564,19.318065" id="Fill-3"></path>
                            <path d="M44.8331963,27.0756386 C44.8331963,33.6251314 39.5712331,38.9341457 33.0810184,38.9341457 C26.5902515,38.9341457 21.3285644,33.6251314 21.3285644,27.0756386 C21.3285644,20.5261457 26.5902515,15.2171314 33.0810184,15.2171314 C39.5712331,15.2171314 44.8331963,20.5261457 44.8331963,27.0756386" id="Fill-5"></path>
                        </g>
                        <g id="Group-10" transform="translate(26.000000, 23.000000)">
                            <mask id="mask-2" fill="white">
                                <use xlink:href="#path-1"></use>
                            </mask>
                            <g id="Clip-9"></g>
                            <polygon id="Fill-8" fill="#E4F1FA" mask="url(#mask-2)" points="-4.73792308 13.8444545 18.6447692 13.8444545 18.6447692 -4.90745455 -4.73792308 -4.90745455"></polygon>
                        </g>
                    </g>
                </g>
            </g>
        </g>
    </g>
</svg>