<?xml version="1.0" encoding="UTF-8"?>
<svg width="28px" height="28px" viewBox="0 0 28 28" version="1.1" xmlns="http://www.w3.org/2000/svg" xmlns:xlink="http://www.w3.org/1999/xlink">
    <!-- Generator: Sketch 49.2 (51160) - http://www.bohemiancoding.com/sketch -->
    <title>11</title>
    <desc>Created with Sketch.</desc>
    <defs></defs>
    <g id="Page-1" stroke="none" stroke-width="1" fill="none" fill-rule="evenodd">
        <g id="首页" transform="translate(-915.000000, -1885.000000)" fill="#FFFFFF" fill-rule="nonzero">
            <g id="放大-copy" transform="translate(915.000000, 1885.000000)">
                <g id="Group-24">
                    <path d="M0,1.26648835 L0,9.6923109 C0,10.2867483 0.482451756,10.7692308 1.07692308,10.7692308 C1.67139438,10.7692308 2.15384617,10.2867483 2.15384617,9.6923109 L2.15384617,3.61198466 L9.00094767,10.4612181 C9.40369757,10.8639989 10.0563471,10.8639989 10.4612172,10.4612181 C10.8639992,10.0563171 10.8639992,9.40370164 10.4612172,9.00092083 L3.61196332,2.15383974 L9.69230769,2.15383974 C10.2867469,2.15383974 10.7692308,1.67135728 10.7692308,1.07691987 C10.7692308,0.482482463 10.2867469,0 9.69230769,0 L1.26645998,0 C0.480299403,0 0,0.404965303 0,1.26648835 Z" id="Shape"></path>
                    <path d="M26.7335721,0 L18.3076923,0 C17.7132531,0 17.2307692,0.482482463 17.2307692,1.07691987 C17.2307692,1.6713894 17.7132531,2.15383974 18.3076923,2.15383974 L24.3880367,2.15383974 L17.5387828,9.00092083 C17.1360008,9.40366952 17.1360008,10.0563171 17.5387828,10.4612181 C17.943685,10.8639989 18.5963024,10.8639989 18.9990523,10.4612181 L25.8461538,3.61198466 L25.8461538,9.6923109 C25.8461538,10.2867483 26.3286377,10.7692308 26.9230769,10.7692308 C27.5175482,10.7692308 28,10.2867483 28,9.6923109 L28,1.26648835 C28,0.404965303 27.5218851,0 26.7335721,0 Z" id="Shape"></path>
                    <path d="M1.26642787,28 L9.69230768,28 C10.2867469,28 10.7692308,27.5175482 10.7692308,26.9230769 C10.7692308,26.3286056 10.2867469,25.8461538 9.69230768,25.8461538 L3.61196333,25.8461539 L10.4612172,18.9990523 C10.8639993,18.5963024 10.8639993,17.9436529 10.4612172,17.5387828 C10.056315,17.1360008 9.40369759,17.1360008 9.0009477,17.5387828 L2.15384617,24.3880367 L2.15384617,18.3076923 C2.15384617,17.7132531 1.67139442,17.2307692 1.07692309,17.2307692 C0.482451788,17.2307692 0,17.7132531 0,18.3076923 L0,26.7335721 C-3.2115289e-05,27.5950978 0.48026729,28 1.26642787,28 Z" id="Shape"></path>
                    <path d="M28,26.73354 L28,18.3076923 C28,17.7132531 27.5175482,17.2307692 26.9230769,17.2307692 C26.3286377,17.2307692 25.8461538,17.7132531 25.8461538,18.3076923 L25.8461538,24.3880367 L18.9990523,17.5387828 C18.5963024,17.1360008 17.9436529,17.1360008 17.5387828,17.5387828 C17.1360007,17.943685 17.1360007,18.5963024 17.5387828,18.9990523 L24.3880367,25.8461538 L18.3076923,25.8461538 C17.7132531,25.8461538 17.2307692,26.3286056 17.2307692,26.9230769 C17.2307692,27.5175482 17.7132531,28 18.3076923,28 L26.7335721,28 C27.5218851,28 28,27.5950977 28,26.73354 Z" id="Shape"></path>
                </g>
            </g>
        </g>
    </g>
</svg>