<?xml version="1.0" encoding="UTF-8"?>
<svg width="42px" height="45px" viewBox="0 0 42 45" version="1.1" xmlns="http://www.w3.org/2000/svg" xmlns:xlink="http://www.w3.org/1999/xlink">
    <!-- Generator: Sketch 49.2 (51160) - http://www.bohemiancoding.com/sketch -->
    <title>12</title>
    <desc>Created with Sketch.</desc>
    <defs></defs>
    <g id="Page-1" stroke="none" stroke-width="1" fill="none" fill-rule="evenodd">
        <g id="首页" transform="translate(-663.000000, -2605.000000)" fill="#58B2FF" fill-rule="nonzero">
            <g id="用户" transform="translate(663.000000, 2605.000000)">
                <g id="Group-25">
                    <path d="M8,13 C8,20.1797017 13.8202983,26 21,26 C28.1797017,26 34,20.1797017 34,13 C34,5.82029825 28.1797017,4.39629938e-16 21,0 C13.8202983,-4.39629938e-16 8,5.82029825 8,13 Z" id="Shape"></path>
                    <path d="M33.7350706,26.596134 C32.689444,25.7731969 31.1956918,25.8480093 30.2247528,26.8205714 C27.8347491,29.2145703 24.5484941,30.7108195 20.888801,30.7108195 C17.2291078,30.7108195 13.9428528,29.2145703 11.5528492,26.8205714 C10.5819102,25.8480094 9.08815796,25.6983844 8.04253136,26.596134 C4.00940017,30.0375073 1.02189561,34.4514427 0.0509566353,40.5112522 C-0.322481423,42.9800635 1.39533367,45 3.93471255,45 L38.0669523,45 C40.5316435,45 42.3241463,42.9800635 41.9507082,40.5112522 C40.9050816,34.4514426 37.9175771,30.0375073 33.7350706,26.596134 Z" id="Shape"></path>
                </g>
            </g>
        </g>
    </g>
</svg>