<?xml version="1.0" encoding="UTF-8"?>
<svg width="304px" height="109px" viewBox="0 0 304 109" version="1.1" xmlns="http://www.w3.org/2000/svg" xmlns:xlink="http://www.w3.org/1999/xlink">
    <!-- Generator: Sketch 49.2 (51160) - http://www.bohemiancoding.com/sketch -->
    <title>2</title>
    <desc>Created with Sketch.</desc>
    <defs></defs>
    <g id="Page-1" stroke="none" stroke-width="1" fill="none" fill-rule="evenodd">
        <g id="平台优势-copy" transform="translate(-118.000000, -58.000000)">
            <g id="Page-1-Copy-2" transform="translate(118.000000, 58.000000)">
                <g id="Group">
                    <path d="M41.5069639,41.5077068 C36.897565,46.1192659 29.4138667,46.1192659 24.8037472,41.5077068 C20.191466,36.8968683 20.191466,29.413893 24.8037472,24.8037751 C29.4138667,20.1929365 36.897565,20.1929365 41.5069639,24.8037751 C46.1170835,29.413893 46.1170835,36.8968683 41.5069639,41.5077068 Z M62.8520767,20.1633216 C58.2419572,24.7763219 50.7597001,24.7763219 46.1481394,20.1633216 C41.5358583,15.5517625 41.5358583,8.07022844 46.1481394,3.45866933 C50.7575384,-1.15288978 58.2419572,-1.15288978 62.8520767,3.45866933 C67.4636374,8.07022844 67.4636374,15.5524831 62.8520767,20.1633216 Z M62.8520767,46.1483764 C67.4636374,50.7599355 67.4636374,58.2421901 62.8520767,62.850867 C58.2419572,67.4638673 50.7575384,67.4638673 46.1481394,62.850867 C41.5358583,58.2393079 41.5358583,50.7599355 46.1481394,46.1483764 C50.7575384,41.5353762 58.2419572,41.5353762 62.8520767,46.1483764 Z M67.4913788,41.5077068 C62.8812593,36.8968683 62.8812593,29.413893 67.4913788,24.8037751 C72.1022189,20.1929365 79.5837554,20.1929365 84.1967572,24.8037751 C88.8090384,29.413893 88.8090384,36.8968683 84.1967572,41.5077068 C79.5837554,46.1192659 72.1022189,46.1192659 67.4913788,41.5077068 Z M20.995751,61.8307037 L16.7250136,57.5592471 C18.1329807,55.2837309 17.9578855,52.2955847 15.9850022,50.322702 C13.6849863,48.0219664 9.93593163,48.0219664 7.6337541,50.322702 C5.33373823,52.6263199 5.33373823,56.3746528 7.6337541,58.6768296 C9.60591683,60.6475506 12.5926229,60.8219251 14.8688604,59.4161202 L19.141039,63.6861357 C14.5028178,67.388353 7.74904311,67.1455256 3.45813006,62.8510111 C-1.15271002,58.239452 -1.15271002,50.7600796 3.45813006,46.1485205 C8.06897013,41.5355203 15.5505067,41.5355203 20.1613468,46.1485205 C24.4551421,50.4387116 24.6986901,57.1932046 20.995751,61.8307037 Z M41.5069639,67.4916807 C45.8007592,71.7861951 46.0421456,78.5385264 42.3420888,83.1760256 L38.0720718,78.9038484 C39.4785978,76.6283322 39.3035026,73.6423477 37.3313399,71.6680239 C35.3591772,69.6980235 32.3724711,69.5222078 30.095513,70.9294539 L25.8247756,66.6594384 C30.4608351,62.9579417 37.2138892,63.2000485 41.5069639,67.4916807 Z M28.980308,80.021575 C30.950309,81.9937371 33.9384562,82.16595 36.2132526,80.7608656 L40.4839901,85.0308811 C35.8479305,88.7330984 29.0948764,88.4909916 24.8039634,84.1964771 C20.5101681,79.9055655 20.2666201,73.1510725 23.9688386,68.5164556 L28.2395761,72.7843095 C26.8337706,75.0619873 27.0074247,78.049413 28.980308,80.021575 Z M59.4146627,94.1300637 L63.6861207,89.8607687 C67.3868981,94.4953856 67.1440706,101.249879 62.852437,105.54079 C58.2415969,110.15307 50.7593398,110.15307 46.1484997,105.54079 C41.8561456,101.249879 41.6125975,94.4953856 45.3140955,89.8607687 L49.5848329,94.1300637 C48.178307,96.4077415 48.351961,99.3937261 50.3241238,101.365888 C52.6263013,103.668065 56.3731943,103.668065 58.676813,101.365888 C60.6482551,99.3937261 60.8219092,96.4077415 59.4146627,94.1300637 Z M47.169384,88.0039677 C51.4638998,84.5770028 57.5360281,84.5770028 61.830544,88.0039677 L57.559086,92.2754243 C55.6596994,91.1001973 53.3402285,91.1001973 51.440842,92.2754243 L47.169384,88.0039677 Z M71.6669308,71.6679519 C69.6962091,73.6422756 69.5218345,76.6282601 70.9290811,78.9037763 L66.6597847,83.175233 C62.9568456,78.5377338 63.1996731,71.7861231 67.4913067,67.4916087 C71.7843814,63.200697 78.5381561,62.9578696 83.1749362,66.6593664 L78.9041987,70.9301024 C76.6272407,69.5221358 73.639814,69.6979515 71.6669308,71.6679519 Z M80.7590549,72.7843095 L85.0305129,68.5142939 C88.7312903,73.1510725 88.4884628,79.9055655 84.1968292,84.1964771 C79.9051956,88.4909916 73.151421,88.7330984 68.5146408,85.0308811 L72.7860989,80.7608656 C75.0608953,82.16595 78.0490425,81.9944577 80.0204846,80.021575 C81.9919268,78.049413 82.1663014,75.0619873 80.7590549,72.7843095 Z M105.540789,46.1483764 C110.15307,50.7599355 110.15307,58.2421901 105.540789,62.850867 C101.249876,67.1424992 94.4975425,67.3889294 89.8586007,63.6859916 L94.1293382,59.4152555 C96.4055757,60.821781 99.3930023,60.648127 101.365886,58.6766855 C103.666622,56.3745087 103.665181,52.6261758 101.365886,50.3225579 C99.0644286,48.0225428 95.3160945,48.0225428 93.013917,50.3225579 C91.0403131,52.2954406 90.8673796,55.2835868 92.2731851,57.559103 L88.001727,61.8305596 C84.3002291,57.1930604 84.5444977,50.4385675 88.8368518,46.1483764 C93.4469713,41.5353762 100.93139,41.5353762 105.540789,46.1483764 Z M9.49005136,52.1805839 C10.7697594,50.9001557 12.8507262,50.9001557 14.1304343,52.1805839 C15.4108629,53.4624532 15.4108629,55.5398165 14.1304343,56.8202447 C12.8507262,58.0992318 10.7697594,58.1006729 9.49005136,56.8209653 C8.2117844,55.5398165 8.2117844,53.4624532 9.49005136,52.1805839 Z M34.3471558,78.8932562 C33.1690462,79.3544121 31.7848574,79.1173492 30.8351641,78.1654946 C29.886912,77.215081 29.6462462,75.8280105 30.1059611,74.6535041 C30.2666452,74.2377432 30.5051493,73.8536868 30.8351641,73.5251132 C31.1651789,73.1943779 31.5477944,72.9558739 31.9635554,72.796631 C33.1409445,72.3369162 34.5265743,72.5754202 35.4748265,73.5251132 C36.4259609,74.4740856 36.6637444,75.8604356 36.2033089,77.0363831 C36.044066,77.4507029 35.8041207,77.8354799 35.4762676,78.1654946 C35.1448117,78.4947887 34.7614757,78.7354544 34.3471558,78.8932562 Z M78.1638991,73.5249691 C78.4953551,73.8542632 78.7324181,74.2375991 78.8938227,74.65336 C79.3535377,75.8278664 79.114313,77.2156575 78.1638991,78.1653504 C77.215647,79.1172051 75.8292966,79.354268 74.6519075,78.8931121 C74.2390287,78.7353103 73.8542516,78.4946446 73.5242368,78.1653504 C73.194222,77.8353357 72.9549973,77.4505588 72.7964749,77.036239 C72.3353188,75.8602914 72.573823,74.4739415 73.5263985,73.5249691 C74.4746506,72.5745556 75.8595599,72.3374926 77.036949,72.7964869 C77.4498278,72.9557298 77.8367666,73.1949544 78.1638991,73.5249691 Z M99.510381,56.8212535 C98.2306729,58.1002406 96.1489856,58.09952 94.8678364,56.8205329 C93.59029,55.5393842 93.59029,53.4620209 94.8678364,52.1808721 C96.1489856,50.8997234 98.2306729,50.8997234 99.510381,52.1808721 C100.787927,53.4620209 100.788648,55.5393842 99.510381,56.8212535 Z M53.3082358,94.1417367 C54.4849043,93.6805808 55.8705342,93.9198054 56.8195069,94.87166 C57.7684796,95.8206324 58.0077043,97.2033796 57.5487099,98.3807683 C57.389467,98.7950881 57.1502423,99.1777033 56.820948,99.5091592 C56.4894921,99.8391739 56.1054356,100.079119 55.6925568,100.238362 C54.5151677,100.698797 53.1288173,100.460293 52.1798446,99.5091592 C51.2294308,98.5594662 50.9909266,97.176719 51.4513621,95.9986098 C51.6113256,95.58429 51.8498298,95.1987925 52.1798446,94.87166 C52.5091388,94.5387631 52.895357,94.300259 53.3082358,94.1417367 Z" id="Combined-Shape" fill="#58B2FF"></path>
                    <path d="M135.848713,53.8496166 C135.848713,51.5928692 137.576952,49.7583906 139.703006,49.7583906 L144.63909,49.7583906 L144.63909,58.2416094 L135.848713,58.2416094 L135.848713,53.8496166 Z M150.063998,58.2416094 L158.855313,58.2416094 L158.855313,49.7573947 L150.063998,49.7573947 L150.063998,58.2416094 Z M173.072475,53.8496166 L173.072475,58.2416094 L164.281159,58.2416094 L164.281159,49.7583906 L169.217244,49.7583906 C171.344236,49.7583906 173.072475,51.5928692 173.072475,53.8496166 Z M180.286608,58.2416094 L178.497383,58.2416094 L178.497383,53.8496166 C178.497383,48.4188826 174.333471,44 169.217244,44 L139.703006,44 C134.586779,44 130.423805,48.4188826 130.423805,53.8496166 L130.423805,58.2416094 L128.712454,58.2416094 C127.215022,58.2416094 126,59.5313216 126,61.1208047 C126,62.7112837 127.215022,64 128.712454,64 L180.286608,64 C181.784978,64 183,62.7112837 183,61.1208047 C183,59.5313216 181.784978,58.2416094 180.286608,58.2416094 Z" id="Fill-176" fill="#000000"></path>
                    <path d="M131.713958,20.4139118 C130.215177,20.4139118 129,19.1452562 129,17.5805157 C129,16.0147948 130.215177,14.7461392 131.713958,14.7461392 L142.332202,14.7461392 C142.376339,13.2225761 143.567099,12 145.037708,12 C146.508316,12 147.698138,13.2225761 147.744153,14.7461392 L162.256786,14.7461392 C162.302801,13.2225761 163.493562,12 164.963231,12 C166.434779,12 167.6246,13.2225761 167.669677,14.7461392 L178.286042,14.7461392 C179.784823,14.7461392 181,16.0147948 181,17.5805157 C181,19.1452562 179.784823,20.4139118 178.286042,20.4139118 L167.669677,20.4139118 C167.6246,21.9384553 166.434779,23.1610314 164.963231,23.1610314 C163.492623,23.1610314 162.301862,21.9384553 162.256786,20.4139118 L147.744153,20.4139118 C147.699077,21.9384553 146.509255,23.1610314 145.037708,23.1610314 C143.567099,23.1610314 142.376339,21.9384553 142.332202,20.4139118 L131.713958,20.4139118 Z M176.137132,25.47922 C177.636852,25.47922 178.852029,26.7478755 178.852029,28.312616 C178.852029,29.878337 177.636852,31.1469925 176.137132,31.1469925 L165.169548,31.1469925 C162.63026,31.1469925 160.571784,33.2960597 160.571784,35.9461184 L160.571784,38.847163 C160.571784,40.4128839 159.356607,41.6815394 157.856887,41.6815394 C156.358106,41.6815394 155.14199,40.4128839 155.14199,38.847163 L155.14199,35.9470988 C155.14199,30.1655982 159.631759,25.47922 165.168609,25.47922 L176.137132,25.47922 Z M130.902306,27.469264 C130.902306,25.9035431 132.117483,24.6348876 133.617203,24.6348876 C135.115984,24.6348876 136.3321,25.9035431 136.3321,27.469264 L136.3321,40.1656235 C136.3321,41.730364 135.115984,43 133.617203,43 C132.117483,43 130.902306,41.730364 130.902306,40.1656235 L130.902306,27.469264 Z M145.038177,25.9526618 C146.537898,25.9526618 147.753075,27.2213174 147.753075,28.7870383 L147.753075,38.8470649 C147.753075,40.4127859 146.537898,41.6814414 145.038177,41.6814414 C143.538457,41.6814414 142.322341,40.4127859 142.322341,38.8470649 L142.322341,28.7870383 C142.322341,27.2213174 143.538457,25.9526618 145.038177,25.9526618 Z M176.137132,36.0143552 C177.636852,36.0143552 178.852029,37.2830107 178.852029,38.8477512 C178.852029,40.4124917 177.636852,41.6821277 176.137132,41.6821277 L166.157467,41.6821277 C164.658686,41.6821277 163.443509,40.4124917 163.443509,38.8477512 C163.443509,37.2830107 164.658686,36.0143552 166.157467,36.0143552 L176.137132,36.0143552 Z" id="Combined-Shape" fill="#000000"></path>
                    <path d="M276.809717,51.4976079 C275.315997,51.4976079 274.105682,50.2488837 274.105682,48.7077613 C274.105682,47.1666388 275.315997,45.9179147 276.809717,45.9179147 L293.495044,45.9179147 C294.988764,45.9179147 296.199079,47.1666388 296.199079,48.7077613 C296.199079,50.2488837 294.988764,51.4976079 293.495044,51.4976079 L276.809717,51.4976079 Z M278.299415,20.2822063 C276.806631,20.2822063 275.596315,19.0334822 275.596315,17.4933247 C275.596315,15.9522023 276.806631,14.7034781 278.299415,14.7034781 L293.442385,14.7034781 C297.88426,14.7034781 301.485276,18.4187702 301.485276,23.0006421 L301.485276,29.8271294 C301.485276,31.3682519 300.274025,32.616976 298.780305,32.616976 C297.287521,32.616976 296.077206,31.3682519 296.077206,29.8271294 L296.077206,23.0016071 C296.077206,21.5000501 294.896821,20.2822063 293.440514,20.2822063 L278.299415,20.2822063 Z M300.063202,34.5331017 C302.236906,34.5331017 304,36.3521473 304,38.5948327 L304,49.0044056 C304,57.2861295 297.492919,63.9997105 289.464994,63.9997105 L281.929987,63.9997105 C280.437202,63.9997105 279.225952,62.7509864 279.225952,61.2108289 C279.225952,59.6697065 280.437202,58.4200173 281.929987,58.4200173 L289.464994,58.4200173 C294.506415,58.4200173 298.59193,54.2048496 298.59193,49.0044056 L298.59193,40.1127949 L277.518042,40.1127949 C275.842868,40.1127949 274.743857,38.3053295 275.471543,36.7487668 L281.29864,24.2866157 C281.948693,22.89893 283.564006,22.3170284 284.909008,22.9857809 C286.254011,23.6554985 286.818949,25.3230374 286.169831,26.7107231 L282.511761,34.5331017 L300.063202,34.5331017 Z M191.017076,54.5457879 L191.017076,52.347493 C191.017076,50.8063706 192.227392,49.5576464 193.722047,49.5576464 C195.213896,49.5576464 196.425146,50.8063706 196.425146,52.347493 L196.425146,54.5467529 C196.425146,56.6861822 198.105932,58.4203068 200.179555,58.4203068 L213.606197,58.4203068 L213.606197,51.1006989 C213.606197,49.5595764 214.816512,48.3108523 216.310232,48.3108523 C217.803952,48.3108523 219.015202,49.5595764 219.015202,51.1006989 L219.015202,58.4203068 L231.865682,58.4203068 C233.940241,58.4203068 235.621026,56.6852171 235.621026,54.5457879 L235.621026,44.1091947 C235.621026,42.5680722 236.831341,41.3193481 238.325061,41.3193481 C239.818781,41.3193481 241.030031,42.5680722 241.030031,44.1091947 L241.030031,54.5467529 C241.030031,59.7674621 236.92768,64 231.867553,64 L200.180491,64 C195.120363,64 191.017076,59.7674621 191.017076,54.5457879 Z M193.721672,28.1620031 C192.227017,28.1620031 191.016702,26.9132789 191.016702,25.3721565 L191.016702,24.1572077 C191.016702,18.9364986 195.119053,14.7039606 200.180116,14.7039606 L213.735834,14.7039606 C213.781665,13.2043336 214.967661,12 216.431451,12 C217.897111,12 219.082172,13.2043336 219.127068,14.7039606 L231.866243,14.7039606 C236.926371,14.7039606 241.029657,18.9364986 241.029657,24.1572077 L241.029657,25.3721565 C241.029657,26.9132789 239.818407,28.1620031 238.325622,28.1620031 C236.831903,28.1620031 235.621587,26.9132789 235.621587,25.3721565 L235.621587,24.1572077 C235.621587,22.0168135 233.939867,20.2817238 231.865308,20.2817238 L200.180116,20.2817238 C198.106493,20.2817238 196.425707,22.0168135 196.425707,24.1572077 L196.425707,25.3721565 C196.425707,26.9132789 195.214457,28.1620031 193.721672,28.1620031 Z M191.259139,45.1529505 C190.642758,43.7498246 191.245109,42.0977259 192.604142,41.4617837 L200.064323,37.8854532 C199.759406,36.7969209 199.587305,35.6504879 199.587305,34.4606294 L199.587305,26.6170206 L199.587305,26.6160556 C199.587305,25.0758981 200.79762,23.826209 202.29134,23.826209 L207.900506,23.826209 C209.394225,23.826209 210.604541,25.0758981 210.604541,26.6160556 C210.604541,28.156213 209.394225,29.4049371 207.900506,29.4049371 L204.99631,29.4049371 L204.99631,34.4596644 C204.99631,34.8080333 205.029047,35.1477172 205.077684,35.482576 L229.334496,23.8541943 C230.694463,23.2182521 232.296681,23.8397191 232.913063,25.242845 C233.529444,26.6450059 232.927093,28.2980696 231.56806,28.9340118 L208.089442,40.1898993 C209.092114,40.8335616 210.271564,41.2128109 211.540805,41.2128109 L221.567527,41.2128109 C224.499782,41.2128109 226.986821,39.2133082 227.817393,36.4659221 C228.168141,35.3021189 229.143689,34.4596644 230.325944,34.4596644 L230.555099,34.4596644 C232.279845,34.4596644 233.531315,36.1706288 233.052427,37.8806281 C231.612021,43.0222064 227.008333,46.7925041 221.567527,46.7925041 L211.539869,46.7925041 C208.042676,46.7925041 204.906519,45.2330464 202.720656,42.7635835 L194.837707,46.5425663 C193.478674,47.1794735 191.875521,46.5570414 191.259139,45.1539155 L191.259139,45.1529505 Z M193.721672,38.0925445 C191.666756,38.0925445 190,36.3738601 190,34.2537311 C190,32.1336021 191.666756,30.4149176 193.721672,30.4149176 C195.775654,30.4149176 197.44241,32.1336021 197.44241,34.2537311 C197.44241,36.3738601 195.775654,38.0925445 193.721672,38.0925445 Z M238.353402,30.4148211 C240.408319,30.4148211 242.075074,32.1335056 242.075074,34.2536346 C242.075074,36.3737636 240.408319,38.092448 238.353402,38.092448 C236.298485,38.092448 234.632664,36.3737636 234.632664,34.2536346 C234.632664,32.1335056 236.298485,30.4148211 238.353402,30.4148211 Z" id="Combined-Shape" fill="#000000"></path>
                    <path d="M263.047276,35.6103214 C265.107455,35.6103214 266.783155,37.3760796 266.783155,39.5460001 L266.783155,56.3942757 C266.783155,58.5632153 265.107455,60.3279925 263.047276,60.3279925 C260.988027,60.3279925 259.313259,58.5632153 259.313259,56.3942757 L259.313259,39.5460001 C259.313259,37.3760796 260.988027,35.6103214 263.047276,35.6103214 M251.03251,38.2697494 C251.905736,38.9897863 253.068485,39.0506069 253.984534,38.5228414 C253.950089,38.8593164 253.93054,39.2006963 253.93054,39.5460001 L253.93054,56.3942757 C253.93054,61.6905692 258.021108,66 263.047276,66 C268.074374,66 272.165874,61.6905692 272.165874,56.3942757 L272.165874,39.5460001 C272.165874,34.2487257 268.074374,29.9392949 263.047276,29.9392949 C262.092127,29.9392949 261.171423,30.0962511 260.305645,30.3846583 L267.520463,20.6710266 L270.309571,20.6710266 C271.795358,20.6710266 273,19.4016427 273,17.8350228 C273,16.2693839 271.795358,15 270.309571,15 L253.701527,15 C252.214809,15 251.010168,16.2693839 251.010168,17.8350228 C251.010168,19.4016427 252.214809,20.6710266 253.701527,20.6710266 L260.68547,20.6710266 L250.572624,34.2889457 C249.655644,35.5220335 249.862313,37.3044683 251.03251,38.2697494" id="Fill-183" fill="#000000"></path>
                    <path d="M148.591525,90.3027282 C149.81374,90.3027282 150.805438,91.341677 150.805438,92.6243297 C150.805438,93.9059958 149.81374,94.9459313 148.591525,94.9459313 L136.753257,94.9459313 C131.365726,94.9459313 127,90.3658742 127,84.7172687 L127,73.3312587 C127,72.0495926 127.989815,71.0106438 129.212971,71.0106438 C130.435186,71.0106438 131.426884,72.0495926 131.426884,73.3312587 L131.426884,84.7172687 C131.426884,87.8015553 133.811097,90.3027282 136.753257,90.3027282 L148.591525,90.3027282 Z M175.799218,78.2243817 L179.965476,91.9754061 C180.418984,93.4721632 179.352957,94.9995067 177.856002,94.9995067 C176.89065,94.9995067 176.037263,94.3443671 175.745587,93.3804042 L171.57933,79.6313531 C170.804978,77.0788741 168.46875,75.4232654 165.876601,75.6659827 C163.635403,75.8771271 161.789378,77.6205482 161.108174,79.8691372 L160.323473,82.4600958 L167.964434,82.4600958 C169.18759,82.4600958 170.178346,83.5000312 170.178346,84.7816973 C170.178346,86.0633635 169.18759,87.1032989 167.964434,87.1032989 L158.915902,87.1032989 L157.012484,93.3813909 C156.721749,94.3443671 155.867421,94.9995067 154.90301,94.9995067 C153.405114,94.9995067 152.339087,93.4721632 152.793536,91.9754061 L156.862882,78.5470182 C158.050284,74.6280207 161.219199,71.5920802 165.109776,71.0829657 C169.946887,70.4515059 174.361539,73.4844864 175.799218,78.2243817 Z M208.701831,71.1762047 C209.924046,71.1762047 210.915743,72.2151535 210.915743,73.4978062 L210.915743,90.8363118 C210.915743,92.2827494 210.260884,93.6976141 209.073482,94.4336595 C208.4572,94.8145087 207.784464,95 207.117374,95 C206.135085,95 205.172556,94.598431 204.446189,93.8396926 L188.650541,76.6777985 L188.650541,92.6783985 C188.650541,93.9610513 187.660726,95 186.43757,95 C185.215355,95 184.223658,93.9610513 184.223658,92.6783985 L184.223658,75.1889346 C184.223658,73.8036696 184.813595,72.4420843 185.917258,71.6803859 C187.459376,70.6167708 189.43242,70.8585015 190.69133,72.1727272 L206.487919,89.335608 L206.487919,73.4978062 C206.487919,72.2151535 207.478675,71.1762047 208.701831,71.1762047 Z M242.399307,71.3418642 C243.811582,71.9378045 244.725185,73.3704289 244.725185,74.993478 L244.725185,92.7315792 C244.725185,93.9846323 243.756069,94.9999013 242.56114,94.9999013 C241.366211,94.9999013 240.398036,93.9846323 240.398036,92.7315792 L240.398036,77.3101463 L233.456155,88.4544256 C232.855868,89.4174018 231.955437,90.1731803 230.888469,90.4366174 C229.119597,90.8727194 227.367661,90.1070743 226.419245,88.5856508 L219.394566,77.3101463 L219.394566,92.7315792 C219.394566,93.9846323 218.426391,94.9999013 217.231462,94.9999013 C216.036533,94.9999013 215.068358,93.9846323 215.068358,92.7315792 L215.068358,74.993478 C215.068358,73.3704289 215.98102,71.9378045 217.393295,71.3418642 C218.770757,70.7617105 220.328869,71.11888 221.363847,72.2476144 L221.614124,72.5781442 L229.895831,85.8723469 L238.428755,72.2476144 C239.464674,71.1178933 241.023727,70.7607239 242.399307,71.3418642 Z M272.085961,78.5457356 L276.155307,91.9751101 C276.609756,93.4718672 275.543729,94.9992107 274.045833,94.9992107 L274.044892,94.9992107 C273.081422,94.9992107 272.227094,94.3450578 271.935419,93.3810949 L267.769161,79.6310571 C266.996691,77.0795648 264.661404,75.423956 262.069254,75.6666734 C259.828056,75.8748578 257.98015,77.6182789 257.298005,79.8678546 L256.512363,82.4607865 L264.155206,82.4607865 C265.378362,82.4607865 266.369118,83.4997352 266.369118,84.7814013 C266.369118,86.0640541 265.378362,87.1030029 264.155206,87.1030029 L255.105734,87.1030029 L253.203256,93.3810949 C252.910639,94.3450578 252.057253,94.9992107 251.092841,94.9992107 C249.594945,94.9992107 248.529859,93.4718672 248.982427,91.9751101 L253.150566,78.2240857 C254.586363,73.485177 259.000074,70.4521966 263.836244,71.0826697 C267.728703,71.5898109 270.898559,74.626738 272.085961,78.5457356 Z M302.088753,90.4833849 C303.868916,91.9692888 302.865928,94.9756296 300.590858,94.9756296 C300.047024,94.9756296 299.520126,94.782245 299.092962,94.4270489 L289.860957,86.7143591 L284.599505,93.9791071 C284.145055,94.6076069 283.437507,94.9756296 282.685736,94.9756296 L282.576593,94.9756296 C280.588494,94.9756296 279.459427,92.5898954 280.662824,90.9303401 L286.032479,83.5156204 L276.456109,75.5168004 C274.675947,74.0299098 275.678934,71.023569 277.954004,71.023569 C278.497838,71.023569 279.025677,71.2179403 279.450959,71.5731364 L288.939827,79.4999306 L294.356526,72.0200916 C294.811916,71.3925784 295.520406,71.023569 296.271235,71.023569 L296.380378,71.023569 C298.367536,71.023569 299.496604,73.4093032 298.295088,75.0688585 L292.770187,82.6976826 L302.088753,90.4833849 Z" id="Combined-Shape" fill="#000000"></path>
                </g>
            </g>
        </g>
    </g>
</svg>