<?xml version="1.0" encoding="UTF-8"?>
<svg width="78px" height="78px" viewBox="0 0 78 78" version="1.1" xmlns="http://www.w3.org/2000/svg" xmlns:xlink="http://www.w3.org/1999/xlink">
    <!-- Generator: Sketch 49.2 (51160) - http://www.bohemiancoding.com/sketch -->
    <title>20</title>
    <desc>Created with Sketch.</desc>
    <defs></defs>
    <g id="Page-1" stroke="none" stroke-width="1" fill="none" fill-rule="evenodd">
        <g id="首页" transform="translate(-220.000000, -4994.000000)" fill-rule="nonzero">
            <g id="持续升级" transform="translate(220.000000, 4994.000000)">
                <g id="Group-35">
                    <path d="M0,39 C6.22722847e-15,60.5391052 17.4608948,78 39,78 C60.5391052,78 78,60.5391052 78,39 C78,17.4608948 60.5391052,1.24544569e-15 39,0 C17.4608948,-1.24544569e-15 1.49453483e-14,17.4608948 0,39 Z" id="Shape" fill="#E6F3FF"></path>
                    <path d="M37.7983006,39.5636954 L26.5023265,52.499579 C25.4300409,53.7275352 26.1880359,55.8129436 27.7040259,55.8129436 L32.6587248,55.8129436 L32.6587248,59.0522074 C32.6587248,60.1213762 33.4167198,61 34.3595916,61 L43.6404084,61 C44.5740363,61 45.3412752,60.131962 45.3412752,59.0522074 L45.3412752,55.8129436 L50.2959741,55.8129436 C51.8119641,55.8129436 52.5699591,53.7169494 51.4976735,52.499579 L40.2016994,39.5636954 C39.5361428,38.8121015 38.4638572,38.8121015 37.7983006,39.5636954 Z" id="Shape" fill="#B7DEFF"></path>
                    <path d="M37.7983006,28.5717036 L26.5023265,41.4985563 C25.4300409,42.7266603 26.1880359,44.8123195 27.7040259,44.8123195 L32.6587248,44.8123195 L32.6587248,48.0519731 C32.6587248,49.1212705 33.4167198,50 34.3595916,50 L43.6404084,50 C44.5740363,50 45.3412752,49.1318576 45.3412752,48.0519731 L45.3412752,44.8123195 L50.2959741,44.8123195 C51.8119641,44.8123195 52.5699591,42.7160731 51.4976735,41.4985563 L40.2016994,28.5717036 C39.5361428,27.8094321 38.4638572,27.8094321 37.7983006,28.5717036 Z" id="Shape" fill="#83C6FF"></path>
                    <path d="M37.7983006,18.5636954 L26.5023265,31.499579 C25.4300409,32.7275352 26.1880359,34.8129436 27.7040259,34.8129436 L32.6587248,34.8129436 L32.6587248,38.0522074 C32.6587248,39.1213762 33.4167198,40 34.3595916,40 L43.6404084,40 C44.5740363,40 45.3412752,39.131962 45.3412752,38.0522074 L45.3412752,34.8129436 L50.2959741,34.8129436 C51.8119641,34.8129436 52.5699591,32.7169494 51.4976735,31.499579 L40.2016994,18.5636954 C39.5361428,17.8121015 38.4638572,17.8121015 37.7983006,18.5636954 Z" id="Shape" fill="#58B2FF"></path>
                </g>
            </g>
        </g>
    </g>
</svg>