<?xml version="1.0" encoding="UTF-8"?>
<svg width="78px" height="78px" viewBox="0 0 78 78" version="1.1" xmlns="http://www.w3.org/2000/svg" xmlns:xlink="http://www.w3.org/1999/xlink">
    <!-- Generator: Sketch 49.2 (51160) - http://www.bohemiancoding.com/sketch -->
    <title>21</title>
    <desc>Created with Sketch.</desc>
    <defs></defs>
    <g id="Page-1" stroke="none" stroke-width="1" fill="none" fill-rule="evenodd">
        <g id="首页" transform="translate(-634.000000, -4752.000000)">
            <g id="Group-2" transform="translate(634.000000, 4752.000000)">
                <g id="Group-36">
                    <circle id="Oval-2" fill="#E6F3FF" cx="39" cy="39" r="39"></circle>
                    <g id="创新平台" transform="translate(18.000000, 18.000000)" fill="#58B2FF" fill-rule="nonzero">
                        <path d="M21,7.00035003 C21.966,7.00035003 22.75035,6.21600004 22.75035,5.25000002 L22.75035,1.75035001 C22.75035,0.783658393 21.9666916,3.26849658e-13 21,3.26849658e-13 C20.0333084,3.26849658e-13 19.24965,0.783658393 19.24965,1.75035001 L19.24965,5.25000002 C19.24965,6.21600004 20.034,7.00035003 21,7.00035003 Z M11.1006,11.1006 C11.4290169,10.7723242 11.6135314,10.3270019 11.6135314,9.86265003 C11.6135314,9.39829815 11.4290169,8.9529759 11.1006,8.62470003 L8.62470003,6.14985003 C7.94096559,5.46722048 6.83358447,5.46722048 6.14985003,6.14985003 C5.46722048,6.83358447 5.46722048,7.94096559 6.14985003,8.62470003 L8.62470003,11.1006 C8.9529759,11.4290169 9.39829815,11.6135314 9.86265003,11.6135314 C10.3270019,11.6135314 10.7723242,11.4290169 11.1006,11.1006 Z M7.00035003,21 C7.00035003,20.034 6.21600004,19.24965 5.25000002,19.24965 L1.75035001,19.24965 C0.783658393,19.24965 -1.42108547e-14,20.0333084 -1.42108547e-14,21 C-1.42108547e-14,21.9666916 0.783658393,22.75035 1.75035001,22.75035 L5.25000002,22.75035 C6.21600004,22.75035 7.00035003,21.966 7.00035003,21 Z M34.99965,21 C34.99965,21.966 35.7819,22.75035 36.75,22.75035 L40.24965,22.75035 C41.2163416,22.75035 42,21.9666916 42,21 C42,20.0333084 41.2163416,19.24965 40.24965,19.24965 L36.75,19.24965 C35.7819,19.24965 34.99965,20.034 34.99965,21 Z M30.90045,11.1006 C31.2283672,11.4288893 31.6733418,11.6133516 32.13735,11.6133516 C32.6013581,11.6133516 33.0463327,11.4288893 33.37425,11.1006 L35.8491,8.62470003 C36.1777108,8.29674042 36.3623773,7.85154068 36.3623773,7.38727503 C36.3623773,6.92300938 36.1777108,6.47780964 35.8491,6.14985003 C35.1653655,5.46722048 34.0579844,5.46722048 33.37425,6.14985003 L30.90045,8.62470003 C30.5720331,8.9529759 30.3875186,9.39829815 30.3875186,9.86265003 C30.3875186,10.3270019 30.5720331,10.7723242 30.90045,11.1006 Z M32.37465,20.12535 C32.37465,13.84215 27.28215,8.74965002 21,8.74965002 C14.71785,8.74965002 9.62535004,13.84215 9.62535004,20.12535 C9.62535004,26.4075 14.71785,31.5 21,31.5 C27.28215,31.5 32.37465,26.4075 32.37465,20.12535 Z M13.99965,34.99965 C13.99965,35.96565 14.784,36.75 15.75,36.75 L26.25,36.75 C27.2164017,36.75 27.999825,35.9665766 27.999825,35.000175 C27.999825,34.0337733 27.2164017,33.25035 26.25,33.25035 L15.75,33.25035 C14.784,33.25035 13.99965,34.0336499 13.99965,34.99965 Z M17.50035,40.24965 C17.50035,41.21565 18.28365,42 19.24965,42 L22.75035,42 C23.3755023,42 23.9531668,41.6664853 24.265743,41.1250875 C24.5783192,40.5836898 24.5783192,39.9166602 24.265743,39.3752625 C23.9531668,38.8338647 23.3755023,38.50035 22.75035,38.50035 L19.24965,38.50035 C18.28365,38.50035 17.50035,39.28365 17.50035,40.24965 Z" id="Shape"></path>
                    </g>
                </g>
            </g>
        </g>
    </g>
</svg>