<?xml version="1.0" encoding="UTF-8"?>
<svg width="78px" height="78px" viewBox="0 0 78 78" version="1.1" xmlns="http://www.w3.org/2000/svg" xmlns:xlink="http://www.w3.org/1999/xlink">
    <!-- Generator: Sketch 49.2 (51160) - http://www.bohemiancoding.com/sketch -->
    <title>22</title>
    <desc>Created with Sketch.</desc>
    <defs></defs>
    <g id="Page-1" stroke="none" stroke-width="1" fill="none" fill-rule="evenodd">
        <g id="首页" transform="translate(-1211.000000, -4752.000000)">
            <g id="Group-6" transform="translate(1211.000000, 4752.000000)">
                <g id="Group-37">
                    <g id="Group-2-Copy" fill="#E6F3FF">
                        <circle id="Oval-2" cx="39" cy="39" r="39"></circle>
                    </g>
                    <g id="火箭" transform="translate(19.000000, 21.000000)" fill="#58B2FF" fill-rule="nonzero">
                        <path d="M20.1124972,5.55066208 L20.1162764,5.54717555 C24.9094727,0.756102421 31.5751203,-0.947648511 37.500625,0.498970843 C38.9483517,6.42142292 37.2433483,13.0830193 32.4498612,17.8738019 C32.3835798,17.940046 32.3170076,18.005709 32.249854,18.0707909 L29.6137123,20.7057358 L31.7931515,24.5539932 C32.453692,25.720381 32.3867888,27.1619396 31.6210522,28.2622082 L25.88538,36.5040743 C24.785631,38.0846345 22.6114246,38.4748353 21.0296815,37.3757068 C20.9722329,37.3356664 20.9160038,37.2939059 20.8610707,37.2504822 L20.8758968,37.2318874 C20.0402786,36.7093806 19.7465814,35.6328877 20.2011632,34.7587756 C20.1998074,34.7581926 20.1984507,34.7576115 20.1970933,34.7570323 C21.3325994,32.8196839 21.4695229,30.2855577 20.6988556,27.6997147 C17.8833469,28.3272901 14.8172479,27.5457263 12.6264711,25.3564761 C10.4362757,23.1675164 9.65456147,20.1040189 10.2813283,17.2906798 C7.6954791,16.5213189 5.16108527,16.6584557 3.22351532,17.7927401 C3.22293578,17.7913834 3.22235436,17.7900276 3.22177107,17.7886725 C2.34723821,18.2430508 1.27015802,17.9496514 0.747263123,17.11461 L0.730983466,17.127394 C-0.332427022,15.7595121 -0.235621201,13.7823591 1.02169164,12.5257556 C1.16793566,12.379551 1.32690101,12.2466361 1.49670879,12.1285818 L9.74787879,6.39324014 C10.8463017,5.62966491 12.2849276,5.56126207 13.4509195,6.21717038 L17.2847788,8.37417019 L20.0267383,5.63375771 C20.054937,5.60528439 20.0837171,5.57768269 20.1124972,5.55066208 Z M8.23416134,22.7500045 C9.04610926,24.8381453 9.92782715,26.3574007 10.8790243,27.3080612 C11.810744,28.2392552 13.2453888,29.0609141 15.1832495,29.7727473 C15.483263,29.8829396 15.6989275,30.1483284 15.7453097,30.4643981 C15.791692,30.7804678 15.66136,31.0965733 15.4056412,31.2882256 L12.0962194,33.7686011 C11.8021376,33.9889376 11.4014048,34.0013598 11.0942258,33.7996615 C10.7870468,33.5979632 10.6393598,33.2254406 10.7249489,32.8682047 L10.8694309,32.2656161 C10.9498315,31.9304767 10.8251017,31.5794597 10.5512098,31.370072 C10.2773178,31.1606842 9.90569966,31.132248 9.60310612,31.297523 L6.68410538,32.8920293 C6.34446518,33.0773318 5.92326834,33.0168088 5.6496189,32.7433809 C5.37596947,32.4699531 5.3153088,32.0490087 5.50063242,31.7095146 L7.20301946,28.5960435 C7.36141455,28.3065144 7.34263808,27.952412 7.15451136,27.6812367 C6.96638465,27.4100615 6.64116599,27.2683122 6.31432459,27.3150343 L4.84595762,27.5250977 C4.49670823,27.5750765 4.15173318,27.4098273 3.97194763,27.1064315 C3.79216207,26.8030356 3.81298641,26.4212665 4.02470704,26.1392021 L6.72335098,22.5428465 C6.91338443,22.2896397 7.22582571,22.1592927 7.53958539,22.2023228 C7.85334508,22.245353 8.1191062,22.4549966 8.23387064,22.7500045 L8.23416134,22.7500045 Z M24.3446267,13.6475466 C25.7068852,15.0093271 27.9156859,15.0093271 29.2779444,13.6475466 C30.6404936,12.2863473 30.6404936,10.0787928 29.2779444,8.7170123 C27.9156859,7.35552238 25.7068852,7.35552238 24.3446267,8.7170123 C22.9823682,10.0787928 22.9823682,12.2863473 24.3446267,13.6475466 Z" id="Shape"></path>
                    </g>
                </g>
            </g>
        </g>
    </g>
</svg>