<?xml version="1.0" encoding="UTF-8"?>
<svg width="60px" height="5px" viewBox="0 0 60 5" version="1.1" xmlns="http://www.w3.org/2000/svg" xmlns:xlink="http://www.w3.org/1999/xlink">
    <!-- Generator: Sketch 49.2 (51160) - http://www.bohemiancoding.com/sketch -->
    <title>3</title>
    <desc>Created with Sketch.</desc>
    <defs></defs>
    <g id="Page-1" stroke="none" stroke-width="1" fill="none" fill-rule="evenodd">
        <g id="平台优势-copy" transform="translate(-518.000000, -314.000000)" fill="#58B2FF" fill-rule="nonzero">
            <g id="Group-2" transform="translate(518.000000, 314.000000)">
                <g id="Group-3">
                    <path d="M33.3748179,0.874005519 C34.0672861,0.388941036 34.9507023,0 36.2195864,0 C38.2420925,0 39.2852798,0.948616612 40.1155718,1.69960474 C40.8394161,2.35177865 41.3716545,2.82608695 42.5,2.82608695 C43.6283456,2.82608695 44.160584,2.35177865 44.8844283,1.69960474 C45.7360098,0.948616612 46.7791971,0 48.7804137,0 C50.8029198,0 51.8673967,0.988142301 52.6976886,1.77865612 C53.4215329,2.47035571 53.9537713,2.96442686 55.0608273,2.96442686 C56.2956205,2.96442686 57.2323601,2.03557314 58.3181266,0.830039545 L60,2.13438736 C58.8929441,3.33992095 57.4026764,5 55.0608273,5 C53.0170317,5 51.9738443,4.0118577 51.1222628,3.22134388 C50.3984185,2.52964429 49.8661801,2.03557314 48.7591241,2.03557314 C47.6307786,2.03557314 47.0985401,2.50988144 46.3746959,3.16205535 C45.5231144,3.91304348 44.479927,4.86166009 42.4787105,4.86166009 C40.4774939,4.86166009 39.413017,3.91304348 38.5827251,3.16205535 C37.8588808,2.50988144 37.3266423,2.03557314 36.1982968,2.03557314 C35.529937,2.03557314 35.0710905,2.2156554 34.6531054,2.5105876 C33.5838887,3.65769207 32.1666442,5 30.0608273,5 C30.0367407,5 30.0127932,4.99986276 29.9889833,4.99959021 C29.9654184,4.99986276 29.9417188,5 29.9178832,5 C27.863549,5 26.4645305,3.72252287 25.4190258,2.59504788 C24.9691646,2.25039517 24.4891096,2.03557314 23.7591241,2.03557314 C22.6307786,2.03557314 22.0985401,2.50988144 21.3746959,3.16205535 C20.5231144,3.91304348 19.479927,4.86166009 17.4787105,4.86166009 C15.4774939,4.86166009 14.413017,3.91304348 13.5827251,3.16205535 C12.8588808,2.50988144 12.3266423,2.03557314 11.1982968,2.03557314 C10.0912409,2.03557314 9.5590024,2.52964429 8.83515812,3.22134388 C7.98357663,4.0118577 6.94038927,5 4.91788319,5 C2.57603406,5 1.08576644,3.33992095 0,2.13438736 L1.6818735,0.830039545 C2.76763993,2.0355731 3.70437957,2.96442686 4.93917277,2.96442686 C6.04622874,2.96442686 6.57846719,2.47035571 7.30231147,1.77865612 C8.15389296,0.988142301 9.19708033,0 11.2195864,0 C13.2420925,0 14.2852798,0.948616612 15.1155718,1.69960474 C15.8394161,2.35177865 16.3716545,2.82608695 17.5,2.82608695 C18.6283456,2.82608695 19.160584,2.35177865 19.8844283,1.69960474 C20.7360098,0.948616612 21.7791971,0 23.7804137,0 C25.0462942,0 25.9368696,0.387101878 26.6296217,0.870562528 L26.6818735,0.830039545 C26.7560117,0.912355708 26.8294551,0.993381874 26.902346,1.07291042 C27.1986117,1.30560227 27.4579151,1.55036982 27.6976886,1.77865612 C28.4081483,2.45756543 28.9340225,2.94608745 30,2.96392194 C31.0659776,2.94608745 31.5918519,2.45756543 32.3023115,1.77865612 C32.5388576,1.55907297 32.7901875,1.32424126 33.0731838,1.09957479 C33.1541027,1.01151517 33.2356851,0.921574922 33.3181266,0.830039545 L33.3748179,0.874005519 Z" id="Combined-Shape"></path>
                </g>
            </g>
        </g>
    </g>
</svg>