<?xml version="1.0" encoding="UTF-8"?>
<svg width="78px" height="78px" viewBox="0 0 78 78" version="1.1" xmlns="http://www.w3.org/2000/svg" xmlns:xlink="http://www.w3.org/1999/xlink">
    <!-- Generator: Sketch 49.2 (51160) - http://www.bohemiancoding.com/sketch -->
    <title>30</title>
    <desc>Created with Sketch.</desc>
    <defs></defs>
    <g id="Page-1" stroke="none" stroke-width="1" fill="none" fill-rule="evenodd">
        <g id="首页" transform="translate(-422.000000, -6970.000000)">
            <g id="Group-9" transform="translate(422.000000, 6970.000000)">
                <g id="Group-53">
                    <circle id="Oval-2" fill="#E6F3FF" cx="39" cy="39" r="39"></circle>
                    <g id="dycdp-流量服务" transform="translate(23.000000, 16.000000)" fill="#58B2FF" fill-rule="nonzero">
                        <path d="M15.9517655,43 C13.731255,43 11.6116769,42.5904762 9.59303104,41.6690476 C7.67531749,40.85 5.9594685,39.6214286 4.44548411,38.0857143 C1.51844761,35.0142857 -0.0964690573,31.0214286 0.0044632196,26.7214286 C0.105395496,23.3428571 1.01378613,20.2714286 3.13336432,16.9952381 L12.9237967,1.63809522 C13.6303227,0.614285714 14.740578,0 15.9517655,0 C17.162953,0 18.2732082,0.614285714 18.9797343,1.63809522 L29.577625,18.4285714 C30.3850833,19.9642857 30.8897448,21.1928571 31.293474,22.4214286 C31.7981354,23.8547619 32,25.2880952 32,26.7214286 C32,31.0214286 30.284151,35.1166667 27.3571146,38.1880952 C24.2282135,41.3619048 20.1909218,43 15.9517655,43 Z M15.8508332,3.37857143 C15.7499009,3.37857143 15.6489686,3.37857143 15.6489686,3.48095236 L5.85853622,18.9404762 C4.14268723,21.7047619 3.33522892,24.1619048 3.2342966,26.9261905 C3.13336432,30.3047619 4.44548411,33.4785714 6.76692686,35.8333333 C7.97811437,37.0619048 9.29023416,37.9833333 10.9051508,38.7 C12.5200675,39.4166667 14.1349842,39.7238095 15.9517655,39.7238095 C19.2825311,39.7238095 22.5123645,38.3928571 24.8338072,35.9357143 C27.2561822,33.4785714 28.568302,30.3047619 28.5683021,26.8238095 C28.5683021,24.7761904 27.9627083,22.9333333 26.5496562,20.1690476 L16.1536301,3.48095236 C16.0526978,3.37857143 15.9517655,3.37857143 15.8508332,3.37857143 Z" id="Shape"></path>
                        <path d="M10.8903226,25.4666967 C9.96129035,25.4666967 9.0322581,25.2500808 8.30967742,24.816849 C8.20645163,24.816849 8.10322579,24.816849 8.10322584,24.925157 C8.00000005,25.4666968 8.00000005,26.0082365 8,26.5497763 C8,31.0987102 11.5096774,34.8894885 15.8451613,34.9977965 C20.283871,35.1061044 24,31.2070182 24,26.5497763 C24,25.2500808 23.6903226,24.1670013 23.2774194,23.0839218 C23.2774194,23.0839218 23.2774194,22.9756139 23.1741935,22.9756139 C21.5225806,22.2174582 19.6645161,21.7842264 18.2193548,22.1091502 C14.0903226,22.9756139 14.2967742,25.4666967 10.8903226,25.4666967 Z" id="Shape"></path>
                    </g>
                </g>
            </g>
        </g>
    </g>
</svg>