<?xml version="1.0" encoding="UTF-8"?>
<svg width="97px" height="97px" viewBox="0 0 97 97" version="1.1" xmlns="http://www.w3.org/2000/svg" xmlns:xlink="http://www.w3.org/1999/xlink">
    <!-- Generator: Sketch 49.2 (51160) - http://www.bohemiancoding.com/sketch -->
    <title>31</title>
    <desc>Created with Sketch.</desc>
    <defs></defs>
    <g id="Page-1" stroke="none" stroke-width="1" fill="none" fill-rule="evenodd">
        <g id="首页" transform="translate(-747.000000, -6941.000000)">
            <g id="Group-10" transform="translate(747.000000, 6941.000000)">
                <g id="Group-54">
                    <g id="Group-9-Copy" fill="#E6F3FF">
                        <circle id="Oval-2" cx="48.5" cy="48.5" r="48.5"></circle>
                    </g>
                    <g id="时间" transform="translate(26.000000, 26.000000)" fill="#58B2FF" fill-rule="nonzero">
                        <path d="M22.5,0 C10.0740637,0 0,10.0740637 0,22.5 C0,34.9259363 10.0740637,45 22.5,45 C34.9259363,45 45,34.9259363 45,22.5 C45,10.0740637 34.9259363,0 22.5,0 Z M31.4861655,29.2006072 C31.4861655,30.4582931 30.4611515,31.4833071 29.2034656,31.4833071 L19.8903018,31.4833071 C18.632616,31.4833071 17.607602,30.4582931 17.607602,29.2006072 L17.607602,28.6535139 C17.607602,28.6220718 17.6138904,28.5906296 17.6138904,28.5591875 C17.6138904,28.5277453 17.607602,28.4963032 17.607602,28.464861 L17.607602,15.5044083 C17.607602,14.2467224 18.632616,13.2217084 19.8903018,13.2217084 L20.4373952,13.2217084 C21.6950811,13.2217084 22.720095,14.2467224 22.720095,15.5044083 L22.720095,26.3708141 L29.2034656,26.3708141 C30.4611515,26.3708141 31.4861655,27.395828 31.4861655,28.6535139 L31.4861655,29.2006072 Z" id="Shape"></path>
                    </g>
                </g>
            </g>
        </g>
    </g>
</svg>