<?xml version="1.0" encoding="UTF-8"?>
<svg width="78px" height="78px" viewBox="0 0 78 78" version="1.1" xmlns="http://www.w3.org/2000/svg" xmlns:xlink="http://www.w3.org/1999/xlink">
    <!-- Generator: Sketch 49.2 (51160) - http://www.bohemiancoding.com/sketch -->
    <title>32</title>
    <desc>Created with Sketch.</desc>
    <defs></defs>
    <g id="Page-1" stroke="none" stroke-width="1" fill="none" fill-rule="evenodd">
        <g id="首页" transform="translate(-1087.000000, -6970.000000)">
            <g id="Group-55" transform="translate(1087.000000, 6970.000000)">
                <g id="Group-56">
                    <g id="Group-9-Copy-2" fill="#E6F3FF">
                        <circle id="Oval-2" cx="39" cy="39" r="39"></circle>
                    </g>
                    <g id="2-机油滤芯" transform="translate(18.000000, 18.000000)" fill="#58B2FF" fill-rule="nonzero">
                        <path d="M9.84687689,27.6634349 C9.84688551,27.6608153 9.84819769,27.461561 10.0478108,27.461561 C10.0478108,27.461561 10.0478108,27.461561 9.84687683,27.461561 C9.84687683,27.2596611 9.84687683,27.2596611 9.84687683,27.2596611 L9.84687683,25.240427 C10.0478108,25.240427 10.2488033,25.4423269 10.4497373,25.4423269 C10.8516637,25.4423269 11.2535902,25.8461855 11.6554583,26.451944 L11.6554583,26.6538439 L11.6555167,26.6538439 C11.8564507,27.0577025 12.0573847,27.4615611 11.8564507,28.0673196 C11.8564507,28.0673196 11.8564507,28.2692195 11.6555167,28.2692195 C11.6555167,28.673078 11.2535902,29.0769366 10.8516637,29.2788365 C10.4497373,29.4807364 10.0478108,29.6826951 9.84687683,29.6826951 L9.84687683,27.6634609 C9.84687683,27.6634609 9.84687683,27.6634522 9.84687689,27.6634349 L9.84687689,29.6826364 C9.64594289,29.6826364 9.44495043,29.4807365 9.24401643,29.4807365 C8.64115592,29.4807365 8.23922946,29.0768779 8.03829546,28.4711194 C7.63636901,27.8653609 7.63636901,26.8557438 8.03829546,26.2499853 C8.03829546,26.2499853 8.23922946,26.0480267 8.23922946,25.8461267 C8.44022192,25.8461267 8.64115592,25.6442268 8.64115592,25.6442268 L8.84208992,25.6442268 C9.04302392,25.4422682 9.44495038,25.2403682 9.84687689,25.2403682 L9.84687689,27.2596024 C9.84687689,27.2596024 9.84687689,27.2596024 9.64594289,27.2596024 L9.64594289,27.4615023 C9.64594289,27.6634023 9.64594289,27.6634023 9.84687689,27.6634023 Z M9.84693523,12.3173049 C10.0478692,12.3173049 10.4497957,12.5192048 10.8517221,12.5192048 L10.8517221,12.7211047 C11.2535902,12.9230634 11.6555167,13.3269219 11.6555167,13.7307805 C11.8564507,13.7307806 11.8564507,13.9326805 11.8564507,13.9326805 C12.0574431,14.3365391 11.8564507,14.9422976 11.6555167,15.3461561 L11.6555167,15.548056 C11.2535902,16.1538145 10.8516637,16.3557731 10.4497957,16.5576731 C10.2488617,16.5576731 10.0478692,16.5576731 9.84693523,16.5576731 C9.44500877,16.5576144 9.04308232,16.5576144 8.84214831,16.3557145 L8.64121431,16.3557145 C8.23928786,15.9519146 7.8373614,15.548056 7.8373614,15.1441974 C7.6364274,14.5384389 7.6364274,13.9326804 7.8373614,13.5288219 L8.0382954,13.5288219 L8.0382954,13.3269219 C8.23922946,12.9230634 8.64115592,12.5192048 9.24401638,12.5192048 C9.44495038,12.3173049 9.64594283,12.3173049 9.84687683,12.3173049 L9.84693523,12.3173049 Z M9.84693523,14.3364803 C9.64600122,14.3364803 9.64600122,14.3364803 9.64600122,14.3364803 L9.64600122,14.5383802 L9.84693523,14.7402802 L9.84693523,14.5384389 C10.0478692,14.5384389 10.0478692,14.5384389 10.0478692,14.5384389 C9.84693523,14.336539 9.84693523,14.336539 9.84693523,14.336539 Z M9.84687683,6.05770245 C9.04302392,6.66346094 8.44016347,7.06731951 7.83730301,7.67307801 C4.42101576,11.1057878 2.41144194,15.7500146 2.41144194,20.9999999 C2.41144194,26.0480853 4.42101576,30.8942121 7.83730301,34.125022 C8.44016347,34.7307805 9.04302398,35.336539 9.84687683,35.9423562 C10.4497373,36.3462148 11.0525978,36.7500734 11.6555167,37.1538733 C14.468885,38.7691902 17.6842382,39.5769073 20.899533,39.5769073 L20.899533,42 C17.6842382,42 14.468885,41.1922829 11.6555167,39.9807659 C11.0526562,39.5769073 10.4497957,39.1730487 9.84687683,38.7692488 C8.44016347,37.961473 7.2344425,36.9518559 6.22965558,35.9422976 C2.41150033,32.1057879 0,26.8557439 0,21 C0,15.1442561 2.41150028,9.89421217 6.22965558,6.05770245 C7.2344425,5.04808538 8.44016347,4.03846832 9.84687683,3.23080985 C10.4497373,2.8268926 11.0525978,2.42303403 11.6555167,2.01923413 C14.468885,0.605758493 17.6842382,0 20.899533,0 C24.3158202,2.84217094e-14 27.330181,0.605758493 30.1435493,2.01923413 L30.1435493,4.84612673 C27.531115,3.23075117 24.3158202,2.22113405 20.899533,2.22113405 C17.6842382,2.22113411 14.468885,3.23075117 11.6555167,4.84612679 C11.0526562,5.04802665 10.4497957,5.65384388 9.84687683,6.05764377 Z M20.899533,36.1441974 C20.2966725,36.1441974 19.8947461,35.7403388 19.4928196,35.5384389 C19.0908931,35.1345804 18.8899591,34.5288219 18.8899591,33.9230634 C18.8899591,33.3173049 19.0908931,32.9134463 19.4928196,32.5095877 C19.8947461,32.1057292 20.2966141,31.9038292 20.899533,31.9038292 C21.5023934,31.9038293 22.1052539,32.1057292 22.5071803,32.5095878 C22.9091068,32.9134464 23.1100408,33.3173049 23.1100408,33.9230634 C23.1100408,34.5288219 22.9091068,35.1345805 22.5071803,35.538439 C22.1052539,35.7403389 21.5023935,36.1441975 20.899533,36.1441975 Z M20.899533,34.1249633 C21.100467,34.1249633 21.100467,34.1249633 21.100467,34.1249633 L21.100467,33.9230634 C21.100467,33.7211635 21.100467,33.7211635 20.899533,33.7211635 C20.899533,33.7211634 20.899533,33.7211634 20.899533,33.9230634 L20.899533,34.1249633 Z M20.899533,11.5096465 C23.5119673,11.5096465 25.9234676,12.5192049 27.531115,14.3365391 C28.9378284,15.548056 29.7416229,17.3653316 30.1435493,19.1826658 C30.3444833,19.7884243 30.3444833,20.3941828 30.3444833,21 C30.3444833,21.6057585 30.3444833,22.211517 30.1435493,22.8172755 C29.7416229,24.634551 28.9378284,26.4518852 27.531115,27.6634023 C25.9234676,29.2788365 23.5119673,30.4903535 20.899533,30.4903535 C18.2870986,30.4902948 16.0765908,29.2787778 14.2679509,27.6633435 C13.06223,26.4518265 12.057443,24.6344923 11.6555166,22.8172168 L11.6555166,19.1826071 C12.057443,17.3652728 13.06223,15.5479973 14.2679509,14.3364803 C16.0765324,12.5192048 18.2870987,11.5095877 20.899533,11.5095877 Z M20.899533,13.5288219 C18.8899591,13.5288219 17.0813777,14.336539 15.6746644,15.749956 C14.4689434,16.961473 13.4641565,18.9807071 13.4641565,20.9999413 C13.4641565,23.0191754 14.4689434,24.8364509 15.6746644,26.2499266 C17.0813777,27.6634022 18.8899591,28.4710607 20.899533,28.4710607 C23.1100992,28.4711194 24.9186807,27.6634609 26.325394,26.2499853 C27.531115,24.8365097 28.3349679,23.0192341 28.3349679,21 C28.3349679,18.9807659 27.531115,16.9615317 26.325394,15.7500147 C24.9186807,14.3365977 23.1100409,13.5288806 20.899533,13.5288806 Z M20.899533,10.096112 C20.2966725,10.096112 19.8947461,9.89421211 19.4928196,9.49035354 C19.0908931,9.08649497 18.8899591,8.6826364 18.8899591,8.0768779 C18.8899591,7.47111941 19.0908931,6.86536086 19.4928196,6.46150235 C19.8947461,6.05770245 20.2966141,5.85574385 20.899533,5.85574385 C21.5023934,5.85580258 22.1052539,6.0577025 22.5071803,6.46156108 C22.9091068,6.86541965 23.1100408,7.47117814 23.1100408,8.07693663 C23.1100408,8.68269513 22.9091068,9.0865537 22.5071803,9.49041227 C22.1052539,9.89421217 21.5023935,10.0961708 20.899533,10.0961708 Z M20.899533,8.07693663 C21.100467,8.07693663 21.100467,8.07693663 21.100467,8.07693663 L21.100467,7.87503671 C21.100467,7.87503671 21.100467,7.87503671 20.899533,7.87503671 L20.899533,8.0768779 Z M30.1435493,26.6537851 L30.3444833,26.4518852 C30.5454173,25.8461267 31.1483363,25.4422682 31.5502043,25.4422682 C31.7511967,25.4422682 31.9521308,25.2403682 32.1531232,25.2403682 C32.5550107,25.2404465 32.7559447,25.4423954 33.1578517,25.6442855 C33.7607121,25.8461855 34.1626386,26.451944 34.1626386,26.8558026 C34.363631,27.4615611 34.363631,28.0673196 33.9617046,28.4711781 C33.7607705,29.0769366 33.1579101,29.4807952 32.7559836,29.4807952 C32.5550496,29.4807952 32.3540572,29.6826951 32.1531232,29.6826951 L32.1530648,29.6826951 C31.7511773,29.6826168 31.5502432,29.4807266 31.1483363,29.2787778 C30.7464098,29.0768778 30.3444833,28.6730193 30.1435493,28.2691607 L30.1435493,28.0673195 L30.1435493,28.2691607 Z M30.1435493,39.9807659 C27.330181,41.1922829 24.3158202,42 20.899533,42 L20.899533,39.5769073 C24.3158203,39.5769073 27.5311151,38.7691902 30.1435493,37.1538146 C30.9474023,36.7498973 31.5502627,36.3460388 32.1531232,35.9422389 C32.7559836,35.3364804 33.5598365,34.7307218 34.162697,34.1249047 C37.5789842,30.8941535 39.5885581,26.047968 39.5885581,20.9998827 C39.5885581,15.7498973 37.5789842,11.1056705 34.162697,7.67296071 C33.5598365,7.06720222 32.7559836,6.66334365 32.1531232,6.05758516 C31.5502627,5.6537852 30.9474022,5.24992663 30.1435493,4.84612673 L30.1435493,2.01923413 C30.9474023,2.4230927 31.5502627,2.82695127 32.1531232,3.23075117 C33.5598365,4.03846832 34.7655575,5.04808538 35.7703444,6.05764377 C39.5884997,9.89415344 42,15.1441975 42,20.9999413 C42,26.8556852 39.5884997,32.1057292 35.7703444,35.9422389 C34.7655575,36.9518559 33.5598365,37.961473 32.1531232,38.7691315 C31.5502627,39.1730487 30.9474022,39.5769073 30.1435493,39.9807072 Z M32.1531227,27.6634607 C32.1569975,27.6634414 32.3539988,27.6614754 32.3539988,27.461561 C32.3539988,27.461561 32.3539988,27.461561 32.1530648,27.2596611 C32.1491904,27.2596219 31.9521892,27.2615879 31.9521892,27.4615023 C31.9521892,27.4615023 31.9521892,27.6634022 32.1531232,27.6634022 Z M32.1531232,16.5576731 L32.1531816,16.5576731 L32.1531816,14.7403976 L32.1531816,14.5384977 C32.3541156,14.5384977 32.3541156,14.5384977 32.3541156,14.5384977 C32.3541156,14.5384977 32.3541156,14.5384977 32.3541156,14.3365977 L32.1531816,14.3365977 L32.1531816,12.3173636 C32.3541156,12.3173636 32.555108,12.3173636 32.756042,12.5192635 C33.1579101,12.5192635 33.760829,12.9231221 33.961763,13.3269807 L33.961763,13.5288806 C34.363631,13.9327391 34.363631,14.5384977 34.162697,15.1442561 C34.162697,15.548056 33.7607705,15.9519146 33.1579101,16.3557732 C32.7559836,16.5576731 32.5550496,16.5576731 32.1531232,16.5576731 Z M32.1531232,12.3173049 L32.1531232,14.336539 C31.9521892,14.336539 31.9521892,14.336539 31.9521892,14.5384389 L32.1531232,14.7403388 L32.1531232,16.5576731 C31.9521892,16.5576731 31.7511967,16.5576731 31.5502627,16.5576731 C31.1483363,16.3557731 30.5454758,16.1538145 30.3445417,15.548056 L30.1436077,15.3461561 L30.1436077,13.7307805 C30.3445417,13.3269219 30.7464682,12.9230634 31.1483947,12.7211634 L31.1483947,12.5192635 C31.5502043,12.5192048 31.7511967,12.3173049 32.1531232,12.3173049 Z M30.1435493,13.7307805 L30.1435493,15.3461561 C29.9426153,14.9422975 29.9426153,14.336539 30.1435493,13.9326804 L30.1435493,13.7307805 Z" id="Shape"></path>
                    </g>
                </g>
            </g>
        </g>
    </g>
</svg>