<?xml version="1.0" encoding="UTF-8"?>
<svg width="78px" height="78px" viewBox="0 0 78 78" version="1.1" xmlns="http://www.w3.org/2000/svg" xmlns:xlink="http://www.w3.org/1999/xlink">
    <!-- Generator: Sketch 49.2 (51160) - http://www.bohemiancoding.com/sketch -->
    <title>33</title>
    <desc>Created with Sketch.</desc>
    <defs></defs>
    <g id="Page-1" stroke="none" stroke-width="1" fill="none" fill-rule="evenodd">
        <g id="首页" transform="translate(-1421.000000, -6970.000000)">
            <g id="Group-11" transform="translate(1421.000000, 6970.000000)">
                <g id="Group-57">
                    <g id="Group-9-Copy-3" fill="#E6F3FF">
                        <circle id="Oval-2" cx="39" cy="39" r="39"></circle>
                    </g>
                    <g id="买车线索管理" transform="translate(25.000000, 21.000000)" fill="#58B2FF" fill-rule="nonzero">
                        <path d="M18,0 L18,8.42888228 C18,8.74399402 18.2698193,9 18.6011425,9 L27,9 L18,0 Z" id="Shape"></path>
                        <path d="M17.6439052,27.5108717 C17.6439052,27.3525306 17.6599535,27.1976849 17.6679548,27.0409325 L5.70874855,27.0409325 C5.06219993,27.0409325 4.53809365,26.5204676 4.53809365,25.8785231 C4.53809365,25.2366239 5.06219993,24.716159 5.70874855,24.716159 L18.0821464,24.716159 C19.2738332,21.0008158 22.7752819,18.3082895 26.9123061,18.3082895 C26.9419794,18.3082895 26.970601,18.312239 27,18.3128745 L27,11.5365258 L18.8174863,11.5365258 C17.203698,11.5365258 15.8906205,10.2327532 15.8906205,8.63054752 L15.8906205,0 L1.75616521,0 C0.78636514,0 0,0.780402296 0,1.74356877 L0,32.2564312 C0,33.2195977 0.78636514,34 1.75616521,34 L20.3423461,34 C18.6751093,32.3358742 17.6439052,30.0434226 17.6439052,27.5108717 Z M5.70874855,7.062298 L13.4860778,7.062298 C14.1325807,7.062298 14.6567327,7.58280831 14.6567327,8.22470748 C14.6567327,8.86660665 14.1325807,9.38707153 13.4860778,9.38707153 L5.70874855,9.38707153 C5.06219993,9.38707153 4.53809365,8.8666066 4.53809365,8.22470748 C4.53809365,7.58280835 5.06224568,7.062298 5.70874855,7.062298 Z M5.70874855,15.8892285 L19.1275699,15.8892285 C19.7741185,15.8892285 20.2982705,16.4097388 20.2982705,17.0515926 C20.2982705,17.6935371 19.7740728,18.2139566 19.1275699,18.2139566 L5.70874855,18.2139566 C5.06219993,18.2139566 4.53809365,17.6934917 4.53809365,17.0515926 C4.53813941,16.4097388 5.06224568,15.8892285 5.70874855,15.8892285 Z" id="Shape"></path>
                        <path d="M28.0001767,20 C23.5815384,20 20,23.5820295 20,28.0002871 C20,32.4184563 23.5815384,36 28.0001767,36 C32.4185499,36 36,32.4185005 36,28.0002871 C36,23.5820295 32.4185499,20 28.0001767,20 Z M23.4795457,23.7383115 L32.3866137,23.7383115 L32.3866137,25.0107863 L31.7901618,27.3568717 C31.3658033,27.251388 30.8885269,27.1447558 30.3586419,27.038742 L30.8755846,25.090385 L25.4677187,25.090385 C25.5473604,25.1168443 25.6796108,25.183633 25.8654416,25.2891168 C26.7661489,25.686801 27.4023996,25.9915907 27.7739729,26.2037066 L27.0582571,27.3171166 C26.3953266,26.9194323 25.5870267,26.4958188 24.632739,26.0446418 L25.2689455,25.0903409 L23.4795457,25.0903409 L23.4795457,23.7383115 Z M32.6250973,30.1005972 L29.2850462,30.1005972 L29.2453357,30.2994172 C30.6232311,30.8030711 31.7106526,31.2278772 32.5059218,31.5718478 L31.750363,32.8045232 C30.47795,32.1943255 29.3775861,31.7309127 28.4500223,31.4127829 C27.7869594,32.0490424 26.3027866,32.5521221 23.9965325,32.9238329 C23.7311482,32.313591 23.4925764,31.850134 23.2808167,31.5320926 C25.825687,31.267544 27.2701051,30.7903936 27.6149985,30.1005972 L23.2012633,30.1005972 L23.2012633,28.7486562 L25.7461335,28.7486562 C25.2689455,28.5100809 24.5930285,28.166022 23.7182059,27.7148008 L24.3940787,26.641146 C25.3744719,27.0923673 26.2094516,27.5160249 26.8992827,27.9136208 L26.3425412,28.7486562 L28.092054,28.7486562 C28.1181154,28.6691458 28.131897,28.5365402 28.131897,28.3510161 C28.1577816,28.191907 28.1716516,28.0726857 28.1716516,27.993087 C28.251205,26.9592758 28.2909155,26.098267 28.2909155,25.4084706 L29.8019446,25.4084706 C29.8019446,26.3367981 29.7482759,27.237562 29.6427936,28.1123967 L29.6030832,28.748612 L32.6250531,28.748612 L32.6250531,30.1005972 L32.6250973,30.1005972 Z" id="Shape"></path>
                    </g>
                </g>
            </g>
        </g>
    </g>
</svg>