<?xml version="1.0" encoding="UTF-8"?>
<svg width="78px" height="78px" viewBox="0 0 78 78" version="1.1" xmlns="http://www.w3.org/2000/svg" xmlns:xlink="http://www.w3.org/1999/xlink">
    <!-- Generator: Sketch 49.2 (51160) - http://www.bohemiancoding.com/sketch -->
    <title>40</title>
    <desc>Created with Sketch.</desc>
    <defs></defs>
    <g id="Page-1" stroke="none" stroke-width="1" fill="none" fill-rule="evenodd">
        <g id="招商加盟" transform="translate(-921.000000, -1386.000000)">
            <g id="Group-6" transform="translate(921.000000, 1386.000000)">
                <g id="Group-8">
                    <g id="Group-2-Copy-3" fill="#E6F3FF">
                        <circle id="Oval-2" cx="39" cy="39" r="39"></circle>
                    </g>
                    <g id="套餐" transform="translate(40.000000, 38.500000) scale(-1, 1) rotate(-180.000000) translate(-40.000000, -38.500000) translate(23.000000, 21.000000)" fill="#58B2FF" fill-rule="nonzero">
                        <path d="M11.8791225,6.24762803e-16 L3.12087751,6.24762803e-16 C1.39726508,6.24762803e-16 0,1.40007034 0,3.12714323 L0,11.8728568 C0,13.5999297 1.39726508,15 3.12087751,15 L11.8791225,15 C13.6027349,15 15,13.5999297 15,11.8728568 L15,3.12714323 C15,1.40007034 13.6027788,0 11.8791225,6.24762803e-16 Z" id="Shape"></path>
                        <path d="M11.8791225,19 L3.12087751,19 C1.39726508,19 0,20.4000703 0,22.1271432 L0,30.8728568 C0,32.5999297 1.39726508,34 3.12087751,34 L11.8791225,34 C13.6027349,34 15,32.5999297 15,30.8728568 L15,22.1271432 C15,20.4000703 13.6027788,19 11.8791225,19 Z" id="Shape"></path>
                        <path d="M33.1648757,24.4934882 L27.5065488,18.8351597 C26.3930029,17.7216134 24.5875898,17.7216134 23.4740439,18.8351597 L17.8351594,24.4740458 C16.7216135,25.587592 16.7216135,27.3930057 17.8351594,28.5065519 L23.4934462,34.1648403 C24.6069921,35.2783866 26.4124052,35.2783866 27.5259511,34.1648403 L33.1648356,28.5259542 C34.2783815,27.4124481 34.2783815,25.6069943 33.1648757,24.4934882 Z" id="Shape"></path>
                        <path d="M21.1208775,15 L29.8791225,15 C31.6027349,15 33,13.5999338 33,11.8728659 L33,3.12713407 C33,1.40006624 31.6027349,0 29.8791225,0 L21.1208775,0 C19.3972651,0 18,1.40006624 18,3.12713407 L18,11.872822 C18,13.5998898 19.3972212,15 21.1208775,15 Z" id="Shape"></path>
                    </g>
                </g>
            </g>
        </g>
    </g>
</svg>