<?xml version="1.0" encoding="UTF-8"?>
<svg width="78px" height="78px" viewBox="0 0 78 78" version="1.1" xmlns="http://www.w3.org/2000/svg" xmlns:xlink="http://www.w3.org/1999/xlink">
    <!-- Generator: Sketch 49.2 (51160) - http://www.bohemiancoding.com/sketch -->
    <title>41</title>
    <desc>Created with Sketch.</desc>
    <defs></defs>
    <g id="Page-1" stroke="none" stroke-width="1" fill="none" fill-rule="evenodd">
        <g id="招商加盟" transform="translate(-1576.000000, -1386.000000)">
            <g id="Group-9" transform="translate(1576.000000, 1386.000000)">
                <g id="Group-11">
                    <g id="Group-12">
                        <g id="Group-2-Copy-2" fill="#E6F3FF">
                            <circle id="Oval-2" cx="39" cy="39" r="39"></circle>
                        </g>
                        <g id="降低成本" transform="translate(21.000000, 20.000000)" fill-rule="nonzero">
                            <path d="M36.0348491,19.3608731 C34.122921,17.2176132 31.4909102,15.8688954 28.6500187,15.5766744 L27.2027596,15.4727658 L28.1785169,14.3105285 C28.5071971,13.7005463 28.5807026,13.0363007 28.6580167,12.3339553 L28.6682999,12.241592 L28.7063857,8.00134993 C28.7063857,7.40599192 28.568896,6.88875781 28.2607822,6.32534209 L28.2539267,6.31264215 L28.1651869,6.04324938 L28.1861341,5.99014052 C28.3217194,5.64647233 28.3742778,5.39786129 28.3742778,5.10499287 C28.3742778,4.33106595 27.9736155,3.60716911 27.1833358,2.95369923 C26.4349505,2.33525041 25.355219,1.79030734 23.9746099,1.33464872 C21.4102951,0.485676668 17.9155451,0 14.3868987,0 C10.8582524,0 7.36388318,0.485676668 4.79918758,1.33233964 C3.41819765,1.78799826 2.33884699,2.33294133 1.59046166,2.95139015 C0.800181979,3.60562972 0.399519703,4.32837202 0.399519703,5.10268379 C0.399519703,5.4267248 0.464646365,5.73729617 0.582331388,5.97667089 L0.60975314,6.03478275 L0.519109013,6.31148761 L0.512253575,6.32418755 C0.204139715,6.88875781 0.0666500934,7.40560707 0.0666500934,8.00250447 L0.0666500934,12.2508284 C0.0666500934,12.9493253 0.314588441,13.6574434 0.764381357,14.2451045 L0.829127162,14.3297708 L0.57699938,14.7565659 C0.234227471,15.3854056 0.0662692357,15.9553637 0.0662692357,16.4987674 L0.0662692357,20.7474761 C0.0662692357,21.3774703 0.27040895,22.0174706 0.708395278,22.757531 L0.761715353,22.84797 L0.50654071,23.1943321 C0.163768801,23.820093 0,24.3873572 0,24.9296064 L0,29.1771605 C0,30.9386044 1.45944662,32.5880578 4.10945433,33.8222615 C6.79716695,35.0741681 10.4233129,35.7634288 14.3202486,35.7634288 C15.9526046,35.7634288 19.0695439,35.4078303 19.1007742,35.4043667 L19.1769457,35.3955152 L19.2302658,35.451318 C20.2798416,36.552038 21.5341103,37.4325915 22.9211576,38.0424916 C24.3548609,38.6760017 25.9030492,39.0020394 27.4678365,38.9999904 C33.8262554,38.9999904 38.9990644,33.7464467 38.9990644,27.2887173 C39.036017,24.3628871 37.9771986,21.5310595 36.0348491,19.3608731 Z M5.66754309,3.23271316 C7.99839207,2.5111254 11.1168547,2.11319381 14.4535488,2.11319381 C21.5889174,2.11319381 26.5613952,3.90196176 26.5613952,5.50715778 C26.5613952,6.29801797 25.3506487,7.12736283 23.2391737,7.7816024 C20.9094673,8.5051144 17.7898621,8.90150661 14.4535488,8.90150661 C7.31818026,8.90150661 2.34570243,7.11273866 2.34570243,5.50754263 C2.34532157,4.7162976 3.55644898,3.88695273 5.66754309,3.23271316 Z M2.07986377,8.32038793 L2.34037042,8.56091718 C3.35421356,9.49686461 5.0779754,10.2711764 7.32541655,10.7999559 C9.42356149,11.2937143 11.8656209,11.5546405 14.3868987,11.5546405 C16.9081766,11.5546405 19.350236,11.2937143 21.4483809,10.7999559 C23.6954412,10.2711764 25.4199648,9.49686461 26.433427,8.56091718 L26.6939337,8.32038793 L26.6939337,12.1834802 C26.6939337,13.4723321 25.4260585,14.7904324 23.2159414,15.8010401 C20.8630027,16.8755324 17.7274014,17.467042 14.3868987,17.467042 C11.0463961,17.467042 7.91231823,16.8755324 5.55785607,15.8010401 C3.34888155,14.7919718 2.07986377,13.4738715 2.07986377,12.1834802 L2.07986377,8.32038793 Z M18.5710012,19.9450705 L18.3622912,20.2337056 C17.4292672,21.5185309 16.7822554,22.9920497 16.4656199,24.5532262 C16.4461962,24.6686802 16.4222022,24.7895221 16.3970656,24.9157519 C16.334224,25.2278626 16.2690974,25.5511339 16.2690974,25.8728659 L16.2690974,26.0298834 L16.1137074,26.0298834 C15.8851928,26.0298834 15.6361119,26.0468166 15.3935056,26.063365 C15.1508992,26.0799135 14.8903926,26.0976164 14.6527374,26.0976164 C11.3091878,26.0976164 8.16178001,25.5061069 5.79094097,24.4316146 C3.55911499,23.420622 2.27943319,22.1025217 2.27943319,20.8140546 L2.20668938,16.3883164 L2.47709833,16.6550152 C3.57549187,17.7379741 5.26116794,18.6427489 7.35207659,19.2719735 C9.481071,19.9127434 11.9829251,20.2517934 14.5883724,20.2517934 C15.8410133,20.2517934 17.0517599,20.1151728 18.2221355,19.9824007 L18.5710012,19.9450705 Z M18.0572242,33.2442216 C16.8831954,33.3836554 15.7019213,33.4515113 14.5198181,33.4474207 C11.1381828,33.4474207 7.97363632,32.9559713 5.60774843,32.0619722 C3.36487757,31.2153092 2.0787212,30.0896323 2.0787212,28.9728069 L2.0787212,25.3437015 L2.33122984,25.5472855 C4.62589734,27.3980138 9.29597417,28.5490906 14.5186755,28.5490906 C15.0480677,28.5490906 15.5050969,28.5490906 16.026491,28.4828969 L16.1750255,28.4640394 L16.1994004,28.6129751 C16.3997316,29.8325547 16.7950618,30.9486104 17.3747272,31.9299697 L17.3804401,31.9407455 C17.5563963,32.2978833 17.7932898,32.6180758 18.1482491,32.9798318 L18.3737169,33.2107399 L18.0572242,33.2442216 Z" id="Shape" fill="#58B2FF"></path>
                            <path d="M31.6399986,26.8666667 C31.4490439,26.7075368 31.2090179,26.6392099 30.9727236,26.6767172 C30.7364292,26.7142244 30.5232225,26.8544935 30.3800065,27.0666667 L28.400019,30 L28.400019,21 C28.400019,20.4477153 27.9970778,20 27.5000246,20 C27.0029715,20 26.6000303,20.4477153 26.6000303,21 L26.6000303,30 L24.6200428,27.0666667 C24.3218109,26.6248389 23.7576932,26.5352959 23.3600507,26.8666667 C22.9624082,27.1980375 22.8818199,27.8248389 23.1800518,28.2666667 L26.7800292,33.6 C26.949997,33.8518058 27.2167448,34 27.5000246,34 C27.7833044,34 28.0500522,33.8518058 28.2200201,33.6 L31.8199975,28.2666667 C31.9632135,28.0544935 32.0247073,27.7877962 31.9909509,27.5252453 C31.9571946,27.2626944 31.8309533,27.0257966 31.6399986,26.8666667 Z" id="Shape" fill="#E6F3FF" transform="translate(27.500000, 27.000000) rotate(-180.000000) translate(-27.500000, -27.000000) "></path>
                        </g>
                    </g>
                </g>
            </g>
        </g>
    </g>
</svg>