<?xml version="1.0" standalone="no"?>
<!DOCTYPE svg PUBLIC "-//W3C//DTD SVG 1.1//EN" "http://www.w3.org/Graphics/SVG/1.1/DTD/svg11.dtd" >
<svg xmlns="http://www.w3.org/2000/svg">
<metadata>Generated by IcoMoon</metadata>
<defs>
<font id="icomoon" horiz-adv-x="1024">
<font-face units-per-em="1024" ascent="960" descent="-64" />
<missing-glyph horiz-adv-x="1024" />
<glyph unicode="&#x20;" horiz-adv-x="512" d="" />
<glyph unicode="&#xe904;" horiz-adv-x="1012" d="M1011.81 448c0-282.77-226.501-512-505.905-512s-505.905 229.23-505.905 512c0 282.77 226.501 512 505.905 512s505.905-229.23 505.905-512z" />
<glyph unicode="&#xe905;" horiz-adv-x="1012" d="M704.15 421.19l-282.911-175.6c-11.441-7.101-26.472-3.583-33.573 7.857-2.396 3.861-3.666 8.314-3.666 12.858v351.2c0 13.465 10.916 24.381 24.381 24.381 4.544 0 8.997-1.27 12.858-3.666l282.911-175.6c11.441-7.101 14.958-22.132 7.857-33.573-1.979-3.189-4.668-5.878-7.857-7.857z" />
<glyph unicode="&#xe906;" glyph-name="11" d="M0 913.683v-308.144c0-21.739 17.644-39.384 39.385-39.384s39.385 17.645 39.385 39.384v222.366l250.408-250.486c14.729-14.73 38.597-14.73 53.404 0 14.73 14.808 14.73 38.675 0 53.405l-250.487 250.408h222.367c21.739 0 39.385 17.645 39.385 39.384s-17.645 39.384-39.385 39.384h-308.145c-28.751 0-46.316-14.81-46.316-46.317zM977.685 960h-308.146c-21.739 0-39.385-17.645-39.385-39.384 0-21.741 17.645-39.384 39.385-39.384h222.367l-250.487-250.408c-14.73-14.729-14.73-38.597 0-53.405 14.808-14.73 38.675-14.73 53.404 0l250.408 250.486v-222.366c0-21.739 17.645-39.384 39.385-39.384s39.385 17.645 39.385 39.384v308.144c0 31.507-17.485 46.317-46.315 46.317zM46.315-64h308.146c21.739 0 39.385 17.644 39.385 39.385s-17.645 39.385-39.385 39.385h-222.367l250.487 250.408c14.73 14.729 14.73 38.597 0 53.404-14.808 14.73-38.675 14.73-53.404 0l-250.408-250.487v222.367c0 21.739-17.644 39.385-39.385 39.385s-39.385-17.645-39.385-39.385v-308.146c-0.001-31.507 17.564-46.315 46.315-46.315zM1024-17.684v308.145c0 21.739-17.644 39.385-39.385 39.385-21.739 0-39.385-17.645-39.385-39.385v-222.367l-250.408 250.487c-14.729 14.73-38.597 14.73-53.404 0-14.73-14.808-14.73-38.675 0-53.404l250.487-250.408h-222.367c-21.739 0-39.385-17.644-39.385-39.385s17.645-39.385 39.385-39.385h308.146c28.83 0 46.315 14.808 46.315 46.316z" />
<glyph unicode="&#xe907;" glyph-name="12" horiz-adv-x="956" d="M182.044 664.178c0-163.378 132.444-295.822 295.822-295.822s295.822 132.444 295.822 295.822c0 163.378-132.444 295.822-295.822 295.822s-295.822-132.444-295.822-295.822zM767.66 354.79c-23.794 18.726-57.785 17.024-79.879-5.107-54.386-54.477-129.166-88.525-212.445-88.525s-158.059 34.048-212.445 88.525c-22.094 22.131-56.085 25.536-79.879 5.107-91.776-78.31-159.758-178.752-181.853-316.646-8.498-56.179 30.592-102.144 88.377-102.144h776.698c56.085 0 96.875 45.965 88.377 102.144-23.794 137.894-91.776 238.336-186.951 316.646z" />
<glyph unicode="&#xe90a;" d="M0 448c0-282.77 229.23-512 512-512s512 229.23 512 512c0 282.77-229.23 512-512 512s-512-229.23-512-512z" />
<glyph unicode="&#xe90b;" d="M496.224 440.6l-148.296-169.825c-14.077-16.121-4.126-43.499 15.776-43.499h65.046v-42.526c0-14.036 9.951-25.571 22.329-25.571h121.84c12.257 0 22.329 11.396 22.329 25.571v42.526h65.046c19.902 0 29.853 27.517 15.776 43.499l-148.296 169.825c-8.738 9.867-22.815 9.867-31.552 0z" />
<glyph unicode="&#xe90c;" d="M496.224 584.905l-148.296-169.706c-14.077-16.123-4.126-43.504 15.776-43.504h65.046v-42.531c0-14.038 9.951-25.574 22.329-25.574h121.84c12.257 0 22.329 11.397 22.329 25.574v42.531h65.046c19.902 0 29.853 27.52 15.776 43.504l-148.296 169.706c-8.738 10.007-22.815 10.007-31.552 0z" />
<glyph unicode="&#xe90d;" d="M496.224 716.292l-148.296-169.825c-14.077-16.121-4.126-43.499 15.776-43.499h65.046v-42.526c0-14.036 9.951-25.571 22.329-25.571h121.84c12.257 0 22.329 11.396 22.329 25.571v42.526h65.046c19.902 0 29.853 27.517 15.776 43.499l-148.296 169.825c-8.738 9.867-22.815 9.867-31.552 0z" />
<glyph unicode="&#xe90e;" d="M1024 448c0-282.77-229.23-512-512-512s-512 229.23-512 512c0 282.77 229.23 512 512 512s512-229.23 512-512z" />
<glyph unicode="&#xe90f;" d="M512 631.79c12.682 0 22.979 10.297 22.979 22.979v45.944c0 12.691-10.288 22.979-22.979 22.979s-22.979-10.288-22.979-22.979v-45.944c0-12.682 10.297-22.979 22.979-22.979zM382.039 577.961c4.312 4.31 6.734 10.156 6.734 16.252s-2.422 11.942-6.734 16.252l-32.504 32.49c-8.976 8.962-23.514 8.962-32.49 0-8.962-8.976-8.962-23.514 0-32.49l32.49-32.504c4.31-4.312 10.156-6.734 16.252-6.734s11.942 2.422 16.252 6.734zM328.21 448c0 12.682-10.297 22.979-22.979 22.979h-45.944c-12.691 0-22.979-10.288-22.979-22.979s10.288-22.979 22.979-22.979h45.944c12.682 0 22.979 10.297 22.979 22.979zM695.79 448c0-12.682 10.27-22.979 22.979-22.979h45.944c12.691 0 22.979 10.288 22.979 22.979s-10.288 22.979-22.979 22.979h-45.944c-12.709 0-22.979-10.297-22.979-22.979zM641.975 577.961c4.305-4.31 10.147-6.732 16.238-6.732s11.933 2.422 16.238 6.732l32.49 32.504c4.314 4.306 6.738 10.15 6.738 16.245s-2.424 11.94-6.738 16.245c-8.976 8.962-23.514 8.962-32.49 0l-32.477-32.49c-4.312-4.31-6.734-10.156-6.734-16.252s2.422-11.942 6.734-16.252zM661.329 459.483c0 82.487-66.855 149.343-149.329 149.343s-149.329-66.855-149.329-149.343c0-82.473 66.855-149.329 149.329-149.329s149.329 66.855 149.329 149.329zM420.098 264.21c0-12.682 10.297-22.979 22.979-22.979h137.846c12.687 0 22.972 10.285 22.972 22.972s-10.285 22.972-22.972 22.972h-137.846c-12.682 0-22.979-10.283-22.979-22.965zM466.056 195.287c0-12.682 10.283-22.979 22.965-22.979h45.958c8.207 0 15.791 4.378 19.894 11.486s4.104 15.864 0 22.972c-4.104 7.108-11.687 11.486-19.894 11.486h-45.958c-12.682 0-22.965-10.283-22.965-22.965z" />
<glyph unicode="&#xe910;" d="M1024 448c0-282.77-229.23-512-512-512s-512 229.23-512 512c0 282.77 229.23 512 512 512s512-229.23 512-512z" />
<glyph unicode="&#xe911;" d="M513.477 611.437l0.050 0.046c62.926 62.898 150.434 85.265 228.225 66.274 19.006-77.751-3.378-165.206-66.307-228.1-0.87-0.87-1.744-1.732-2.626-2.586l-34.608-34.592 28.612-50.521c8.672-15.313 7.793-34.238-2.259-48.682l-75.299-108.201c-14.438-20.75-42.981-25.873-63.747-11.443-0.754 0.526-1.492 1.074-2.214 1.644l0.195 0.244c-10.97 6.86-14.826 20.992-8.858 32.468-0.018 0.008-0.036 0.015-0.053 0.023 14.907 25.434 16.705 58.702 6.587 92.65-36.963-8.239-77.215 2.022-105.976 30.763-28.753 28.737-39.016 68.955-30.788 105.889-33.948 10.1-67.22 8.3-92.656-6.591-0.008 0.018-0.015 0.036-0.023 0.053-11.481-5.965-25.621-2.113-32.486 8.849l-0.214-0.168c-13.961 17.958-12.69 43.914 3.816 60.411 1.92 1.919 4.007 3.664 6.236 5.214l108.323 75.295c14.42 10.024 33.307 10.922 48.614 2.311l50.332-28.318 35.997 35.977c0.37 0.374 0.748 0.736 1.126 1.091zM357.536 385.641c10.659-27.414 22.235-47.359 34.722-59.839 12.232-12.225 31.066-23.012 56.507-32.357 3.939-1.447 6.77-4.931 7.379-9.080s-1.102-8.299-4.459-10.815l-43.447-32.563c-3.861-2.893-9.122-3.056-13.154-0.408s-5.972 7.538-4.848 12.228l1.897 7.911c1.056 4.4-0.582 9.008-4.178 11.757s-8.474 3.122-12.447 0.952l-38.321-20.933c-4.459-2.433-9.988-1.638-13.581 1.951s-4.389 9.116-1.956 13.573l22.349 40.874c2.079 3.801 1.833 8.45-0.637 12.010s-6.739 5.421-11.030 4.808l-19.277-2.758c-4.585-0.656-9.114 1.513-11.474 5.496s-2.087 8.995 0.693 12.698l35.428 47.214c2.495 3.324 6.597 5.035 10.716 4.47s7.608-3.317 9.115-7.19h0.004zM569.037 505.14c17.884-17.878 46.882-17.878 64.766 0 17.888 17.87 17.888 46.851 0 64.729-17.884 17.874-46.882 17.874-64.766 0-17.884-17.878-17.884-46.859 0-64.729z" />
<glyph unicode="&#xe912;" d="M1024 448c0-282.77-229.23-512-512-512s-512 229.23-512 512c0 282.77 229.23 512 512 512s512-229.23 512-512z" />
<glyph unicode="&#xe913;" d="M748.765 443.262c-25.1 28.137-59.654 45.843-96.95 49.68l-19 1.364 12.81 15.258c4.315 8.008 5.28 16.728 6.295 25.949l0.135 1.213 0.5 55.667c0 7.816-1.805 14.606-5.85 22.003l-0.090 0.167-1.165 3.537 0.275 0.697c1.78 4.512 2.47 7.776 2.47 11.62 0 10.16-5.26 19.664-15.635 28.243-9.825 8.119-24 15.273-42.125 21.255-33.665 11.145-79.545 17.522-125.869 17.522s-92.2-6.376-125.869-17.491c-18.13-5.982-32.3-13.136-42.125-21.255-10.375-8.589-15.635-18.077-15.635-28.243 0-4.254 0.855-8.331 2.4-11.474l0.36-0.763-1.19-3.633-0.090-0.167c-4.045-7.412-5.85-14.197-5.85-22.033v-55.773c0-9.17 3.255-18.466 9.16-26.181l0.85-1.112-3.31-5.603c-4.5-8.256-6.705-15.738-6.705-22.872v-55.778c0-8.271 2.68-16.673 8.43-26.388l0.7-1.187-3.35-4.547c-4.5-8.215-6.65-15.662-6.65-22.781v-55.763c0-23.125 19.16-44.779 53.95-60.982 35.285-16.435 82.89-25.484 134.049-25.484 21.43 0 62.35 4.668 62.76 4.714l1 0.116 0.7-0.733c13.779-14.45 30.245-26.011 48.455-34.017 18.822-8.317 39.147-12.597 59.69-12.57 83.475 0 151.384 68.97 151.384 153.748 0.485 38.411-13.415 75.588-38.915 104.078zM350.097 654.996c30.6 9.473 71.54 14.697 115.344 14.697 93.675 0 158.954-23.483 158.954-44.557 0-10.383-15.895-21.27-43.615-29.859-30.585-9.498-71.54-14.702-115.339-14.702-93.675 0-158.954 23.483-158.954 44.557-0.005 10.388 15.895 21.275 43.61 29.864zM302.997 588.204l3.42-3.158c13.31-12.287 35.94-22.453 65.445-29.395 27.545-6.482 59.605-9.908 92.705-9.908s65.16 3.425 92.705 9.908c29.5 6.942 52.14 17.107 65.445 29.395l3.42 3.158v-50.715c0-16.92-16.645-34.225-45.66-47.492-30.89-14.106-72.055-21.872-115.909-21.872s-85 7.765-115.909 21.872c-29 13.247-45.66 30.552-45.66 47.492v50.715zM519.496 435.593l-2.74-3.789c-12.249-16.867-20.743-36.212-24.9-56.708-0.255-1.516-0.57-3.102-0.9-4.759-0.825-4.097-1.68-8.341-1.68-12.565v-2.061h-2.040c-3 0-6.27-0.222-9.455-0.44s-6.605-0.45-9.725-0.45c-43.895 0-85.215 7.765-116.339 21.872-29.3 13.273-46.1 30.577-46.1 47.492l-0.955 58.102 3.55-3.501c14.42-14.217 36.55-26.095 64-34.356 27.95-8.412 60.795-12.863 95-12.863 16.445 0 32.34 1.794 47.705 3.537l4.58 0.49zM512.751 260.999c-15.413-1.831-30.921-2.721-46.44-2.668-44.395 0-85.94 6.452-116.999 18.188-29.445 11.115-46.33 25.893-46.33 40.555v47.644l3.315-2.673c30.125-24.297 91.435-39.408 159.999-39.408 6.95 0 12.95 0 19.795 0.869l1.95 0.248 0.32-1.955c2.63-16.011 7.82-30.663 15.43-43.546l0.075-0.141c2.31-4.689 5.42-8.892 10.080-13.641l2.96-3.031-4.155-0.44z" />
<glyph unicode="&#xe914;" d="M691.069 344.725c-2.507 2.089-5.658 2.986-8.76 2.494s-5.901-2.334-7.781-5.119l-25.994-38.509v118.154c0 7.251-5.29 13.128-11.815 13.128s-11.815-5.878-11.815-13.128v-118.154l-25.994 38.509c-3.915 5.8-11.321 6.976-16.541 2.626s-6.278-12.579-2.363-18.379l47.261-70.017c2.231-3.306 5.733-5.251 9.452-5.251s7.221 1.946 9.452 5.251l47.261 70.017c1.88 2.785 2.687 6.287 2.244 9.734s-2.1 6.557-4.607 8.646z" />
<glyph unicode="&#xe915;" d="M1024 448c0-282.77-229.23-512-512-512s-512 229.23-512 512c0 282.77 229.23 512 512 512s512-229.23 512-512z" />
<glyph unicode="&#xe916;" d="M511.367 185.436c-29.151 0-56.978 5.376-83.479 17.473-25.176 10.753-47.702 26.882-67.578 47.043-38.427 40.322-59.628 92.741-58.303 149.193 1.325 44.355 13.251 84.677 41.077 127.687l128.531 201.612c9.275 13.441 23.851 21.505 39.752 21.505s30.476-8.064 39.752-21.505l139.131-220.429c10.6-20.161 17.226-36.29 22.526-52.419 6.625-18.817 9.275-37.634 9.275-56.451 0-56.451-22.526-110.214-60.953-150.537-41.077-41.666-94.079-63.172-149.732-63.172zM510.042 705.594c-1.325 0-2.65 0-2.65-1.344l-128.531-202.956c-22.526-36.29-33.126-68.548-34.452-104.838-1.325-44.355 15.901-86.021 46.377-116.935 15.901-16.129 33.126-28.226 54.327-37.634s42.402-13.441 66.253-13.441c43.727 0 86.129 17.473 116.605 49.731 31.801 32.258 49.027 73.924 49.027 119.623 0 26.882-7.95 51.075-26.501 87.365l-136.481 219.085c-1.325 1.344-2.65 1.344-3.975 1.344z" />
<glyph unicode="&#xe917;" d="M444.919 415.617c-12.197 0-24.393 2.844-33.879 8.531-1.355 0-2.71 0-2.71-1.422-1.355-7.109-1.355-14.219-1.355-21.328 0-59.719 46.076-109.485 102.993-110.907 58.272-1.422 107.058 49.766 107.058 110.907 0 17.063-4.066 31.282-9.486 45.5 0 0 0 1.422-1.355 1.422-21.683 9.953-46.076 15.641-65.048 11.375-54.207-11.375-51.496-44.079-96.217-44.079z" />
<glyph unicode="&#xe918;" d="M1024 448c0-282.77-229.23-512-512-512s-512 229.23-512 512c0 282.77 229.23 512 512 512s512-229.23 512-512z" />
<glyph unicode="&#xe919;" d="M512 685.526c-131.177 0-237.526-106.349-237.526-237.526s106.349-237.526 237.526-237.526c131.177 0 237.526 106.349 237.526 237.526s-106.349 237.526-237.526 237.526zM606.864 377.264c0-13.277-10.821-24.098-24.098-24.098h-98.316c-13.277 0-24.098 10.821-24.098 24.098v5.776c0 0.332 0.066 0.664 0.066 0.996s-0.066 0.664-0.066 0.996v136.82c0 13.277 10.821 24.098 24.098 24.098h5.776c13.277 0 24.098-10.821 24.098-24.098v-114.713h68.443c13.277 0 24.098-10.821 24.098-24.098v-5.776z" />
<glyph unicode="&#xe91a;" d="M1024 448c0-282.77-229.23-512-512-512s-512 229.23-512 512c0 282.77 229.23 512 512 512s512-229.23 512-512z" />
<glyph unicode="&#xe91b;" d="M365.58 360.521c0 0.034 0.017 2.65 2.638 2.65 0 0 0 0-2.638 0 0 2.651 0 2.651 0 2.651v26.509c2.638 0 5.277-2.651 7.914-2.651 5.277 0 10.553-5.302 15.829-13.254v-2.651h0.001c2.638-5.302 5.276-10.604 2.638-18.556 0 0 0-2.651-2.638-2.651 0-5.302-5.277-10.604-10.553-13.254s-10.553-5.302-13.191-5.302v26.509c0 0 0 0 0 0v-26.508c-2.638 0-5.277 2.651-7.914 2.651-7.914 0-13.191 5.302-15.829 13.254-5.277 7.953-5.277 21.207 0 29.16 0 0 2.638 2.651 2.638 5.302 2.639 0 5.277 2.651 5.277 2.651h2.638c2.638 2.651 7.914 5.302 13.191 5.302v-26.509c0 0 0 0-2.638 0v-2.651c0-2.651 0-2.651 2.638-2.651zM365.58 561.988c2.638 0 7.914-2.651 13.191-2.651v-2.651c5.276-2.651 10.552-7.953 10.552-13.255 2.638 0 2.638-2.651 2.638-2.651 2.639-5.302 0-13.254-2.638-18.556v-2.651c-5.277-7.953-10.553-10.604-15.829-13.254-2.638 0-5.277 0-7.914 0-5.277 0.001-10.553 0.001-13.191 2.651h-2.638c-5.277 5.301-10.553 10.603-10.553 15.905-2.638 7.953-2.638 15.905 0 21.207h2.638v2.651c2.638 5.302 7.914 10.604 15.829 10.604 2.638 2.651 5.277 2.651 7.914 2.651h0.001zM365.58 535.48c-2.638 0-2.638 0-2.638 0v-2.651l2.638-2.651v2.65c2.638 0 2.638 0 2.638 0-2.638 2.651-2.638 2.651-2.638 2.651zM365.58 644.166c-10.553-7.953-18.468-13.254-26.382-21.207-44.85-45.065-71.232-106.036-71.232-174.959 0-66.272 26.382-129.893 71.232-172.308 7.914-7.953 15.829-15.905 26.382-23.858 7.914-5.302 15.829-10.604 23.744-15.905 36.934-21.206 79.146-31.81 121.357-31.81v-31.811c-42.211 0-84.423 10.604-121.357 26.509-7.914 5.302-15.829 10.604-23.744 15.905-18.468 10.605-34.297 23.859-47.488 37.113-50.126 50.366-81.784 119.29-81.784 196.166s31.659 145.799 81.784 196.166c13.191 13.254 29.020 26.509 47.488 37.112 7.914 5.303 15.829 10.605 23.744 15.906 36.934 18.556 79.146 26.509 121.357 26.509 44.85 0 84.423-7.953 121.357-26.509v-37.112c-34.297 21.207-76.508 34.461-121.357 34.461-42.211 0-84.423-13.254-121.357-34.461-7.914-2.651-15.829-10.604-23.744-15.905zM510.681 249.184c-7.914 0-13.191 5.302-18.468 7.953-5.277 5.302-7.914 13.254-7.914 21.207s2.638 13.254 7.914 18.556c5.277 5.302 10.552 7.953 18.468 7.953s15.829-2.651 21.106-7.953c5.277-5.302 7.914-10.604 7.914-18.556s-2.638-15.905-7.914-21.207c-5.277-2.651-13.191-7.953-21.106-7.953zM510.681 275.693c2.638 0 2.638 0 2.638 0v2.651c0 2.651 0 2.651-2.638 2.651 0 0 0 0 0-2.651v-2.651zM510.681 572.591c34.297 0 65.955-13.254 87.061-37.112 18.468-15.905 29.020-39.763 34.297-63.621 2.638-7.953 2.638-15.905 2.638-23.858s0-15.905-2.638-23.858c-5.277-23.858-15.829-47.716-34.297-63.621-21.106-21.208-52.764-37.113-87.061-37.113s-63.317 15.906-87.061 37.114c-15.829 15.905-29.020 39.763-34.297 63.621v47.716c5.277 23.858 18.468 47.716 34.297 63.621 23.743 23.858 52.764 37.112 87.061 37.112zM510.681 546.083c-26.382 0-50.126-10.604-68.593-29.16-15.829-15.905-29.020-42.414-29.020-68.923s13.191-50.366 29.020-68.923c18.468-18.556 42.211-29.16 68.593-29.16 29.021-0.001 52.764 10.602 71.232 29.159 15.829 18.556 26.382 42.414 26.382 68.923s-10.553 53.018-26.382 68.923c-18.468 18.556-42.212 29.16-71.232 29.16zM510.681 591.148c-7.914 0-13.191 2.651-18.468 7.953s-7.914 10.604-7.914 18.556c0 7.953 2.638 15.905 7.914 21.207s10.552 7.953 18.468 7.953c7.914-0.001 15.829-2.651 21.106-7.953s7.914-13.254 7.914-21.207c0-7.953-2.638-13.254-7.914-18.556s-13.191-7.953-21.106-7.953zM510.681 617.657c2.638 0 2.638 0 2.638 0v2.651c0 0 0 0-2.638 0v-2.65zM632.038 373.776l2.638 2.651c2.638 7.953 10.553 13.254 15.829 13.254 2.639 0 5.277 2.651 7.915 2.651 5.276-0.001 7.914-2.652 13.19-5.303 7.914-2.651 13.191-10.603 13.191-15.905 2.639-7.953 2.639-15.905-2.638-21.207-2.638-7.953-10.552-13.254-15.829-13.254-2.638 0-5.277-2.651-7.914-2.651h-0.001c-5.276 0.001-7.914 2.651-13.19 5.303s-10.553 7.953-13.191 13.254v0zM632.038 198.817c-36.934-15.905-76.508-26.509-121.357-26.509v31.811c44.85 0 87.061 10.604 121.357 31.811 10.553 5.303 18.468 10.605 26.382 15.906 7.914 7.953 18.468 15.905 26.382 23.858 44.85 42.414 71.232 106.036 71.232 172.308 0 68.923-26.382 129.893-71.232 174.959-7.914 7.953-18.468 13.254-26.382 21.207-7.914 5.301-15.829 10.603-26.382 15.904v37.112c10.553-5.302 18.468-10.604 26.382-15.905 18.468-10.604 34.297-23.858 47.488-37.112 50.126-50.366 81.784-119.29 81.784-196.166s-31.659-145.799-81.784-196.166c-13.191-13.254-29.020-26.509-47.488-37.112-7.914-5.303-15.829-10.605-26.382-15.906zM658.42 360.521c0.051 0 2.637 0.026 2.637 2.651 0 0 0 0-2.638 2.651-0.051 0.001-2.637-0.025-2.637-2.65 0 0 0-2.651 2.638-2.651zM658.42 506.32h0.001v26.508c2.638 0 2.638 0 2.638 0s0 0 0 2.651h-2.638v26.509c2.638 0 5.277 0 7.914-2.651 5.276 0 13.191-5.302 15.829-10.604v-2.651c5.276-5.302 5.276-13.254 2.638-21.207 0-5.301-5.277-10.603-13.191-15.905-5.277-2.651-7.914-2.651-13.191-2.651zM658.42 561.988v-26.509c-2.638 0-2.638 0-2.638-2.651l2.638-2.651v-23.858c-2.638 0-5.277 0-7.914 0-5.277 2.651-13.191 5.302-15.829 13.254l-2.638 2.651v21.207c2.638 5.302 7.914 10.604 13.191 13.254v2.651c5.275 0.001 7.914 2.651 13.19 2.651zM632.038 543.432v-21.207c-2.638 5.302-2.638 13.254 0 18.556v2.651z" />
<glyph unicode="&#xe91c;" d="M1024 448c0-282.77-229.23-512-512-512s-512 229.23-512 512c0 282.77 229.23 512 512 512s512-229.23 512-512z" />
<glyph unicode="&#xe91d;" d="M564.513 684.308v-110.656c0-4.137 3.542-7.498 7.892-7.498h110.262l-118.154 118.154z" />
<glyph unicode="&#xe91e;" d="M559.838 323.139c0 2.079 0.211 4.112 0.316 6.169h-157.003c-8.488 0-15.369 6.833-15.369 15.26s6.881 15.26 15.369 15.26h162.441c15.645 48.776 61.612 84.124 115.924 84.124 0.39 0 0.765-0.052 1.151-0.060v88.961h-107.422c-21.186 0-38.424 17.116-38.424 38.15v113.304h-185.56c-12.732 0-23.055-10.245-23.055-22.89v-400.579c0-12.645 10.324-22.89 23.055-22.89h244.003c-21.888 21.847-35.426 51.943-35.426 85.191zM403.151 591.592h102.102c8.487 0 15.369-6.833 15.369-15.26s-6.881-15.26-15.369-15.26h-102.102c-8.488 0-15.369 6.833-15.369 15.26s6.881 15.26 15.369 15.26zM403.151 475.711h176.165c8.488 0 15.369-6.833 15.369-15.26 0-8.428-6.882-15.26-15.369-15.26h-176.165c-8.488 0-15.369 6.833-15.369 15.26s6.881 15.26 15.369 15.26z" />
<glyph unicode="&#xe91f;" d="M695.797 421.744c-58.009 0-105.028-47.026-105.028-105.029s47.019-105.022 105.028-105.022c58.005 0 105.023 47.019 105.023 105.022s-47.018 105.029-105.023 105.029zM636.449 372.666h116.934v-16.705l-7.83-30.8c-5.571 1.385-11.837 2.785-18.793 4.176l6.787 25.578h-70.996c1.046-0.347 2.782-1.224 5.221-2.609 11.825-5.221 20.177-9.222 25.056-12.007l-9.396-14.617c-8.703 5.221-19.315 10.782-31.843 16.705l8.352 12.528h-23.492v17.75zM756.514 289.141h-43.849l-0.521-2.61c18.089-6.612 32.365-12.189 42.806-16.705l-9.919-16.183c-16.704 8.011-31.15 14.095-43.328 18.271-8.705-8.353-28.189-14.957-58.466-19.837-3.484 8.011-6.616 14.096-9.396 18.271 33.41 3.473 52.372 9.737 56.9 18.793h-57.944v17.749h33.41c-6.265 3.132-15.138 7.649-26.623 13.573l8.873 14.095c12.871-5.924 23.833-11.486 32.889-16.705l-7.309-10.963h22.968c0.342 1.044 0.523 2.785 0.523 5.22 0.34 2.089 0.522 3.654 0.522 4.699 1.044 13.572 1.566 24.876 1.566 33.931h19.837c0-12.187-0.705-24.013-2.089-35.498l-0.521-8.352h39.673v-17.749h0.001z" />
<glyph unicode="&#xe921;" d="M1024 448c0-282.77-229.23-512-512-512s-512 229.23-512 512c0 282.77 229.23 512 512 512s512-229.23 512-512z" />
<glyph unicode="&#xe922;" d="M468.23 669.981c-112.681 0-204.352-92.5-204.352-206.204 0-113.701 91.671-206.204 204.352-206.204 112.677 0 204.352 92.504 204.352 206.204 0 113.704-91.674 206.204-204.352 206.204zM468.23 230.645c-127.396 0-231.042 104.583-231.042 233.132 0 128.552 103.646 233.132 231.042 233.132s231.042-104.58 231.042-233.132c0-128.549-103.646-233.132-231.042-233.132z" />
<glyph unicode="&#xe923;" d="M560.78 443.824h-76.398v52.374h54.090c3.762 0 7.281 1.488 9.905 4.191 2.599 2.673 3.99 6.21 3.918 9.849 0 7.742-6.238 14.040-13.914 14.040h-34.533l51.089 51.551c2.7 2.655 4.186 6.21 4.183 10.013 0 3.8-1.486 7.351-4.135 9.951-5.444 5.486-14.291 5.489-19.735 0l-64.959-65.551-64.517 65.101c-5.444 5.493-14.298 5.489-19.738 0-2.693-2.717-4.157-6.301-4.132-10.086 0.022-3.745 1.508-7.252 4.132-9.827l50.632-51.152h-34.112c-7.723 0-14.004-6.298-14.004-14.040s6.281-14.040 14.004-14.040h53.999v-52.374h-76.398c-7.676 0-13.918-6.298-13.918-14.040 0-7.793 6.241-14.131 13.918-14.131h76.398v-99.833c0-7.79 6.241-14.128 13.914-14.128s13.914 6.338 13.914 14.128v99.833h76.398c7.673 0 13.918 6.338 13.918 14.131 0 7.742-6.245 14.040-13.918 14.040z" />
<glyph unicode="&#xe924;" d="M824.887 341.981c0-85.983-69.080-155.681-154.285-155.681-85.212 0-154.289 69.698-154.289 155.681s69.077 155.681 154.289 155.681c85.205 0 154.285-69.698 154.285-155.681z" />
<glyph unicode="&#xe925;" d="M515.441 213.734h306.973v246.179h-306.973z" />
<glyph unicode="&#xe926;" d="M1024 448c0-282.77-229.23-512-512-512s-512 229.23-512 512c0 282.77 229.23 512 512 512s512-229.23 512-512z" />
<glyph unicode="&#xe927;" d="M457.9 224.821h-114.98c-22.628 0-40.972 18.38-40.972 41.054v114.816c0 22.673 18.344 41.054 40.972 41.054h114.98c22.628 0 40.972-18.38 40.972-41.054v-114.816c0-22.673-18.343-41.054-40.972-41.054z" />
<glyph unicode="&#xe928;" d="M457.9 474.256h-114.98c-22.628 0-40.972 18.38-40.972 41.054v114.816c0 22.673 18.344 41.054 40.972 41.054h114.98c22.628 0 40.972-18.38 40.972-41.054v-114.816c0-22.673-18.343-41.054-40.972-41.054z" />
<glyph unicode="&#xe929;" d="M737.344 546.376l-74.284-74.284c-14.619-14.619-38.321-14.619-52.94 0l-74.028 74.028c-14.619 14.619-14.619 38.321 0 52.94l74.283 74.283c14.619 14.619 38.321 14.619 52.94 0l74.028-74.028c14.619-14.618 14.619-38.321 0.001-52.939z" />
<glyph unicode="&#xe92a;" d="M579.228 421.744h114.98c22.628 0 40.972-18.38 40.972-41.054v-114.816c0-22.673-18.344-41.054-40.972-41.054h-114.98c-22.628 0-40.972 18.38-40.972 41.054v114.815c0 22.673 18.343 41.054 40.972 41.054z" />
<glyph unicode="&#xe92b;" d="M1024 448c0-282.77-229.23-512-512-512s-512 229.23-512 512c0 282.77 229.23 512 512 512s512-229.23 512-512z" />
<glyph unicode="&#xe92c;" d="M748.765 443.262c-25.1 28.137-59.654 45.843-96.95 49.68l-19 1.364 12.81 15.258c4.315 8.008 5.28 16.728 6.295 25.949l0.135 1.213 0.5 55.667c0 7.816-1.805 14.606-5.85 22.003l-0.090 0.167-1.165 3.537 0.275 0.697c1.78 4.512 2.47 7.776 2.47 11.62 0 10.16-5.26 19.664-15.635 28.243-9.825 8.119-24 15.273-42.125 21.255-33.665 11.145-79.545 17.522-125.869 17.522s-92.2-6.376-125.869-17.491c-18.13-5.982-32.3-13.136-42.125-21.255-10.375-8.589-15.635-18.077-15.635-28.243 0-4.254 0.855-8.331 2.4-11.474l0.36-0.763-1.19-3.633-0.090-0.167c-4.045-7.412-5.85-14.197-5.85-22.033v-55.773c0-9.17 3.255-18.466 9.16-26.181l0.85-1.112-3.31-5.603c-4.5-8.256-6.705-15.738-6.705-22.872v-55.778c0-8.271 2.68-16.673 8.43-26.388l0.7-1.187-3.35-4.547c-4.5-8.215-6.65-15.662-6.65-22.781v-55.763c0-23.125 19.16-44.779 53.95-60.982 35.285-16.435 82.89-25.484 134.049-25.484 21.43 0 62.35 4.668 62.76 4.714l1 0.116 0.7-0.733c13.779-14.45 30.245-26.011 48.455-34.017 18.822-8.317 39.147-12.597 59.69-12.57 83.475 0 151.384 68.97 151.384 153.748 0.485 38.411-13.415 75.588-38.915 104.078zM350.097 654.996c30.6 9.473 71.54 14.697 115.344 14.697 93.675 0 158.954-23.483 158.954-44.557 0-10.383-15.895-21.27-43.615-29.859-30.585-9.498-71.54-14.702-115.339-14.702-93.675 0-158.954 23.483-158.954 44.557-0.005 10.388 15.895 21.275 43.61 29.864zM302.997 588.204l3.42-3.158c13.31-12.287 35.94-22.453 65.445-29.395 27.545-6.482 59.605-9.908 92.705-9.908s65.16 3.425 92.705 9.908c29.5 6.942 52.14 17.107 65.445 29.395l3.42 3.158v-50.715c0-16.92-16.645-34.225-45.66-47.492-30.89-14.106-72.055-21.872-115.909-21.872s-85 7.765-115.909 21.872c-29 13.247-45.66 30.552-45.66 47.492v50.715zM519.496 435.593l-2.74-3.789c-12.249-16.867-20.743-36.212-24.9-56.708-0.255-1.516-0.57-3.102-0.9-4.759-0.825-4.097-1.68-8.341-1.68-12.565v-2.061h-2.040c-3 0-6.27-0.222-9.455-0.44s-6.605-0.45-9.725-0.45c-43.895 0-85.215 7.765-116.339 21.872-29.3 13.273-46.1 30.577-46.1 47.492l-0.955 58.102 3.55-3.501c14.42-14.217 36.55-26.095 64-34.356 27.95-8.412 60.795-12.863 95-12.863 16.445 0 32.34 1.794 47.705 3.537l4.58 0.49zM512.751 260.999c-15.413-1.831-30.921-2.721-46.44-2.668-44.395 0-85.94 6.452-116.999 18.188-29.445 11.115-46.33 25.893-46.33 40.555v47.644l3.315-2.673c30.125-24.297 91.435-39.408 159.999-39.408 6.95 0 12.95 0 19.795 0.869l1.95 0.248 0.32-1.955c2.63-16.011 7.82-30.663 15.43-43.546l0.075-0.141c2.31-4.689 5.42-8.892 10.080-13.641l2.96-3.031-4.155-0.44z" />
<glyph unicode="&#xe92d;" d="M582.367 341.224c2.507-2.089 5.658-2.986 8.76-2.494s5.901 2.334 7.781 5.119l25.994 38.509v-118.154c0-7.251 5.29-13.128 11.815-13.128s11.815 5.878 11.815 13.128v118.154l25.994-38.509c3.915-5.8 11.321-6.976 16.541-2.626s6.278 12.579 2.363 18.379l-47.261 70.017c-2.231 3.306-5.733 5.251-9.452 5.251s-7.221-1.946-9.452-5.251l-47.261-70.017c-1.88-2.785-2.687-6.287-2.244-9.734s2.1-6.557 4.607-8.646z" />
<glyph unicode="&#xe92e;" glyph-name="47" d="M605.091 704c0 13.964-9.309 23.273-23.273 23.273-6.982 0-11.636-2.327-16.291-6.982l-232.727-256c-4.655-4.655-6.982-9.309-6.982-16.291s2.327-11.636 6.982-16.291l232.727-256c4.655-4.655 9.309-6.982 16.291-6.982 13.964 0 23.273 9.309 23.273 23.273 0 6.982-2.327 11.636-6.982 16.291l-216.436 239.709 218.764 239.709c2.327 4.655 4.655 9.309 4.655 16.291zM512 960c-283.927 0-512-228.073-512-512s228.073-512 512-512c283.927 0 512 228.073 512 512s-228.073 512-512 512zM512-42.124c-269.568 0-490.124 220.556-490.124 490.124s220.556 490.124 490.124 490.124c269.568 0 490.124-220.556 490.124-490.124s-220.556-490.124-490.124-490.124z" />
<glyph unicode="&#xe92f;" glyph-name="48" d="M418.909 192c0-13.964 9.309-23.273 23.273-23.273 6.982 0 11.636 2.327 16.291 6.982l232.727 256c4.655 4.655 6.982 9.309 6.982 16.291s-2.327 11.636-6.982 16.291l-232.727 256c-4.655 4.655-9.309 6.982-16.291 6.982-13.964 0-23.273-9.309-23.273-23.273 0-6.982 2.327-11.636 6.982-16.291l216.436-239.709-218.764-239.709c-2.327-4.655-4.655-9.309-4.655-16.291zM512-64c283.927 0 512 228.073 512 512s-228.073 512-512 512c-283.927 0-512-228.073-512-512s228.073-512 512-512zM512 938.124c269.568 0 490.124-220.556 490.124-490.124s-220.556-490.124-490.124-490.124c-269.568 0-490.124 220.556-490.124 490.124s220.556 490.124 490.124 490.124z" />
<glyph unicode="&#xe930;" d="M512 960c-282.77 0-512-229.23-512-512.003 0-282.767 229.23-511.997 512-511.997s512 229.23 512 511.997c0 282.773-229.23 512.003-512 512.003z" />
<glyph unicode="&#xe931;" d="M748.962 467.037h-204.799v204.802c0 14.136-11.461 25.597-25.6 25.597s-25.597-11.461-25.597-25.597v-204.802h-204.802c-14.136 0-25.6-11.458-25.6-25.6 0-14.136 11.464-25.597 25.6-25.597h204.802v-204.801c0-14.142 11.458-25.603 25.597-25.603s25.6 11.461 25.6 25.603v204.799h204.799c14.141 0 25.602 11.461 25.602 25.597 0 14.143-11.461 25.601-25.602 25.601z" />
<glyph unicode="&#xe932;" glyph-name="Group-47" horiz-adv-x="906" d="M853.182 430.843l52.664-51.545-452.922-443.298-452.924 443.296 52.662 51.545 363.019-355.299v884.458h74.485v-884.458z" />
<glyph unicode="&#xea3c;" glyph-name="arrow-right2" d="M621.254 82.746l320 320c24.994 24.992 24.994 65.516 0 90.51l-320 320c-24.994 24.992-65.516 24.992-90.51 0-24.994-24.994-24.994-65.516 0-90.51l210.746-210.746h-613.49c-35.346 0-64-28.654-64-64s28.654-64 64-64h613.49l-210.746-210.746c-12.496-12.496-18.744-28.876-18.744-45.254s6.248-32.758 18.744-45.254c24.994-24.994 65.516-24.994 90.51 0z" />
<glyph unicode="&#xea40;" glyph-name="arrow-left2" d="M402.746 82.746l-320 320c-24.994 24.992-24.994 65.516 0 90.51l320 320c24.994 24.992 65.516 24.992 90.51 0 24.994-24.994 24.994-65.516 0-90.51l-210.746-210.746h613.49c35.346 0 64-28.654 64-64s-28.654-64-64-64h-613.49l210.746-210.746c12.496-12.496 18.744-28.876 18.744-45.254s-6.248-32.758-18.744-45.254c-24.994-24.994-65.516-24.994-90.51 0z" />
</font>
</defs>
</svg>
